<?xml version="1.0" encoding="UTF-8" standalone="no"?>
<!-- Created with Inkscape (http://www.inkscape.org/) -->

<svg
   xmlns:dc="http://purl.org/dc/elements/1.1/"
   xmlns:cc="http://creativecommons.org/ns#"
   xmlns:rdf="http://www.w3.org/1999/02/22-rdf-syntax-ns#"
   xmlns:svg="http://www.w3.org/2000/svg"
   xmlns="http://www.w3.org/2000/svg"
   xmlns:sodipodi="http://sodipodi.sourceforge.net/DTD/sodipodi-0.dtd"
   xmlns:inkscape="http://www.inkscape.org/namespaces/inkscape"
   width="65.316002mm"
   height="68.056702mm"
   viewBox="0 0 65.316002 68.056702"
   version="1.1"
   id="svg4934"
   inkscape:version="0.92.1 r15371"
   sodipodi:docname="logo.svg">
  <defs
     id="defs4928" />
  <sodipodi:namedview
     id="base"
     pagecolor="#ffffff"
     bordercolor="#666666"
     borderopacity="1.0"
     inkscape:pageopacity="0.0"
     inkscape:pageshadow="2"
     inkscape:zoom="0.35"
     inkscape:cx="537.71754"
     inkscape:cy="-62.817386"
     inkscape:document-units="mm"
     inkscape:current-layer="layer1"
     showgrid="false"
     fit-margin-top="0"
     fit-margin-left="0"
     fit-margin-right="0"
     fit-margin-bottom="0"
     inkscape:window-width="1920"
     inkscape:window-height="1057"
     inkscape:window-x="0"
     inkscape:window-y="0"
     inkscape:window-maximized="1" />
  <metadata
     id="metadata4931">
    <rdf:RDF>
      <cc:Work
         rdf:about="">
        <dc:format>image/svg+xml</dc:format>
        <dc:type
           rdf:resource="http://purl.org/dc/dcmitype/StillImage" />
        <dc:title></dc:title>
      </cc:Work>
    </rdf:RDF>
  </metadata>
  <g
     inkscape:label="Calque 1"
     inkscape:groupmode="layer"
     id="layer1"
     transform="translate(195.18776,-64.1562)">
    <g
       style="opacity:1"
       id="g4909"
       transform="translate(741.81534,-1248.8145)">
      <g
         transform="translate(35.225289,-0.10962227)"
         style="opacity:0.86000001"
         id="g4875">
        <rect
           style="opacity:1;fill:#54004d;fill-opacity:0.98876403;stroke:none;stroke-width:2.34400535;stroke-linecap:round;stroke-linejoin:round;stroke-miterlimit:4;stroke-dasharray:none;stroke-dashoffset:0;stroke-opacity:1"
           id="rect4847"
           width="28.978455"
           height="10.317101"
           x="-972.22839"
           y="1313.0803"
           ry="1.188558" />
        <rect
           ry="1.1171188"
           y="952.91553"
           x="1323.2504"
           height="9.6969833"
           width="30.528748"
           id="rect4849"
           style="opacity:1;fill:#54004d;fill-opacity:0.98876403;stroke:none;stroke-width:2.33246422;stroke-linecap:round;stroke-linejoin:round;stroke-miterlimit:4;stroke-dasharray:none;stroke-dashoffset:0;stroke-opacity:1"
           transform="rotate(90)" />
        <path
           style="fill:#54004d;fill-opacity:0.98876403;stroke:none;stroke-width:0.26458332px;stroke-linecap:butt;stroke-linejoin:miter;stroke-opacity:1"
           d="m -950.24562,1323.3521 c 0,0 -1.61974,0.1418 -2.18978,0.646 -0.38501,0.3405 -0.61366,1.4146 -0.61366,1.4146 l -0.87204,-2.1962 z"
           id="path4852"
           inkscape:connector-curvature="0"
           sodipodi:nodetypes="csccc" />
        <path
           sodipodi:nodetypes="csccc"
           inkscape:connector-curvature="0"
           id="path4854"
           d="m -965.34008,1323.3886 c 0,0 1.61974,0.1418 2.18978,0.646 0.38501,0.3405 0.61366,1.4146 0.61366,1.4146 l 0.87204,-2.1962 z"
           style="fill:#54004d;fill-opacity:0.98876403;stroke:none;stroke-width:0.26458332px;stroke-linecap:butt;stroke-linejoin:miter;stroke-opacity:1" />
        <path
           style="fill:#54004d;fill-opacity:0.98876403;stroke:none;stroke-width:0.26458332px;stroke-linecap:butt;stroke-linejoin:miter;stroke-opacity:1"
           d="m -962.61449,1352.3046 -0.0123,2.3775 c -0.005,1.0479 -0.007,2.4599 0.10388,3.2782 0.38101,2.823 0.54585,5.7241 2.21384,8.0333 1.33719,1.8512 3.47761,3.2763 5.70037,3.8002 3.9909,0.9406 8.80512,0.7578 12.2046,-1.5347 1.58459,-1.0686 2.99362,-3.1052 2.79537,-5.0061 -0.0851,-0.8157 -0.85826,-1.5429 -1.61692,-1.8544 -0.30225,-0.1241 -0.66061,-0.01 -0.97748,0.073 -0.95524,0.2402 -1.72191,1.0869 -2.70039,1.1997 -1.89453,0.2184 -4.09787,0.077 -5.61983,-1.0723 -1.36944,-1.034 -1.79529,-2.7855 -2.235,-4.4442 -0.0571,-0.2152 -0.0885,-0.4968 -0.11295,-0.7939 -0.0841,-1.0205 -0.0163,-2.2937 -0.0163,-2.2937 l -0.0204,-2.873 z"
           id="path4856"
           inkscape:connector-curvature="0"
           sodipodi:nodetypes="cssssssssssssccc" />
      </g>
      <path
         sodipodi:nodetypes="ccssccssssssssssssacccscscc"
         inkscape:connector-curvature="0"
         id="path4877"
         d="m -872.84336,1322.7938 h -11.65304 c 0,0 -0.54627,-7e-4 -1.13533,0.1492 -0.38223,0.097 -0.78995,0.3101 -1.05273,0.4498 -0.60479,0.3214 -1.55849,1.3389 -1.55849,1.3389 l -16.8982,19.4303 c 0,0 -0.8259,0.9305 -1.57611,1.1886 -0.40115,0.138 -1.28368,0.16 -1.70533,0.2067 -0.93971,0.104 -1.91963,0.036 -2.81636,0.3359 -1.17133,0.3913 -2.34218,0.9757 -3.20394,1.8603 -0.81495,0.8365 -1.63854,1.9077 -1.6795,3.0748 -0.0319,0.909 0.4241,1.9155 1.13689,2.4804 0.68174,0.5403 1.69282,0.4263 2.55799,0.5168 1.90174,0.1989 3.84362,-0.2214 5.73609,0.052 0.42073,0.061 0.8474,0.1572 1.22638,0.3498 0.32413,0.1647 0.64832,0.3752 0.86004,0.6708 4.5137,6.301 11.70973,15.6779 15.91894,21.6251 1.67427,2.3655 1.57963,2.1495 2.23058,2.933 0.236,0.284 0.71739,0.8227 1.18668,1.0786 0.5592,0.3049 1.84621,0.4926 1.84621,0.4926 l 11.73549,-0.026 -22.49675,-30.6314 c 0,0 -0.7861,-0.9088 -1.24735,-1.2894 -0.27887,-0.2301 -0.90856,-0.5924 -0.90856,-0.5924 0,0 0.59033,-0.3355 0.86254,-0.537 0.26503,-0.1963 1.11066,-0.8881 1.11066,-0.8881 z"
         style="fill:#400d00;fill-opacity:0.59607843;stroke:none;stroke-width:0.26458332px;stroke-linecap:butt;stroke-linejoin:miter;stroke-opacity:1" />
      <path
         sodipodi:nodetypes="csssscssc"
         inkscape:connector-curvature="0"
         id="path4879"
         d="m -927.41109,1366.3662 0.10335,12.9967 c 0.008,0.947 0.37365,1.4864 1.03354,1.4986 l 7.00215,0.1292 c 0.98953,0.018 1.49862,-0.5047 1.49862,-1.0852 v -7.4414 c 0,0 -2.88796,-0.4275 -4.54752,-1.111 -0.92347,-0.3804 -2.54621,-1.0799 -3.25457,-1.7839 -0.8728,-0.8675 -1.83557,-3.203 -1.83557,-3.203 z"
         style="fill:#ed7600;fill-opacity:0.85098039;stroke:none;stroke-width:0.26458332px;stroke-linecap:butt;stroke-linejoin:miter;stroke-opacity:1" />
    </g>
  </g>
</svg>
