<?xml version="1.0" encoding="UTF-8" standalone="no"?>
<!-- Created with Inkscape (http://www.inkscape.org/) -->

<svg
   xmlns:dc="http://purl.org/dc/elements/1.1/"
   xmlns:cc="http://creativecommons.org/ns#"
   xmlns:rdf="http://www.w3.org/1999/02/22-rdf-syntax-ns#"
   xmlns:svg="http://www.w3.org/2000/svg"
   xmlns="http://www.w3.org/2000/svg"
   xmlns:sodipodi="http://sodipodi.sourceforge.net/DTD/sodipodi-0.dtd"
   xmlns:inkscape="http://www.inkscape.org/namespaces/inkscape"
   width="300"
   height="300"
   viewBox="0 0 79.374998 79.375002"
   version="1.1"
   id="svg5030"
   inkscape:version="0.92.1 r15371"
   sodipodi:docname="card_amphi.svg">
  <defs
     id="defs5024" />
  <sodipodi:namedview
     id="base"
     pagecolor="#ffffff"
     bordercolor="#666666"
     borderopacity="1.0"
     inkscape:pageopacity="0.0"
     inkscape:pageshadow="2"
     inkscape:zoom="1.979899"
     inkscape:cx="79.986186"
     inkscape:cy="129.12949"
     inkscape:document-units="mm"
     inkscape:current-layer="layer1"
     showgrid="false"
     inkscape:window-width="1920"
     inkscape:window-height="1057"
     inkscape:window-x="0"
     inkscape:window-y="0"
     inkscape:window-maximized="1"
     units="px" />
  <metadata
     id="metadata5027">
    <rdf:RDF>
      <cc:Work
         rdf:about="">
        <dc:format>image/svg+xml</dc:format>
        <dc:type
           rdf:resource="http://purl.org/dc/dcmitype/StillImage" />
        <dc:title></dc:title>
      </cc:Work>
    </rdf:RDF>
  </metadata>
  <g
     inkscape:label="Calque 1"
     inkscape:groupmode="layer"
     id="layer1"
     transform="translate(0,-217.62498)">
    <g
       id="g5750"
       transform="translate(179.53867,146.27675)">
      <g
         inkscape:export-ydpi="96"
         inkscape:export-xdpi="96"
         inkscape:export-filename="/home/louise/Documents/TNCY/Club/teleGD/tgd-telekingdom/res/images/characters/amphi.png"
         transform="translate(328.45181,-1007.8118)"
         id="g5752">
        <rect
           ry="6.1388469"
           y="1079.16"
           x="-507.99048"
           height="79.375"
           width="79.375"
           id="rect5748"
           style="opacity:1;fill:#733f6c;fill-opacity:1;stroke:none;stroke-width:2.55100012;stroke-linecap:round;stroke-linejoin:round;stroke-miterlimit:4;stroke-dasharray:none;stroke-dashoffset:0;stroke-opacity:1" />
        <rect
           style="opacity:1;fill:#fef2e4;fill-opacity:1;stroke:none;stroke-width:2.33841681;stroke-linecap:round;stroke-linejoin:round;stroke-miterlimit:4;stroke-dasharray:none;stroke-dashoffset:0;stroke-opacity:1"
           id="rect5750"
           width="72.760414"
           height="72.760414"
           x="-504.68317"
           y="1082.4674"
           ry="5.6272764" />
      </g>
      <g
         transform="matrix(0.17492833,0,0,0.17492833,161.30554,-229.4611)"
         id="g5746">
        <path
           sodipodi:nodetypes="ccccc"
           inkscape:connector-curvature="0"
           id="path5690"
           d="m -1563.5745,1880.4983 0.052,94.9522 24.8051,-1.6536 -0.8978,-78.5128 z"
           style="fill:#d8d9d8;fill-opacity:1;stroke:none;stroke-width:0.26458332px;stroke-linecap:butt;stroke-linejoin:miter;stroke-opacity:1" />
        <ellipse
           ry="105.21321"
           rx="171.15234"
           cy="2046.3505"
           cx="-1705.7356"
           id="ellipse5692"
           style="opacity:1;fill:#aaaaaa;fill-opacity:1;stroke:none;stroke-width:2.68935084;stroke-linecap:round;stroke-linejoin:round;stroke-miterlimit:4;stroke-dasharray:none;stroke-dashoffset:0;stroke-opacity:1" />
        <path
           sodipodi:nodetypes="ccccc"
           inkscape:connector-curvature="0"
           id="path5694"
           d="m -1608.7907,1880.3659 45.2162,0.1324 0.052,94.9522 -45.4753,-7.028 z"
           style="fill:#bf97b4;fill-opacity:1;stroke:none;stroke-width:0.26458332px;stroke-linecap:butt;stroke-linejoin:miter;stroke-opacity:1" />
        <path
           sodipodi:nodetypes="ccccccccccccc"
           inkscape:connector-curvature="0"
           id="path5696"
           d="m -1883.916,2061.4401 c 30.4957,-62.1824 94.0785,-60.2039 142.2136,-77.308 l 132.705,-15.7096 0.2067,-88.0566 68.0062,15.5029 0.4768,87.0828 31.5893,-113.3623 -27.3118,-74.7996 -91.1573,-46.7155 -237.2981,4.9609 -52.0899,57.0508 -22.1687,114.1888 z"
           style="fill:#d5bacf;fill-opacity:1;stroke:none;stroke-width:0.26458332px;stroke-linecap:butt;stroke-linejoin:miter;stroke-opacity:1" />
        <g
           transform="translate(-362.97526,74.414062)"
           id="g5706">
          <path
             style="fill:#d8d9d8;fill-opacity:1;stroke:none;stroke-width:0.26458332px;stroke-linecap:butt;stroke-linejoin:miter;stroke-opacity:1"
             d="m -1445.821,1799.6295 -14.3483,-4.4264 13.1554,110.4671 9.6468,-2.6309 z"
             id="path5698"
             inkscape:connector-curvature="0"
             sodipodi:nodetypes="ccccc" />
          <path
             sodipodi:nodetypes="ccccc"
             inkscape:connector-curvature="0"
             id="path5700"
             d="m -1291.1112,1780.9206 -13.8329,-4.4264 0.293,110.4671 9.9532,-2.6309 z"
             style="fill:#d8d9d8;fill-opacity:1;stroke:none;stroke-width:0.26458332px;stroke-linecap:butt;stroke-linejoin:miter;stroke-opacity:1" />
          <path
             inkscape:connector-curvature="0"
             id="path5702"
             d="m -1444.0907,1834.3228 2.9233,44.7259 138.2702,-24.2631 1.754,-39.1717 z"
             style="fill:#032303;fill-opacity:1;stroke:none;stroke-width:0.26458332px;stroke-linecap:butt;stroke-linejoin:miter;stroke-opacity:1" />
          <path
             style="fill:#053605;fill-opacity:1;stroke:none;stroke-width:0.26458332px;stroke-linecap:butt;stroke-linejoin:miter;stroke-opacity:1"
             d="m -1444.0907,1848.082 2.9233,44.7259 138.2702,-24.2631 1.754,-39.1717 z"
             id="path5704"
             inkscape:connector-curvature="0" />
        </g>
        <g
           transform="translate(-3.1750001,2.1166667)"
           id="g5712">
          <path
             style="fill:#d39761;fill-opacity:1;stroke:none;stroke-width:0.2378829px;stroke-linecap:butt;stroke-linejoin:miter;stroke-opacity:1"
             d="m -1770.2898,1989.9199 -1.3368,24.3913 126.6554,-35.9668 8.6887,-21.084 -64.1631,14.056 z"
             id="path5708"
             inkscape:connector-curvature="0" />
          <path
             style="fill:#a76e3c;fill-opacity:1;stroke:none;stroke-width:0.2378829px;stroke-linecap:butt;stroke-linejoin:miter;stroke-opacity:1"
             d="m -1770.2898,1989.9199 110.9487,-38.0339 23.0586,5.3744 -136.0124,40.9277 z"
             id="path5710"
             inkscape:connector-curvature="0" />
        </g>
        <g
           transform="translate(-353.12716,77.807562)"
           id="g5718">
          <path
             style="fill:#6d482c;fill-opacity:1;stroke:none;stroke-width:0.26458332px;stroke-linecap:butt;stroke-linejoin:miter;stroke-opacity:1"
             d="m -1463.89,1911.3717 40.9278,-6.2011 12.4023,-14.056 -42.6847,5.7878 z"
             id="path5714"
             inkscape:connector-curvature="0"
             sodipodi:nodetypes="ccccc" />
          <path
             style="fill:#d39761;fill-opacity:1;stroke:none;stroke-width:0.26458332px;stroke-linecap:butt;stroke-linejoin:miter;stroke-opacity:1"
             d="m -1456.862,1902.2767 6.2012,51.263 33.4863,-7.028 -2.4804,-50.0228 z"
             id="path5716"
             inkscape:connector-curvature="0" />
        </g>
        <path
           inkscape:connector-curvature="0"
           id="path5720"
           d="m -1881.4355,2047.3841 -5.7878,40.9277 348.5059,-114.5149 -7.8548,-26.8718 z"
           style="fill:#b48861;fill-opacity:1;stroke:none;stroke-width:0.26458332px;stroke-linecap:butt;stroke-linejoin:miter;stroke-opacity:1" />
        <path
           sodipodi:nodetypes="cccccc"
           inkscape:connector-curvature="0"
           id="path5722"
           d="m -1894.7822,2073.1937 11.5755,39.2741 98.8054,-8.6817 266.237,-89.7102 13.6425,-64.4922 z"
           style="fill:#daa77a;fill-opacity:1;stroke:none;stroke-width:0.26458332px;stroke-linecap:butt;stroke-linejoin:miter;stroke-opacity:1" />
        <path
           sodipodi:nodetypes="ccccc"
           inkscape:connector-curvature="0"
           id="path5724"
           d="m -1883.2067,2112.4678 386.2266,-140.1192 -19.4303,85.5762 -175.6999,65.7324 z"
           style="fill:#f6c293;fill-opacity:1;stroke:none;stroke-width:0.26458332px;stroke-linecap:butt;stroke-linejoin:miter;stroke-opacity:1" />
        <path
           inkscape:connector-curvature="0"
           id="path5726"
           d="m -1827.2786,1783.6276 7.4414,16.5364 167.0182,-11.5755 v -18.1901 z"
           style="fill:#bec0be;fill-opacity:1;stroke:none;stroke-width:0.26458332px;stroke-linecap:butt;stroke-linejoin:miter;stroke-opacity:1" />
        <path
           sodipodi:nodetypes="ccccc"
           inkscape:connector-curvature="0"
           id="path5728"
           d="m -1820.0219,1793.417 5.5542,33.9098 156.3944,-11.1084 c 2.2438,-12.1802 1.2473,-24.3605 -1.1693,-36.5407 z"
           style="fill:#dfe0df;fill-opacity:1;stroke:none;stroke-width:0.26458332px;stroke-linecap:butt;stroke-linejoin:miter;stroke-opacity:1" />
        <path
           sodipodi:nodetypes="ccccc"
           style="fill:#a1a3a1;fill-opacity:1;stroke:none;stroke-width:0.11873785px;stroke-linecap:butt;stroke-linejoin:miter;stroke-opacity:1"
           d="m -1814.4677,1827.3268 -0.1033,2.3225 156.4977,-13.4309 -0.2923,-0.877 z"
           id="path5730"
           inkscape:connector-curvature="0" />
        <g
           transform="matrix(0.83878991,0,-0.16961985,0.83878991,45.874016,347.18612)"
           id="g5736">
          <ellipse
             style="opacity:1;fill:#c88c39;fill-opacity:0.65917604;stroke:none;stroke-width:2.55099988;stroke-linecap:round;stroke-linejoin:round;stroke-miterlimit:4;stroke-dasharray:none;stroke-dashoffset:0;stroke-opacity:1"
             id="ellipse5732"
             cx="-1686.7518"
             cy="2061.8435"
             rx="26.077936"
             ry="28.121944" />
          <path
             inkscape:connector-curvature="0"
             id="path5734"
             d="m -1659.6182,2047.0922 c 0.3784,1.8609 0.6395,4.516 0.6763,6.8722 0.011,0.6984 0.1416,2.0564 0.2906,3.018 0.5668,3.6579 1.0361,8.1132 0.8504,8.0735 -0.028,0 -0.1422,-0.8438 -0.2532,-1.8618 -0.1957,-1.7923 -0.8486,-5.9805 -0.9352,-5.9988 -0.024,0 -0.1176,2.5522 -0.2092,5.6823 -0.1764,6.0284 -0.3296,7.6848 -0.953,10.3013 -0.6334,2.6586 -1.7951,5.4779 -2.7859,6.7609 -0.1731,0.2245 -0.4093,0.736 -0.5246,1.1371 -0.8847,3.077 -4.1401,6.3451 -6.5762,6.602 -0.3233,0.034 -0.6124,0.024 -0.6425,-0.023 -0.031,-0.045 0.2285,-0.112 0.5747,-0.1451 0.6028,-0.058 0.6851,-0.097 1.9392,-0.9178 1.1467,-0.7504 1.3921,-0.9519 1.9666,-1.6262 0.7539,-0.8827 1.7029,-2.4135 1.9039,-3.0711 l 0.1374,-0.4491 -1.5155,0.9949 -1.5155,0.9949 1.4521,-1.0264 c 0.9792,-0.6915 1.512,-1.125 1.6355,-1.3291 0.231,-0.383 0.4246,-1.8949 0.4468,-3.4876 0.015,-1.0651 -0.2028,-4.1747 -0.3031,-4.3297 -0.02,-0.029 -0.1669,0.6118 -0.3282,1.4259 -0.905,4.5696 -3.2238,9.0053 -6.2217,11.9011 -0.3783,0.3653 -0.6725,0.6886 -0.6536,0.7184 0.02,0.029 -0.6579,0.5226 -1.5045,1.0943 -0.8459,0.5725 -1.5479,1.0599 -1.5518,1.0943 -0.01,0.031 0.2093,0.1863 0.4815,0.348 0.589,0.3502 1.4662,0.3621 2.6107,0.035 0.405,-0.1155 0.7294,-0.1771 0.7209,-0.1368 -0.043,0.2029 -1.7045,0.852 -2.3881,0.9333 -0.804,0.096 -1.2925,-0.041 -1.8418,-0.5137 -0.3165,-0.2726 -0.3879,-0.2865 -0.6778,-0.1322 -1.375,0.7321 -4.6254,1.8903 -6.5086,2.3193 -0.6138,0.1397 -1.5322,0.4465 -2.0508,0.6848 -0.5165,0.2372 -1.3715,0.561 -1.9,0.7192 -1.0609,0.3177 -2.6583,0.6348 -2.6343,0.5229 0.01,-0.039 0.4153,-0.1509 0.9041,-0.2481 0.977,-0.1942 2.8304,-0.7933 3.2032,-1.0355 0.1618,-0.1 -0.1264,-0.098 -0.873,0.015 -1.6175,0.245 -3.9445,0.4463 -5.4312,0.4699 -1.4682,0.023 -3.0713,-0.054 -3.0515,-0.1462 0.01,-0.033 0.7053,-0.056 1.5514,-0.05 2.6497,0.021 5.7395,-0.2986 8.3181,-0.8591 0.9983,-0.2169 1.2546,-0.3158 1.8988,-0.7325 2.6964,-1.7437 6.1827,-5.1005 7.3729,-7.0975 0.3534,-0.593 0.6285,-1.0775 0.6116,-1.0766 -0.019,9e-4 -0.6344,0.4516 -1.3776,0.9931 -3.0276,2.2295 -7.1847,4.2122 -10.0823,4.809 -0.7521,0.1548 -0.98,0.2532 -1.7735,0.7659 -1.1269,0.7281 -1.7732,1.0036 -3.3102,1.4118 -5.2279,1.3884 -11.2394,0.3968 -16.8915,-2.786 -0.6466,-0.3641 -1.2118,-0.7199 -1.2559,-0.7908 -0.039,-0.074 0.4434,0.1673 1.0835,0.5291 2.3566,1.3322 4.6246,2.1883 7.325,2.7647 2.0624,0.4403 3.5372,0.5803 5.3278,0.5061 2.6016,-0.108 5.5106,-0.8506 6.9368,-1.7707 l 0.4067,-0.2635 -0.7439,0.023 c -1.0738,0.034 -2.2142,-0.077 -3.2746,-0.3196 -0.8888,-0.2029 -0.9581,-0.1993 -1.7101,0.094 -1.5086,0.588 -2.6799,0.7738 -4.7741,0.7571 -1.1094,-0.01 -1.5705,-0.056 -1.4311,-0.1461 0.024,-0.016 0.5297,-0.021 1.1225,-0.011 1.5111,0.025 3.3108,-0.2053 4.3306,-0.5547 1.128,-0.3864 1.2127,-0.472 0.7003,-0.7071 -0.2849,-0.1306 -0.6339,-0.145 -1.2637,-0.052 -1.02,0.1504 -2.4902,0.1723 -3.1817,0.047 -0.6405,-0.116 -3.0853,-0.9094 -3.0669,-0.9953 0.01,-0.038 0.6387,0.1224 1.402,0.352 0.763,0.2304 1.7328,0.4469 2.1548,0.481 0.8648,0.07 3.2113,-0.1513 3.0115,-0.2839 -1.2482,-0.8289 -2.4868,-1.9228 -2.8997,-2.561 -0.088,-0.1444 -0.2588,-0.2894 -0.372,-0.3276 -0.2278,-0.077 -1.8731,0.1613 -3.0777,0.4461 -0.9093,0.2152 -2.5283,0.8425 -2.6677,1.0337 -0.053,0.073 -0.1438,0.1117 -0.2065,0.08 -0.06,-0.028 -0.2634,0.039 -0.4517,0.1505 -0.2804,0.165 -0.3016,0.1663 -0.1178,0 0.123,-0.1095 0.1947,-0.2443 0.1581,-0.3009 -0.05,-0.072 -0.015,-0.092 0.1121,-0.064 0.1,0.025 0.4245,-0.1206 0.7419,-0.3258 1.1709,-0.7574 2.7385,-1.3319 4.8421,-1.7752 0.1773,-0.038 0.1681,-0.087 -0.075,-0.4079 l -0.2762,-0.3656 -1.0202,0.2407 c -0.5613,0.1323 -1.5769,0.2996 -2.2571,0.3717 -3.1672,0.3355 -5.323,-0.1123 -8.8789,-1.8443 -2.8897,-1.4074 -5.0744,-3.1326 -6.6862,-5.2795 -0.6131,-0.8166 -1.4937,-2.4527 -1.6658,-3.0945 -0.079,-0.2926 -0.069,-0.2864 0.1049,0.067 0.1048,0.2145 0.5229,0.96 0.9283,1.6573 1.2451,2.142 2.8158,3.6616 5.3637,5.189 1.3547,0.8121 3.8936,1.9604 5.3182,2.4049 2.1091,0.6584 4.8683,0.6425 7.5771,-0.044 0.5266,-0.1333 0.9701,-0.2507 0.9857,-0.2608 0.016,-0.01 -0.022,-0.094 -0.082,-0.1882 -0.073,-0.1228 -0.4277,-0.1495 -1.1829,-0.1006 -1.238,0.08 -2.7024,0.028 -3.9004,-0.1382 -2.8742,-0.3988 -6.5274,-2.6505 -9.2006,-5.6711 -1.3558,-1.532 -2.9584,-4.2453 -3.3714,-5.7062 -0.1485,-0.5257 0.073,-0.1288 0.4209,0.7535 0.396,1.0042 1.8773,3.3474 2.7046,4.2782 0.7189,0.8092 1.9127,1.933 2.8348,2.6688 1.2111,0.9666 3.4731,2.256 4.6295,2.6392 0.9186,0.3045 2.8256,0.6448 3.1587,0.564 0.064,-0.015 -0.3789,-0.1814 -0.9821,-0.369 -3.5844,-1.1144 -6.546,-2.7873 -8.5239,-4.8146 -0.4831,-0.4955 -1.8508,-2.7637 -2.0867,-3.4595 -0.2539,-0.7506 -0.164,-0.6004 0.5727,0.957 1.2737,2.6934 4.5645,5.1017 9.0439,6.6185 1.6223,0.5493 4.1386,1.0852 4.7808,1.0183 l 0.5706,-0.06 -1.0212,-1.5781 -1.0213,-1.5782 -0.7293,-0.017 c -0.4011,-0.01 -0.8371,-0.037 -0.9689,-0.061 -0.1322,-0.024 -0.7512,-0.1028 -1.3765,-0.1743 -3.1434,-0.3608 -5.9135,-1.4908 -7.3837,-3.0122 -0.7104,-0.7351 -1.5621,-2.2853 -1.8592,-3.3844 -0.1355,-0.5008 -0.2155,-0.9039 -0.1778,-0.8959 0.039,0.01 0.1939,0.4292 0.3458,0.9366 0.9204,3.0622 2.9102,4.7318 6.6947,5.6179 1.4857,0.348 3.6604,0.6227 3.7321,0.4718 0.024,-0.052 0.067,-0.059 0.1063,6e-4 0.035,0.051 0.3156,0.1086 0.6261,0.1254 l 0.5647,0.03 -0.1087,-0.2922 -0.1079,-0.2929 0.1899,0.2743 c 0.1044,0.1507 0.3041,0.2897 0.4406,0.3108 0.2879,0.044 3.2942,0.014 3.3043,-0.033 0,-0.017 -0.1284,-0.3794 -0.2936,-0.8047 -0.1652,-0.4255 -0.4117,-1.2131 -0.5477,-1.75 -0.1361,-0.5371 -0.2685,-1.009 -0.2941,-1.0487 -0.027,-0.039 -0.2254,-0.041 -0.4441,-7e-4 -0.5859,0.1055 -2.24,0.296 -2.3322,0.2685 -0.043,-0.014 -0.4031,-0.021 -0.7988,-0.018 -0.3956,0 -0.775,-0.021 -0.8431,-0.053 -0.068,-0.032 -0.2337,0.011 -0.3682,0.097 -0.1664,0.1031 -0.2212,0.107 -0.1742,0 0.053,-0.113 -0.022,-0.1531 -0.2939,-0.157 -0.2002,0 -0.3886,0.023 -0.4186,0.059 -0.03,0.035 -0.093,0.01 -0.1379,-0.064 -0.048,-0.069 -0.3137,-0.1503 -0.5958,-0.1776 -0.2821,-0.027 -0.9766,-0.189 -1.5434,-0.3591 -0.6504,-0.1952 -1.0984,-0.2664 -1.2146,-0.1926 -0.1386,0.084 -0.1654,0.077 -0.1122,-0.039 0.056,-0.1214 -0.068,-0.211 -0.5671,-0.4062 -0.3512,-0.1378 -0.6316,-0.2842 -0.6227,-0.3254 0.01,-0.042 0.3784,0.068 0.8212,0.2437 0.4428,0.1754 0.8666,0.2791 0.9415,0.2307 0.073,-0.051 0.1376,-0.03 0.1388,0.042 0,0.071 0.495,0.2437 1.0968,0.3825 0.6584,0.152 1.0927,0.1985 1.0912,0.1133 0,-0.085 0.06,-0.082 0.1581,0.01 0.192,0.1753 1.5252,0.3224 1.729,0.1908 0.076,-0.053 0.1335,-0.05 0.1218,0 -0.027,0.1109 0.3353,0.1462 1.2349,0.1193 l 0.6577,-0.02 0.81,-0.7348 c 1.0074,-0.9139 0.9758,-1.0538 -0.2354,-1.0409 l -0.8417,0.01 -0.5415,0.5534 c -0.7324,0.7484 -0.971,0.8647 -0.3354,0.1642 0.281,-0.3101 0.5178,-0.5957 0.5262,-0.6351 0.01,-0.04 -0.6248,-0.01 -1.4072,0.07 -0.7825,0.078 -1.3698,0.1048 -1.3051,0.06 0.059,-0.053 0.7545,-0.1465 1.5327,-0.2267 1.4964,-0.1539 1.5979,-0.188 2.0371,-0.6829 0.2197,-0.2471 0.2496,-0.3578 0.1425,-0.5237 -0.161,-0.2499 -1.3528,-1.2296 -1.8251,-1.5014 -1.1027,-0.6343 -3.1159,-1.2357 -4.3925,-1.3119 -0.352,-0.021 -0.6323,-0.073 -0.6237,-0.1133 0.027,-0.1151 1.4644,0.01 2.3107,0.2007 0.9597,0.2171 2.0943,0.6482 2.8192,1.0717 0.6882,0.402 1.648,1.1626 1.8383,1.4569 0.1639,0.2541 0.1927,0.2377 1.2071,-0.6867 0.7692,-0.701 0.7782,-0.7153 0.9608,-1.519 0.2263,-0.9958 0.3653,-1.1431 0.2315,-0.2455 -0.054,0.3631 -0.079,0.6645 -0.056,0.6694 0.1053,0.026 1.753,-1.4025 1.7057,-1.4758 -0.1042,-0.168 -1.2454,-0.525 -2.4466,-0.7721 l -1.23,-0.2532 -1.655,0.4153 c -0.9102,0.2283 -1.7377,0.4362 -1.8386,0.462 -0.1304,0.033 -0.1538,0.1186 -0.087,0.2849 0.088,0.217 0.082,0.2167 -0.075,0 -0.1514,-0.2011 -0.293,-0.2266 -0.9889,-0.1517 -3.6626,0.3953 -6.6456,-0.5511 -8.1619,-2.5897 -0.3905,-0.5252 -0.4263,-0.5453 -1.1241,-0.6571 -0.7126,-0.1138 -1.5384,-0.4262 -1.5074,-0.5705 0.01,-0.042 0.1938,0.01 0.4112,0.1129 0.4013,0.1905 1.4779,0.4098 1.6057,0.3273 0.038,-0.026 -0.1274,-0.5647 -0.3685,-1.1996 -0.2411,-0.6349 -0.3943,-1.119 -0.3403,-1.0759 0.053,0.043 0.2834,0.548 0.51,1.1218 0.2267,0.5739 0.4344,1.0777 0.4614,1.1194 0.1463,0.2289 3.0321,-0.4591 3.3399,-0.7956 0.076,-0.084 0.1699,-0.1298 0.2144,-0.094 0.042,0.032 0.3685,-0.07 0.7258,-0.2257 0.6185,-0.2706 4.4152,-2.2081 4.7484,-2.4232 0.1327,-0.08 0.054,-0.1434 -0.4252,-0.3342 -0.8125,-0.3233 -2.4236,-1.1892 -3.1673,-1.7025 -0.3428,-0.2367 -0.6735,-0.4427 -0.7349,-0.4576 -0.1603,-0.04 -0.5308,1.0219 -0.8465,2.4252 -0.1504,0.6675 -0.3007,1.171 -0.3346,1.1188 -0.1034,-0.1669 0.6011,-2.9597 0.9305,-3.6772 0.021,-0.046 -2.9665,-2.5189 -3.4033,-2.8183 -0.3251,-0.2229 -0.3418,-0.2208 -0.6779,0.084 -0.6982,0.6329 -2.3895,2.5049 -2.3613,2.6136 0.016,0.062 -0.021,0.1141 -0.083,0.1147 -0.194,0 -1.4917,1.905 -2.0053,2.9379 -0.6142,1.2351 -1.0751,3.0783 -1.0938,4.3746 -0.016,1.1379 -0.017,1.1436 -0.1013,1.0132 -0.136,-0.2139 -0.02,-2.1464 0.1873,-3.0919 0.3565,-1.6237 1.24,-3.4287 2.4411,-4.9892 0.297,-0.386 0.5155,-0.7395 0.4857,-0.7858 -0.031,-0.045 0,-0.084 0.061,-0.086 0.064,-6e-4 0.4279,-0.3524 0.8103,-0.7796 0.8344,-0.9329 0.8521,-0.9513 1.3262,-1.3695 0.2062,-0.1818 0.3487,-0.3711 0.3167,-0.4206 -0.034,-0.048 -0.2859,-0.1669 -0.5646,-0.2613 -0.2784,-0.095 -0.4722,-0.193 -0.4302,-0.2192 0.1402,-0.082 0.3467,-0.041 0.781,0.1697 0.4032,0.1951 0.4455,0.1911 0.7186,-0.068 0.1594,-0.1518 0.8029,-0.7319 1.4296,-1.2896 l 1.1395,-1.014 -0.5377,0.1138 c -0.2958,0.063 -0.8061,0.2104 -1.1341,0.3284 l -0.5965,0.2144 0.5102,-0.2633 c 0.2806,-0.1445 0.8622,-0.3416 1.2926,-0.4374 0.4306,-0.096 0.7894,-0.2051 0.7974,-0.2429 0.01,-0.038 -0.2655,-0.2867 -0.6079,-0.5534 -0.3423,-0.2664 -0.7515,-0.6205 -0.9089,-0.7869 -0.2739,-0.2883 -0.2979,-0.2914 -0.5331,-0.063 -0.1355,0.1315 -0.4838,0.6209 -0.7742,1.0876 -0.2903,0.4665 -0.5584,0.8416 -0.596,0.8336 -0.096,-0.018 0.7642,-1.476 1.1162,-1.8894 l 0.2904,-0.3411 -0.7107,-1.1105 -0.7109,-1.1107 -0.4918,0.4039 c -0.7127,0.5836 -1.818,1.8026 -2.3731,2.6158 -0.6156,0.9019 -0.7595,0.895 -0.1753,-0.01 0.5379,-0.8315 1.4756,-1.9135 2.3397,-2.6994 l 0.643,-0.5849 -0.1333,-0.6432 -0.1335,-0.6431 -1.1086,0.6985 c -0.9533,0.6006 -1.039,0.6392 -0.6097,0.2799 0.2749,-0.2293 0.7682,-0.5989 1.0979,-0.8188 0.3397,-0.2231 0.5972,-0.4635 0.5958,-0.5437 0,-0.098 0.053,-0.1133 0.1745,-0.049 0.1204,0.063 0.3007,0.014 0.5576,-0.1516 0.5627,-0.3641 2.392,-1.1155 3.0534,-1.2549 0.1045,-0.021 0.083,-0.1731 -0.069,-0.5072 -0.2116,-0.4618 -0.4949,-2.1608 -0.5435,-3.2567 -0.042,-0.9542 0.1107,-0.5455 0.1988,0.5315 0.094,1.1438 0.3974,2.5005 0.6454,2.8841 0.1294,0.2043 0.2949,0.2429 0.9512,0.2316 0.6209,-0.011 1.0734,-0.1165 2.0888,-0.4879 1.4431,-0.5281 3.5841,-1.0795 5.1309,-1.3214 0.56,-0.088 1.0376,-0.2001 1.0612,-0.2498 0.023,-0.049 -0.015,-0.1803 -0.087,-0.2901 -0.1158,-0.1848 -0.5423,-1.4343 -0.6346,-1.8727 -0.031,-0.1485 -0.2323,-0.1405 -1.0241,0.039 -1.4094,0.3202 -3.5311,1.0593 -4.8994,1.7066 -1.6825,0.796 -1.795,0.8323 -0.7957,0.2569 1.695,-0.9759 4.57,-2.1312 6.0401,-2.4271 0.307,-0.062 0.5587,-0.1293 0.5593,-0.1497 0,-0.1459 -0.1565,-0.7848 -0.1982,-0.7879 -0.2639,-0.019 -1.457,0.3611 -3.0014,0.957 -1.0247,0.3953 -1.7434,0.636 -1.5972,0.5351 0.51,-0.3526 3.1713,-1.6448 3.8534,-1.8716 l 0.6874,-0.2285 -0.02,-0.6861 c -0.014,-0.4969 -0.065,-0.6957 -0.1827,-0.721 -0.099,-0.018 -0.7635,0.3264 -1.6594,0.8658 -1.5678,0.944 -1.5714,0.8658 -0.016,-0.3624 l 0.6013,-0.4748 -0.7505,0.073 c -0.4826,0.047 -0.89,0.1603 -1.1415,0.3172 -0.279,0.1726 -0.3531,0.1911 -0.2592,0.062 0.178,-0.2473 -0.5767,0.01 -1.941,0.6564 l -1.03,0.4894 0.9352,-0.5443 c 0.522,-0.3044 1.286,-0.655 1.7303,-0.7946 0.4376,-0.1374 0.9799,-0.3216 1.2051,-0.4095 0.2253,-0.088 0.3525,-0.1143 0.2826,-0.059 -0.067,0.059 0.2385,0.065 0.6856,0.021 0.8525,-0.083 1.5557,-0.4119 1.6308,-0.7624 0.029,-0.1234 0.059,-0.1475 0.1007,-0.082 0.038,0.054 0.2551,0.015 0.4875,-0.089 1.5837,-0.7103 3.0472,-1.0422 4.4608,-1.0117 1.8179,0.039 4.4094,0.9039 6.079,2.0283 0.5123,0.3448 1.1886,0.6613 1.956,0.9151 0.6452,0.2134 1.6005,0.5866 2.1226,0.8293 0.5223,0.2428 0.9699,0.4282 0.9947,0.4121 0.025,-0.017 0,-0.3838 -0.061,-0.8169 l -0.1065,-0.7877 -0.7043,-0.5125 c -1.2461,-0.907 -5.3404,-2.2753 -7.6061,-2.5421 -1.7205,-0.2024 -2.7598,-0.1945 -4.515,0.035 -1.7363,0.2268 -2.462,0.4141 -3.0827,0.7962 -0.3253,0.1997 -0.999,0.5812 -1.4966,0.8476 l -0.9056,0.4838 1.0722,-0.7219 c 1.2155,-0.8175 1.1654,-0.84 -0.5447,-0.2473 -2.1938,0.7604 -3.3529,1.3202 -5.5431,2.6771 -1.5904,0.9858 -2.309,1.486 -3.0503,2.1247 -1.4989,1.2883 -1.5971,1.3626 -1.1434,0.8637 0.2266,-0.2494 0.8781,-0.8481 1.4475,-1.331 0.5692,-0.483 1.0596,-0.9518 1.0892,-1.0421 0.035,-0.1071 0.074,-0.1329 0.1109,-0.077 0.037,0.053 0.8284,-0.3824 2.0554,-1.1346 2.1748,-1.3327 3.4966,-1.953 5.7312,-2.6884 0.6688,-0.22 1.29,-0.4419 1.3803,-0.4928 0.091,-0.051 0.1817,-0.066 0.2029,-0.034 0.07,0.1186 0.9527,-0.2416 2.0818,-0.8458 1.6114,-0.8627 1.6122,-0.864 0.4742,-0.7539 -0.5642,0.055 -0.9696,0.06 -0.9008,0.012 0.063,-0.056 0.6754,-0.1357 1.3483,-0.1952 0.752,-0.066 1.4734,-0.2079 1.8715,-0.3674 2.5397,-1.0173 6.8563,-1.4019 10.6265,-0.9467 1.7371,0.2097 4.5701,0.8164 6.2399,1.3366 1.7497,0.545 1.7541,0.5461 1.4517,0.322 -0.9845,-0.7292 -3.0239,-1.6879 -4.6633,-2.192 -3.4941,-1.0743 -8.3553,-0.9326 -13.8834,0.4049 -0.9147,0.2213 -1.5989,0.3574 -1.5204,0.3026 0.203,-0.1406 3.1472,-0.8679 4.6669,-1.1516 6.3622,-1.1877 10.9763,-0.6098 15.0979,1.8913 0.7315,0.4438 1.5486,0.983 1.8159,1.198 0.267,0.2152 1.0449,0.6284 1.7282,0.9186 0.6831,0.2902 1.373,0.5963 1.533,0.6802 4.273,2.2401 6.2776,3.6149 7.6452,5.2431 0.6147,0.7311 0.6564,0.8107 1.1173,2.1172 0.7045,1.9969 1.1294,2.8655 2.2641,4.6271 l 1.018,1.5857 0.5185,0.2067 c 0.2852,0.1134 0.5512,0.1685 0.5913,0.1217 0.065,-0.077 -0.2322,-2.1277 -0.4228,-2.9204 -0.064,-0.2649 -0.025,-0.3362 0.2928,-0.5421 0.4284,-0.2772 0.49,-0.2164 0.6678,0.6582 z m -2.1419,3.2618 c -0.8696,-0.3287 -2.0694,-0.8011 -2.6662,-1.0502 -0.5967,-0.2488 -1.2222,-0.5002 -1.39,-0.5582 l -0.3052,-0.1061 0.1762,0.7914 c 0.5599,2.5151 1.7848,4.1917 3.9763,5.4439 1.1756,0.6716 1.6842,0.5129 1.787,-0.5572 0.078,-0.8115 0.1192,-3.1866 0.057,-3.2828 -0.031,-0.045 -0.7653,-0.3522 -1.6351,-0.6808 z m -5.4773,-9.6193 c -0.8746,-0.8169 -2.2454,-1.8061 -3.7642,-2.7163 l -1.1152,-0.6682 0.9085,1.5926 c 1.6294,2.8563 2.8933,4.7268 3.8818,5.7453 1.0011,1.0316 3.3231,3.0823 3.7608,3.3212 l 0.2964,0.1617 -0.2092,-0.3337 c -0.462,-0.732 -1.3849,-2.8181 -1.8213,-4.1173 -0.5207,-1.5496 -0.7083,-1.8389 -1.9381,-2.9849 z m 1.1046,6.3387 -0.5744,-0.5261 0.1303,0.4287 c 0.175,0.5759 0.1797,0.5808 0.7498,0.7882 0.5981,0.2176 0.538,0.082 -0.3057,-0.6908 z m -7.3434,-10.4191 c -0.5794,-0.2861 -1.058,-0.4984 -1.0638,-0.4716 0,0.026 0.1581,0.2282 0.367,0.4455 0.2073,0.2185 0.6678,0.7576 1.0227,1.1979 0.6054,0.7512 2.1735,2.4973 2.6224,2.9207 0.3305,0.312 -0.432,-1.2581 -1.2067,-2.484 l -0.688,-1.0883 z m 2.7865,4.1972 c -0.7184,-0.8915 -1.1355,-1.3525 -1.1524,-1.2734 -0.014,0.075 1.8559,2.3826 1.9484,2.4025 0.1081,0.026 -0.06,-0.2142 -0.7964,-1.1288 z m 2.0429,3.6515 c -1.6221,-1.7476 -2.6119,-2.9644 -4.0563,-4.9864 -1.2016,-1.6822 -2.5416,-3.2767 -3.3026,-3.9298 -0.4571,-0.3924 -3.9034,-1.6134 -5.8463,-2.0715 -0.4796,-0.1131 -1.0701,-0.2593 -1.3124,-0.3251 -0.6114,-0.1662 -3.1432,-0.5774 -3.2262,-0.5225 -0.036,0.025 0.2199,0.1841 0.5706,0.3559 0.351,0.1715 0.9922,0.5676 1.4245,0.88 0.7337,0.5302 0.8254,0.5651 1.3734,0.5237 0.5079,-0.039 1.3471,0.1406 1.4574,0.3114 0.021,0.03 -0.1618,0.04 -0.4034,0.022 -0.4812,-0.037 -1.0829,0.06 -1.0154,0.164 0.025,0.036 0.4412,0.4136 0.9287,0.8388 1.2152,1.0601 3.1157,2.9697 4.7368,4.7589 1.0812,1.1934 1.5062,1.5928 2.102,1.9747 0.4108,0.2634 1.3749,0.8936 2.1429,1.4004 1.8598,1.2278 1.9417,1.018 0.2828,-0.7248 -0.6522,-0.685 -1.2321,-1.4565 -2.6922,-3.581 -1.0206,-1.4912 -2.0202,-2.8643 -2.2149,-3.0557 -0.1955,-0.191 -0.372,-0.372 -0.3943,-0.4008 -0.029,-0.024 -0.2095,-0.089 -0.4169,-0.134 l -0.3771,-0.081 0.2378,-0.1343 c 0.131,-0.074 0.2597,-0.1007 0.2862,-0.06 0.028,0.04 0.4475,0.1606 0.9351,0.2652 1.7397,0.3731 2.7741,1.2588 4.4277,3.7903 1.0461,1.6018 1.4573,2.4158 2.062,4.0841 l 0.3293,0.9088 0.5975,0.4795 c 1.395,1.1197 2.938,2.099 2.9822,1.8929 0.012,-0.065 -0.3509,-1.0603 -0.5234,-1.4274 -0.016,-0.041 -0.5115,-0.5857 -1.0954,-1.2152 z m 7.8811,13.1261 c -0.4502,0.6664 -1.3832,1.7827 -1.9065,2.2811 -0.4996,0.4755 -1.0416,1.6141 -0.8331,1.7502 0.1359,0.089 1.6083,-0.8992 2.1857,-1.4676 0.4423,-0.435 0.4834,-0.5331 0.6949,-1.6517 0.1252,-0.6538 0.2053,-1.2197 0.181,-1.2568 -0.025,-0.036 -0.1695,0.1173 -0.3222,0.3447 z m -2.1451,-0.9004 -1.4673,0.2963 -1.003,0.9404 c -0.886,0.8305 -1.2955,1.1294 -3.5121,2.563 -1.3801,0.8925 -2.5056,1.6282 -2.5018,1.6341 0.038,0.055 2.4733,0.022 3.2702,-0.046 0.7693,-0.066 1.0791,-0.1421 1.2789,-0.315 0.3183,-0.2752 1.4852,-1.3939 2.2252,-2.1326 0.8238,-0.8222 1.9242,-1.6932 2.4765,-1.9599 0.4232,-0.2044 0.5472,-0.3243 0.8262,-0.8044 0.2822,-0.4845 0.2964,-0.5576 0.1013,-0.5185 -0.1246,0.026 -0.8873,0.179 -1.6944,0.342 z m -5.3067,-8.6762 c -1.6572,-0.3009 -1.6719,-0.2972 -1.4247,0.3509 0.6291,1.6575 1.0791,2.5374 2.162,4.2288 l 1.1355,1.773 0.9417,0.4646 c 0.9001,0.4441 2.9583,1.0414 2.9952,0.8693 0.01,-0.045 -0.1875,-0.2162 -0.4376,-0.3805 -1.8973,-1.2437 -3.2776,-3.4813 -3.6839,-5.9715 -0.1048,-0.6425 -0.2041,-0.9528 -0.3268,-1.0207 -0.097,-0.054 -0.7096,-0.195 -1.3612,-0.3141 z m -1.4966,-1.3163 c -0.3257,-0.1886 -0.4297,-0.2057 -0.4285,-0.071 0,0.3021 0.1213,0.3934 0.5334,0.4119 0.4704,0.021 0.4596,-0.014 -0.105,-0.3414 z m -5.8342,-9.2212 c -0.4478,-0.4745 -1.339,-1.0458 -1.9394,-1.2437 -0.3735,-0.123 -0.3351,-0.026 0.2011,0.5111 0.1929,0.1925 1.0442,1.3444 1.8918,2.5595 1.4346,2.0538 2.8335,3.7682 3.1411,3.8462 0.065,0.018 -0.065,-0.361 -0.2889,-0.839 -0.2242,-0.4782 -0.4352,-0.938 -0.4687,-1.0222 -0.1688,-0.4245 -2.1525,-3.4047 -2.5367,-3.8119 z m 13.8903,23.7122 c -0.3259,0.3206 -0.9511,0.8154 -1.3895,1.0988 l -0.7971,0.5156 -0.2515,1.1883 c -0.2892,1.3672 -0.2755,1.3702 0.8872,0.1929 1.3759,-1.3932 1.845,-2.0326 2.0682,-2.8204 0.1138,-0.4018 0.1772,-0.7368 0.1417,-0.7445 -0.036,-0.01 -0.3325,0.2486 -0.6586,0.5693 z m 1.416,3.1603 c -0.1753,0.6291 -0.4363,1.4788 -0.5806,1.8881 -0.2988,0.8478 -0.5408,2.6316 -0.5557,4.099 -0.01,0.5492 -0.034,0.9932 -0.064,0.9869 -0.1025,-0.025 -0.1481,-0.9431 -0.098,-1.9791 0.028,-0.5732 0.031,-1.0461 0.01,-1.0506 -0.024,0 -0.3055,0.5535 -0.6262,1.2403 -0.3208,0.6867 -0.6967,1.4242 -0.8351,1.639 -0.2273,0.352 -0.2367,0.5437 -0.096,1.9602 0.1739,1.7567 0.1851,4.4863 0.024,5.806 -0.058,0.4786 -0.079,0.8527 -0.046,0.8313 0.033,-0.023 0.2701,-0.4165 0.5263,-0.8778 1.1688,-2.1036 2.1921,-5.7502 2.5373,-9.0436 0.085,-0.8088 0.2064,-6.5038 0.1414,-6.616 -0.01,-0.015 -0.1593,0.4872 -0.3343,1.1163 z m -12.5333,-19.4799 c -0.8165,-0.5265 -1.4886,-0.938 -1.4936,-0.9144 0,0.024 0.511,0.7097 1.1452,1.5253 0.6352,0.8153 1.2024,1.5554 1.2607,1.6447 0.091,0.1496 0.5578,0.1208 0.8046,-0.046 0.068,-0.059 -0.075,-0.939 -0.1977,-1.1828 -0.016,-0.041 -0.7031,-0.5004 -1.5193,-1.0269 z m 6.2274,10.28 c -0.6642,-0.4135 -1.0693,-0.5546 -2.5451,-0.8868 -0.9652,-0.2174 -1.7646,-0.3887 -1.7762,-0.3816 -0.012,0.01 0.2831,0.4084 0.6548,0.891 0.7697,0.999 0.9803,1.1285 2.3135,1.4213 0.5257,0.1154 1.2031,0.143 1.9119,0.078 0.6039,-0.055 1.1241,-0.1178 1.1559,-0.1385 0.031,-0.022 -0.1634,-0.1394 -0.4335,-0.2647 -0.2702,-0.1248 -0.8469,-0.4483 -1.2813,-0.7189 z m 5.4169,8.8433 c -1.0178,2.7759 -2.1211,4.4607 -3.7428,5.715 -0.4711,0.3652 -0.6583,0.5714 -0.6895,0.7658 -0.058,0.3538 -0.1974,0.4313 -0.2233,0.123 -0.015,-0.1855 -0.055,-0.2353 -0.1605,-0.2053 -0.3432,0.097 -1.6786,0.7443 -1.721,0.8338 -0.056,0.1194 -0.2057,4.1267 -0.1681,4.514 0.015,0.1492 0.064,0.2471 0.1104,0.2172 0.1518,-0.093 1.3957,-1.2953 2.1066,-2.0262 1.6497,-1.696 3.8447,-6.3675 4.7353,-10.0778 0.1483,-0.6163 0.2615,-1.1327 0.2519,-1.1475 -0.01,-0.015 -0.2341,0.5645 -0.499,1.2873 z m -9.8197,-16.1363 c -0.098,0.02 -0.21,0.058 -0.2483,0.083 -0.037,0.026 0.217,0.4801 0.5669,1.012 0.3509,0.5313 1.018,1.5858 1.4881,2.3398 0.4682,0.7551 0.9774,1.492 1.125,1.6418 0.1828,0.1744 -0.1077,-0.3419 -0.8462,-1.5046 -0.7088,-1.1164 -1.2284,-2.0346 -1.4055,-2.4861 -0.3816,-0.9741 -0.4777,-1.1257 -0.685,-1.0822 z m 2.795,9.3034 c -0.9366,-0.039 -1.0023,-0.025 -1.5635,0.3379 -1.3478,0.8715 -3.5959,1.8478 -5.1608,2.2412 -0.8438,0.212 -0.9597,0.3326 -0.66,0.6867 0.2582,0.306 2.7939,0.024 5.3144,-0.5899 1.1094,-0.2701 1.2767,-0.3415 2.1947,-0.9369 0.5468,-0.3543 1.2612,-0.8941 1.588,-1.1995 l 0.5939,-0.5553 -0.6645,0.028 c -0.3654,0.016 -1.1043,0.01 -1.6421,-0.012 z m -0.8221,-4.1811 c -0.2875,-0.3465 -0.7692,-1.1095 -1.1839,-1.8762 l -0.6994,-1.2921 -0.8755,-0.703 c -0.4815,-0.3869 -0.9396,-0.7041 -1.018,-0.7052 -0.1728,0 -0.9464,0.4834 -1.096,0.6885 -0.093,0.1274 0.045,0.3823 1.0042,1.8664 l 1.1116,1.7191 0.6901,0.34 c 0.7408,0.3651 2.1593,0.9434 2.813,1.147 l 0.4016,0.1248 -0.3314,-0.3626 c -0.1821,-0.1998 -0.55,-0.6255 -0.8163,-0.9469 z m -5.4148,-8.1677 c -0.5364,-0.7112 -1.0934,-1.3897 -1.2366,-1.5086 -0.1432,-0.119 -0.5667,-0.3036 -0.941,-0.4104 l -0.6804,-0.194 0.6358,1.1217 0.6358,1.1219 0.7495,0.4759 c 0.6831,0.4337 1.3395,0.9577 2.2844,1.8236 0.5833,0.5344 0.6024,0.2752 0.035,-0.4714 -0.2783,-0.3667 -0.9458,-1.2478 -1.4825,-1.9587 z m 11.6633,20.0189 c -0.3245,0.3087 -0.8547,0.7743 -1.1785,1.035 l -0.5888,0.4734 -0.3405,1.3243 c -0.2193,0.8539 -0.2846,1.3026 -0.1834,1.2632 0.2629,-0.1018 1.257,-1.2782 1.7383,-2.0569 0.4829,-0.7811 1.3146,-2.5635 1.2068,-2.5867 -0.036,-0.01 -0.3291,0.2401 -0.6546,0.547 z m -2.9119,-2.5928 c -0.1611,0.2198 -0.2722,0.4316 -0.2471,0.4703 0.026,0.038 0.3053,-0.032 0.6229,-0.1574 0.6093,-0.2406 0.6171,-0.2495 0.8179,-0.9537 l 0.092,-0.3219 -0.4964,0.2817 c -0.3009,0.1707 -0.6113,0.4392 -0.7892,0.6812 z m -12.596,-22.0899 c -1.2211,-1.3874 -2.3182,-2.5216 -3.7384,-3.8651 -1.3479,-1.2752 -1.3487,-1.2757 -1.6036,-1.1109 -0.26,0.168 -0.5266,0.5157 -0.7355,0.9587 l -0.1166,0.2474 0.9415,0.5896 c 1.1167,0.6996 2.7921,2.0267 3.6583,2.8978 0.7238,0.7281 1.2334,1.0556 1.989,1.2784 0.6403,0.1887 0.634,0.1728 -0.3947,-0.9959 z m 3.7218,6.8403 c -0.3855,-0.2693 -0.719,-0.5068 -0.7412,-0.5278 -0.099,-0.094 0.1934,0.6281 0.3801,0.9379 0.1886,0.3127 0.2511,0.3397 0.6883,0.2947 0.2646,-0.027 0.4569,-0.087 0.4274,-0.1322 -0.031,-0.044 -0.369,-0.3032 -0.7546,-0.5726 z m 0.1011,1.3119 c 0.1581,0.3284 0.1777,0.3285 0.5436,0 l 0.3089,-0.2797 -0.4873,0.014 -0.4873,0.014 z m -4.7537,-5.9787 c -0.9219,-0.1564 -2.7881,-0.2484 -2.9467,-0.1459 -0.04,0.027 0.094,0.191 0.3007,0.3658 0.2063,0.1749 0.6268,0.5943 0.9351,0.9316 l 0.5607,0.6134 0.793,-0.036 c 0.4361,-0.02 1.1898,0.048 1.6749,0.1493 l 0.8821,0.1849 -0.6141,-0.9499 -0.614,-0.9498 z m 13.4336,21.3349 -0.7602,0.3283 -0.2044,0.4952 c -0.253,0.6122 -0.6875,2.4553 -0.6078,2.5786 0.053,0.093 0.9423,-0.3171 1.5713,-0.7225 0.2942,-0.1904 0.3498,-0.3408 0.5718,-1.5559 0.1349,-0.7402 0.2331,-1.3696 0.2177,-1.3987 -0.011,-0.033 -0.3701,0.095 -0.7882,0.2751 z m -10.8877,-18.0183 c -0.606,-0.3542 -1.6464,-0.6858 -2.3696,-0.7551 l -0.7127,-0.068 0.3764,0.7033 c 0.2071,0.3868 0.5438,1.0295 0.7483,1.4284 l 0.3716,0.7251 1.2388,0.058 c 0.6812,0.032 1.2901,0.026 1.353,-0.013 0.067,-0.034 0.044,-0.1831 -0.042,-0.3221 -0.1163,-0.1909 -0.5568,-1.2665 -0.622,-1.5277 0,-0.021 -0.1579,-0.1209 -0.3416,-0.2279 z m 3.1677,10.3647 c -0.6493,-0.2853 -1.298,-0.5342 -1.4417,-0.553 -0.5318,-0.069 -1.612,0.013 -1.6973,0.1304 -0.1748,0.2403 0.08,2.5113 0.3725,3.3213 0.095,0.2634 0.1452,0.2677 1.1053,0.097 1.1044,-0.1963 3.0791,-0.7906 4.4275,-1.3324 0.4759,-0.1912 0.9717,-0.388 1.1016,-0.4371 0.1641,-0.062 -0.2098,-0.1836 -1.2256,-0.3984 -0.9104,-0.1926 -1.907,-0.5044 -2.6423,-0.8277 z m -7.3589,-15.099 c -1.5442,-0.3012 -3.7308,-0.4991 -3.6197,-0.3272 0.033,0.048 0.3488,0.2771 0.7055,0.5083 0.6087,0.3945 0.6947,0.4152 1.4042,0.3371 0.4157,-0.046 1.207,-0.067 1.7585,-0.048 0.8414,0.029 0.9737,0.01 0.8228,-0.1306 -0.099,-0.091 -0.5809,-0.2438 -1.0713,-0.3396 z m -3.7182,-6.8104 c -0.7528,-0.5406 -1.6803,-1.0618 -2.3333,-1.3109 -1.0563,-0.4031 -2.7161,-0.4045 -4.5348,0 -0.7916,0.1745 -0.9697,0.09 -0.2035,-0.097 0.1949,-0.047 0.3633,-0.127 0.3743,-0.1765 0.031,-0.1332 -2.7697,0.2584 -3.8242,0.5359 -0.501,0.1319 -0.9168,0.2672 -0.924,0.3006 -0.024,0.097 2.0886,0.1622 2.2337,0.068 0.072,-0.05 0.1593,-0.043 0.1925,0.01 0.035,0.05 0.2967,0.1242 0.5857,0.1621 0.289,0.038 1.1994,0.2036 2.0233,0.3675 1.3586,0.272 1.4884,0.2775 1.4,0.06 -0.076,-0.1893 -0.055,-0.1799 0.1029,0.043 0.1416,0.2045 0.5267,0.3991 1.3678,0.7004 0.6425,0.2303 1.5539,0.5999 2.0255,0.8215 0.7341,0.3452 0.8787,0.3764 1.0065,0.2172 0.082,-0.1018 0.3602,-0.4162 0.6184,-0.6983 0.258,-0.2821 0.4506,-0.542 0.428,-0.5777 -0.024,-0.035 -0.2653,-0.225 -0.538,-0.4215 z m 7.8166,13.9063 -1.3714,-0.088 0.3297,0.5691 c 0.3191,0.5503 0.3537,0.5774 1.073,0.8245 0.4089,0.1404 0.8617,0.331 1.0062,0.4234 0.3041,0.1946 0.3433,0.1787 0.6451,-0.2613 0.2315,-0.3379 0.2386,-0.3003 -0.2314,-1.2231 -0.049,-0.097 -0.6068,-0.1906 -1.4511,-0.2447 z m -5.09,-9.2304 c -0.7076,-0.5858 -1.9562,-1.4864 -2.4618,-1.7756 l -0.3162,-0.1809 -0.085,0.3958 c -0.081,0.3787 -0.073,0.4021 0.2176,0.5495 2.1475,1.0928 3.3987,1.7028 3.3531,1.6347 -0.031,-0.045 -0.3494,-0.3264 -0.7082,-0.6234 z m 8.5822,13.9418 c -0.4229,-0.2554 -1.0531,-0.711 -1.4005,-1.0125 -0.652,-0.5658 -0.7692,-0.6094 -0.8965,-0.3337 -0.098,0.2128 0.5397,0.8864 1.7875,1.8887 0.7864,0.6313 2.3141,1.6248 2.4064,1.565 0.018,-0.013 -0.2284,-0.386 -0.5472,-0.8323 -0.5093,-0.7124 -0.6739,-0.8676 -1.3493,-1.2754 z m -1.3759,-2.827 c -0.3351,0.2199 -0.2785,0.3775 0.3379,0.9519 0.572,0.533 0.5914,0.5417 0.4518,0.2025 -0.2653,-0.6446 -0.669,-1.2346 -0.7881,-1.1555 z m 0.6255,4.1459 c -0.3817,-0.3174 -0.9672,-0.8474 -1.3014,-1.1777 l -0.6076,-0.6005 -0.1258,0.3309 c -0.069,0.1821 -0.1804,0.5013 -0.2471,0.7097 l -0.1213,0.3786 1.4861,0.765 c 1.7411,0.8959 2.2291,1.1069 3.0864,1.3329 l 0.6338,0.1671 -1.0546,-0.6646 c -0.58,-0.3654 -1.3668,-0.9242 -1.7483,-1.2417 z m 5.9626,9.1141 c -0.534,0.2322 -0.7542,0.3853 -0.5935,0.411 0.2329,0.036 0.852,-0.1558 0.9573,-0.3001 0.1724,-0.2362 0.026,-0.2813 -0.3645,-0.1115 z m -16.3481,-24.4866 c -0.1853,-0.1094 -0.3716,-0.1764 -0.4139,-0.1491 -0.095,0.054 0.1565,0.2031 1.123,0.6524 0.8752,0.4068 1.0275,0.3998 0.2134,-0.01 -0.3219,-0.162 -0.7371,-0.3841 -0.9225,-0.4934 z m 0.3308,0.6838 c -0.3779,-0.1964 -0.7036,-0.3466 -0.7235,-0.3337 -0.04,0.028 0.092,0.8225 0.1539,0.9175 0.038,0.055 1.4436,0.1623 1.8835,0.1418 0.1145,-0.01 0.03,-0.077 -0.2217,-0.1884 -0.2228,-0.099 -0.7143,-0.3408 -1.0922,-0.5372 z m 7.7997,11.1457 -0.355,-0.155 0.1756,0.2711 c 0.2127,0.3283 0.4733,0.4639 0.5555,0.2907 0.083,-0.1741 0.034,-0.2271 -0.3764,-0.4065 z m 9.0863,17.3406 c -0.2967,0.1215 -0.3188,0.1928 -0.409,1.3053 -0.053,0.6472 -0.045,1.1854 0.016,1.1965 0.108,0.019 1.757,-0.7275 1.7688,-0.8006 0,-0.021 0.057,-0.5884 0.1192,-1.2635 l 0.1134,-1.2274 -0.6476,0.3305 c -0.3565,0.1812 -0.7886,0.3884 -0.9612,0.4592 z m -19.1228,-31.9342 c -1.1057,-0.5272 -2.3934,-1.0276 -2.4876,-0.9666 -0.1198,0.071 0.6949,1.2535 0.9538,1.3948 0.1316,0.069 0.6719,0.3031 1.2001,0.5203 l 0.9607,0.3949 0.149,-0.4142 c 0.082,-0.2278 0.1345,-0.4364 0.1167,-0.4636 -0.019,-0.027 -0.4215,-0.2353 -0.8977,-0.4624 z m 5.3507,8.9882 c -0.3159,0.032 -0.5805,0.085 -0.5878,0.1195 -0.01,0.035 0.4844,0.6046 1.0936,1.2671 1.1635,1.2668 1.6247,1.5909 1.3657,0.9598 -0.2625,-0.6397 -0.8084,-1.7048 -1.0534,-2.0554 -0.224,-0.3235 -0.2868,-0.3439 -0.8181,-0.291 z m -0.5876,-1.4724 c -1.0801,-1.1293 -1.2207,-1.2259 -1.6689,-1.1452 -0.2239,0.041 -0.4132,0.1 -0.42,0.1315 -0.041,0.1894 0.6355,1.2542 1.0526,1.6567 0.4727,0.4569 0.4817,0.4597 1.0204,0.3236 0.6562,-0.1658 0.7034,-0.1876 0.6353,-0.2931 -0.031,-0.044 -0.3081,-0.3483 -0.6191,-0.6738 z m 4.2163,7.0279 -0.3341,-0.5174 -1.0882,-0.1466 c -1.2614,-0.1693 -3.6128,-0.226 -3.6425,-0.088 -0.026,0.1081 1.4611,1.5264 2.4911,2.3802 0.5499,0.4559 0.9402,0.6649 1.8681,1.0003 1.3104,0.4736 1.1724,0.5308 1.5335,-0.6355 0.1985,-0.6401 0.1981,-0.6423 -0.1463,-1.0594 -0.1898,-0.2301 -0.4958,-0.6508 -0.6803,-0.9348 z m -1.6096,-2.5559 c 0.015,0.077 0.092,0.2002 0.1705,0.2744 0.08,0.073 0.067,0.012 -0.027,-0.1405 -0.091,-0.1528 -0.1602,-0.2102 -0.1456,-0.1329 z m 9.8583,16.8089 -0.7043,0.2254 -0.7838,0.9021 c -0.431,0.4961 -0.9193,1.0492 -1.085,1.2293 -0.2613,0.2843 -0.2881,0.3972 -0.2022,0.856 0.121,0.6433 0.048,0.6343 1.6597,0.2082 l 1.2045,-0.3186 0.3673,-1.6267 c 0.2021,-0.8947 0.3406,-1.6434 0.3086,-1.6637 -0.034,-0.02 -0.3765,0.064 -0.7638,0.1882 z m -10.036,-16.4896 c -0.5675,-0.547 -0.5783,-0.5513 -1.5703,-0.6412 -1.2026,-0.109 -1.3143,-0.2497 -0.1378,-0.1726 0.4575,0.03 0.8359,0.036 0.8408,0.014 0.01,-0.043 -1.2875,-1.2706 -2.0313,-1.9246 l -0.4238,-0.3726 -0.7683,0.2064 c -0.4226,0.1135 -0.777,0.1932 -0.7875,0.1769 -0.01,-0.016 0.2639,-0.1822 0.6102,-0.3679 0.5854,-0.3154 0.6174,-0.3485 0.4644,-0.4754 -0.09,-0.076 -0.6195,-0.5285 -1.1755,-1.0076 -0.556,-0.4788 -1.0368,-0.8763 -1.0684,-0.8832 -0.1248,-0.029 -1.3063,0.5213 -1.3267,0.6161 -0.04,0.1836 1.9137,4.1519 2.0311,4.1266 0.069,-0.015 0.088,0.023 0.052,0.099 -0.054,0.1156 0.058,0.2439 1.1406,1.294 0.1288,0.1262 0.4718,0.1408 1.2496,0.056 0.5894,-0.064 1.6296,-0.1046 2.3119,-0.09 0.6824,0.015 1.2226,0 1.2005,-0.038 -0.024,-0.034 -0.297,-0.3129 -0.6117,-0.6154 z m -4.8133,-6.8566 c -0.204,-0.1488 -0.3325,-0.04 -0.1984,0.1677 0.056,0.098 0.1867,0.1554 0.28,0.1356 0.181,-0.038 0.156,-0.13 -0.082,-0.3036 z m 9.1317,20.1297 c -0.01,0.033 0.3802,0.1423 0.8631,0.2439 0.8597,0.1808 0.8938,0.1773 1.6487,-0.1682 0.424,-0.1939 0.8403,-0.398 0.9251,-0.4531 0.083,-0.058 -0.6505,-0.01 -1.634,0.1089 -0.9836,0.1151 -1.7949,0.2359 -1.8029,0.2685 z m 2.1924,1.325 c -0.4427,-0.08 -0.7878,-0.044 -1.4395,0.1539 -1.0348,0.3148 -2.2719,0.5263 -4.5346,0.7754 -0.935,0.1028 -1.731,0.2071 -1.7686,0.2314 -0.1106,0.064 3.0293,0.096 4.3937,0.037 1.5713,-0.068 3.7221,-0.3532 4.9119,-0.6522 0.5119,-0.1287 0.9477,-0.2449 0.9683,-0.2583 0.02,-0.014 -0.4094,-0.059 -0.9558,-0.1023 -0.5463,-0.043 -1.2552,-0.126 -1.5754,-0.1849 z m 1.7533,1.1672 c -0.28,0.087 -0.8832,0.2036 -1.3405,0.2594 -0.6271,0.076 -1.3219,0.2944 -2.8258,0.8871 -2.1748,0.857 -4.0246,1.4893 -6.3455,2.1692 -1.446,0.4235 -1.5178,0.4561 -2.0215,0.9197 -0.287,0.2644 -0.5216,0.5557 -0.5207,0.6478 5e-4,0.092 0.1235,0.3577 0.2727,0.5901 l 0.2675,0.4249 1.8531,-0.1739 c 1.6649,-0.1564 1.9539,-0.2174 2.8482,-0.6024 0.6244,-0.2686 1.7127,-0.8726 2.9186,-1.6192 2.2753,-1.4092 2.2243,-1.4651 -0.4353,-0.4739 -0.9095,0.3386 -1.7492,0.6463 -1.866,0.6837 -0.1172,0.037 0.2949,-0.2335 0.9151,-0.6021 1.1857,-0.7057 2.519,-1.3411 4.1625,-1.9848 0.5424,-0.2126 1.1078,-0.4984 1.2561,-0.6354 0.1874,-0.1724 0.2491,-0.1969 0.2022,-0.079 -0.074,0.1852 -0.074,0.1852 0.7876,-0.1017 0.4407,-0.1467 0.6495,-0.3343 0.4681,-0.4203 -0.049,-0.024 -0.3199,0.028 -0.5997,0.1149 z m -15.2701,-23.4954 c -0.3334,0.01 -0.613,0.046 -0.6212,0.084 -0.01,0.039 0.3172,0.2819 0.7233,0.5409 0.4061,0.259 0.8451,0.5462 0.9757,0.6382 0.2182,0.1535 0.2187,0.1223 0.01,-0.3903 -0.3392,-0.8279 -0.4156,-0.8892 -1.0863,-0.8731 z m -4.8787,-6.2138 c -1.9086,-0.4435 -3.1577,-0.6065 -3.4079,-0.4446 -0.081,0.056 -0.1706,0.043 -0.1968,-0.025 -0.085,-0.2188 -2.1881,-0.2041 -2.7611,0.02 -0.5958,0.2326 -2.2513,1.0679 -2.2692,1.1447 -0.01,0.028 0.2663,0 0.6057,-0.055 3.0585,-0.5247 5.9485,-0.2642 9.4158,0.8486 0.7107,0.2281 1.3067,0.4052 1.3245,0.3936 0.018,-0.011 -0.1768,-0.345 -0.4329,-0.741 l -0.4656,-0.7198 z m 22.9262,33.948 c -0.02,0.014 -0.1141,0.5922 -0.203,1.2856 -0.1178,0.9055 -0.1186,1.2293 0,1.1498 0.099,-0.068 0.1816,-0.5535 0.2133,-1.2598 0.054,-1.2106 0.054,-1.2155 -0.01,-1.1756 z m -9.5144,-14.1993 c -0.6497,-0.2466 -5.6344,-0.4972 -5.9414,-0.2988 -0.049,0.034 -0.1273,0.03 -0.1727,0 -0.083,-0.062 -2.7269,0.084 -2.8395,0.1573 -0.031,0.022 0.5098,0.3483 1.2047,0.7277 0.695,0.3794 1.3835,0.7852 1.53,0.902 0.3467,0.2759 1.9397,0.1568 3.5537,-0.2658 0.6299,-0.1649 1.6165,-0.3743 2.1926,-0.4652 0.5758,-0.091 1.0659,-0.2032 1.089,-0.2494 0.08,-0.1586 -0.1047,-0.3093 -0.6163,-0.5034 z m -10.0828,-14.6759 c -0.6195,-0.2695 -1.2992,-0.5465 -1.5107,-0.6154 l -0.3847,-0.1257 0.6517,0.6669 c 0.3586,0.3667 0.7544,0.7152 0.8799,0.774 0.1854,0.087 1.1997,0.068 1.6861,-0.032 0.1381,-0.028 0.072,-0.062 -1.3223,-0.6683 z m 10.1282,16.2358 c -0.2299,0.03 -0.5092,0.1132 -0.6207,0.1853 -0.2671,0.1727 -2.0948,2.1083 -2.1253,2.2508 -0.011,0.061 0.2923,0.4044 0.6739,0.7667 l 0.6976,0.6561 1.2055,-0.1233 c 1.3125,-0.1343 1.3276,-0.1461 1.0368,-0.8214 -0.089,-0.2074 -0.2175,-0.9334 -0.285,-1.6138 -0.068,-0.6805 -0.1321,-1.2637 -0.1438,-1.2961 -0.011,-0.034 -0.2097,-0.032 -0.4391,0 z m -9.0002,-13.8077 c -0.3506,-0.2052 -0.6876,-0.3852 -0.7489,-0.4 -0.061,-0.018 0.013,0.2756 0.1661,0.6454 0.1527,0.3697 0.2964,0.6746 0.3193,0.6775 0.1117,0.014 0.9759,-0.4334 0.9409,-0.4876 -0.023,-0.034 -0.3269,-0.23 -0.6774,-0.4353 z m 16.0994,27.0075 -1.2214,0.244 -0.01,0.2838 c -0.01,0.1561 -0.046,0.7823 -0.092,1.3917 l -0.083,1.1077 1.0538,-0.2929 c 0.5795,-0.1611 1.1351,-0.3491 1.2345,-0.4179 0.1862,-0.1288 0.5799,-2.5085 0.4209,-2.5426 -0.045,-0.01 -0.6323,0.092 -1.304,0.2263 z m 5.0143,6.1929 c -0.043,0.03 -0.216,0.2299 -0.3829,0.449 -0.1669,0.219 -0.6849,0.8345 -1.151,1.3681 l -0.8473,0.9701 0.066,0.8402 c 0.074,0.9371 -0.054,0.9502 -0.1525,0.016 -0.034,-0.3279 -0.1025,-0.5705 -0.1512,-0.539 -0.048,0.033 -0.551,0.5274 -1.1167,1.1022 -0.5655,0.5748 -1.372,1.3613 -1.7922,1.7476 -1.4816,1.3622 -3.2266,4.293 -3.6044,6.0539 -0.1114,0.5206 -0.097,1.7068 0.024,1.8931 0.078,0.1297 1.8407,-1.1641 2.957,-2.1696 0.4602,-0.4149 1.4549,-1.5058 2.0256,-2.2219 0.7282,-0.9139 2.1927,-3.3299 2.1478,-3.5433 -0.02,-0.096 0.013,-0.175 0.074,-0.1763 0.2308,0 1.1268,-2.2855 1.6933,-4.31 0.3605,-1.2888 0.4057,-1.6064 0.2103,-1.48 z m -6.6604,-9.3502 c -0.7704,0.2308 -0.7374,0.2098 -1.7825,1.1384 -0.4855,0.4312 -1.4709,1.1704 -2.1995,1.6491 l -1.3204,0.8671 1.2576,-0.1313 c 0.6916,-0.072 1.3729,-0.203 1.514,-0.2907 0.4155,-0.2585 3.2321,-3.2702 3.1608,-3.3804 -0.013,-0.019 -0.2961,0.047 -0.6304,0.1472 z m 3.6705,5.7696 c -0.049,0.034 -0.2113,0.4555 -0.3575,0.9394 -0.7043,2.3334 -2.3707,4.9067 -4.5304,6.9959 -1.0161,0.9832 -0.912,1.0092 0.7114,0.1792 0.79,-0.4039 1.3881,-0.7933 2.3938,-1.5582 2.1452,-1.6328 2.0638,-1.5413 2.0456,-2.2864 -0.01,-0.3529 -0.01,-1.4517 0,-2.4417 0.013,-1.6806 -0.029,-1.9779 -0.2613,-1.8278 z m -8.4398,-11.2919 c -0.4235,0.054 -0.7612,0.1408 -0.7501,0.1932 0.035,0.1667 0.5253,0.3075 1.172,0.3359 0.4684,0.021 0.6274,-0.013 0.6277,-0.134 0,-0.3858 -0.2829,-0.4928 -1.0496,-0.3951 z m -6.8575,-9.817 c -0.9318,-0.401 -1.2818,-0.4921 -1.7775,-0.4623 -0.5742,0.035 -0.594,0.027 -0.2853,-0.1056 l 0.3316,-0.1433 -0.3974,-0.158 c -1.0479,-0.4168 -2.9593,-1.0067 -3.3616,-1.0376 -0.2475,-0.019 -0.8443,0.016 -1.3261,0.078 l -0.8763,0.1123 -0.1585,0.4687 c -0.1855,0.5483 -0.2814,1.0712 -0.1968,1.0837 0.031,0.01 0.6515,0.078 1.3768,0.1637 2.1628,0.2546 4.9521,0.764 7.688,1.404 0.6956,0.1627 1.2724,0.2908 1.2817,0.2847 0.01,-0.01 -0.2424,-0.2761 -0.5599,-0.6002 -0.484,-0.494 -0.7644,-0.6697 -1.7374,-1.0885 z m 7.3332,11.4544 c -0.4861,-0.2008 -1.2565,-0.4108 -1.7121,-0.4664 -0.4556,-0.055 -1.2746,-0.2115 -1.82,-0.3454 -0.7199,-0.1775 -1.1874,-0.2158 -1.7063,-0.135 -0.393,0.06 -0.7749,0.1488 -0.8489,0.1967 -0.2251,0.1437 -1.4398,2.1633 -1.4884,2.4715 -0.044,0.2801 -0.035,0.2884 0.3233,0.3016 0.2027,0.01 0.8146,-0.055 1.3597,-0.1394 0.5451,-0.084 2.0528,-0.296 3.3504,-0.4706 2.3516,-0.3166 3.9316,-0.5864 4.1105,-0.7022 0.051,-0.035 -0.077,-0.128 -0.2952,-0.2032 -0.214,-0.078 -0.787,-0.3066 -1.2731,-0.5073 z m -13.3923,-20.9412 c -0.5136,0.065 -0.9385,0.1394 -0.9441,0.1656 0,0.026 0.2934,0.3112 0.6648,0.6331 0.3713,0.322 0.9596,0.9092 1.3076,1.3048 l 0.6324,0.7194 0.3511,-0.2663 c 0.3464,-0.2618 0.3488,-0.272 0.1442,-0.7088 -0.114,-0.2437 -0.4358,-0.7857 -0.715,-1.2046 l -0.5071,-0.7621 z m 2.312,3.0541 c -0.2448,0.1269 -0.2934,0.191 -0.2097,0.3201 0.1725,0.2667 1.9912,2.2742 2.1518,2.3754 0.083,0.052 -0.1814,-0.4695 -0.5875,-1.159 -1.0693,-1.8157 -0.9899,-1.7255 -1.3546,-1.5365 z m 2.1549,7.9349 c -2.8935,-0.6231 -6.2881,-1.1824 -6.4686,-1.0655 -0.07,0.048 -0.067,0.7042 0.01,1.0461 0.029,0.1311 0.3387,0.2822 1.0002,0.4864 0.5274,0.163 1.386,0.4694 1.9078,0.6813 0.8092,0.3283 1.0378,0.3694 1.5535,0.2821 0.3329,-0.058 1.2337,-0.1603 2.0019,-0.2269 0.7679,-0.066 1.4046,-0.1429 1.4147,-0.1696 0.011,-0.026 0.069,-0.026 0.1298,0 0.061,0.028 0.5085,0.041 0.9939,0.028 0.4856,-0.013 1.0261,-0.023 1.2014,-0.023 l 0.3185,2e-4 -0.4256,-0.1734 c -0.2342,-0.096 -1.8698,-0.4845 -3.6346,-0.8644 z m -5.6788,-13.0754 c -0.4162,-0.2831 -1.0733,-0.6524 -1.4603,-0.8207 -0.3871,-0.1682 -0.8781,-0.3907 -1.0914,-0.4944 -0.6062,-0.2951 -2.2351,-0.6959 -3.1237,-0.7687 -1.1724,-0.096 -2.5193,0.079 -3.7144,0.4823 -0.5757,0.1943 -1.0739,0.3875 -1.1073,0.4293 -0.033,0.041 0.3457,0.097 0.8426,0.1232 0.4969,0.026 1.8751,0.2566 3.063,0.5115 1.1879,0.2554 2.7344,0.5116 3.4368,0.5692 0.7026,0.058 1.883,0.2097 2.6231,0.3379 0.7403,0.128 1.333,0.2129 1.3172,0.1886 -0.017,-0.024 -0.3693,-0.2759 -0.7854,-0.5591 z m 8.9739,17.9345 c -0.011,0.055 0.846,0.7986 0.9635,0.8352 0.038,0.013 0.9766,-1.0415 1.224,-1.3733 0.057,-0.076 -0.4092,-4e-4 -1.0354,0.1679 -0.626,0.1684 -1.1446,0.3349 -1.1521,0.3702 z m 11.1824,15.4822 -1.178,0.2901 -0.1225,0.5246 c -0.4831,2.068 -2.0243,5.007 -3.3531,6.3942 -0.4123,0.4304 -0.7307,0.8236 -0.7074,0.8736 0.023,0.051 0.3118,0.1038 0.6407,0.1228 l 0.5986,0.029 0.7213,-0.786 c 1.8821,-2.051 3.5662,-4.6518 4.2726,-6.5978 0.1363,-0.3757 0.2775,-0.7597 0.3138,-0.8533 0.036,-0.093 0.049,-0.1958 0.029,-0.2273 -0.022,-0.031 -0.5671,0.073 -1.215,0.2328 z m -14.4015,-23.6677 c -1.0541,-0.6917 -2.4297,-1.4751 -3.4927,-1.9889 -1.1552,-0.5585 -1.0715,-0.5725 -1.6362,0.274 l -0.2895,0.4336 0.9078,0.2109 c 1.1894,0.2763 2.7138,0.7188 3.9989,1.1611 0.5695,0.1959 1.0618,0.3631 1.0943,0.3715 0.1393,0.036 -0.042,-0.1073 -0.5827,-0.462 z m -6.3925,-8.4657 c -0.4445,-0.065 -0.813,-0.096 -0.819,-0.068 -0.01,0.028 0.2665,0.2127 0.6057,0.4109 0.5184,0.3032 0.683,0.3429 1.0351,0.2497 0.2305,-0.061 0.4918,-0.1251 0.5807,-0.1421 0.2873,-0.055 -0.5559,-0.3256 -1.4026,-0.4501 z m 4.3583,5.6811 c -0.8384,-0.981 -1.1017,-1.1606 -1.3484,-0.9199 -0.096,0.093 -0.2718,0.2674 -0.3917,0.3869 l -0.2183,0.2169 0.3626,0.1441 c 0.1995,0.079 0.8276,0.378 1.3959,0.6643 0.5683,0.286 1.0061,0.48 0.9729,0.4309 -0.034,-0.048 -0.3813,-0.4643 -0.773,-0.9232 z m 14.3165,22.7493 c -0.1273,0.076 -0.2023,0.1827 -0.1741,0.2264 0.063,0.109 0.397,0.035 0.4606,-0.099 0.096,-0.2015 -0.063,-0.2725 -0.2868,-0.1279 z m -17.1646,-26.134 c -0.6494,-0.6039 -1.2739,-1.0803 -1.4823,-1.1309 -0.164,-0.04 -1.7084,0.2906 -1.8813,0.4023 -0.048,0.034 0.363,0.2125 0.9163,0.4013 0.5533,0.1887 1.5023,0.5362 2.1088,0.7721 1.1989,0.4662 1.2483,0.4011 0.3385,-0.4448 z m 16.8699,26.966 -0.5884,0.081 -1.2948,1.122 c -0.7121,0.6172 -1.4996,1.2961 -1.7499,1.5089 l -0.455,0.3869 1.2038,-0.022 c 1.2258,-0.023 3.0471,-0.2321 3.27,-0.3763 0.1735,-0.108 0.38,-2.5062 0.2375,-2.7268 -0.02,-0.029 -0.2995,-0.017 -0.6231,0.027 z m -4.9736,-3.9297 c -0.6376,0.1635 -1.4996,0.4401 -1.9157,0.6148 -0.8574,0.3598 -2.1309,1.1407 -1.8365,1.1261 0.4608,-0.023 5.948,-1.8989 6.301,-2.1544 0.2086,-0.1566 -1.2919,0.091 -2.5488,0.4135 z m -12.5393,-21.8236 c -2.0366,-0.8744 -3.9459,-1.5278 -4.2651,-1.4594 -0.3393,0.073 -2.0929,0.7668 -2.697,1.0676 l -0.436,0.2181 0.3878,0.026 c 2.7307,0.181 5.3076,0.7302 7.6144,1.6226 0.3546,0.1372 0.3599,0.1354 0.7503,-0.2743 0.4593,-0.482 0.5924,-0.3641 -1.3541,-1.1998 z m 17.6351,36.6639 c -0.3752,0.1356 -0.879,0.2821 -1.1195,0.3254 -0.278,0.05 -0.7412,0.2689 -1.2707,0.6003 l -0.8334,0.5213 0.5527,-0.4838 c 0.3043,-0.2655 0.5323,-0.5066 0.5075,-0.5351 -0.03,-0.026 -0.3174,-0.092 -0.6497,-0.1414 l -0.604,-0.09 -0.6483,0.5634 c -0.3565,0.3102 -1.66,1.23 -2.8958,2.0457 l -2.2473,1.4822 -0.5004,0.9109 -0.5003,0.911 0.3381,-0.071 c 3.1381,-0.6613 7.8858,-2.6576 9.9809,-4.1966 0.9319,-0.6844 2.2176,-1.894 3.8622,-3.6323 l 1.0233,-1.0818 -2.1565,1.3125 c -1.4013,0.8525 -2.3955,1.3989 -2.8388,1.559 z m -7.3858,-21.3454 c -0.1501,-0.1342 -0.2585,-0.1449 -0.3891,-0.038 -0.2878,0.2346 -0.6486,0.8106 -0.5772,0.921 0.056,0.081 1.4672,-0.053 1.6251,-0.1547 0.044,-0.031 -0.2811,-0.3883 -0.6587,-0.7281 z m -13.0639,-18.8871 c -0.6995,-0.3426 -1.9595,-0.4774 -4.1883,-0.4478 -1.3,0.017 -3.5788,0.2342 -3.7719,0.3591 -0.1009,0.058 -0.034,0.7839 0.07,0.7962 0.018,0 0.275,-0.022 0.5717,-0.054 1.4177,-0.153 4.0255,0.1283 5.7595,0.6212 0.7965,0.2265 0.8716,0.2239 1.8958,-0.065 0.5865,-0.1654 1.0932,-0.318 1.126,-0.3393 0.072,-0.05 -0.6026,-0.4491 -1.4627,-0.8703 z m 11.3442,17.4024 c -0.6311,-0.5082 -0.8216,-0.5151 -0.845,-0.031 l -0.015,0.2978 -0.1009,-0.2668 c -0.099,-0.2644 -0.1091,-0.263 -0.9566,0.1311 -0.4707,0.2189 -0.8605,0.4188 -0.8661,0.4447 -0.01,0.05 1.5931,0.8486 1.8091,0.9019 0.068,0.019 0.1072,-0.1435 0.087,-0.3563 -0.02,-0.2128 -9e-4,-0.3791 0.044,-0.3695 0.046,0.01 0.09,0.2236 0.1007,0.4751 0.017,0.4234 0.04,0.4667 0.2992,0.5814 0.3325,0.147 0.3602,0.1332 0.6904,-0.3488 0.1402,-0.2054 0.3276,-0.4711 0.4157,-0.5912 0.088,-0.1197 0.1095,-0.2566 0.047,-0.3036 -0.062,-0.047 -0.3816,-0.3012 -0.7095,-0.5652 z m 7.5078,15.7863 c -1.1025,0.3745 -1.4893,0.5589 -2.4013,1.145 l -1.0883,0.6966 -0.9002,1.2851 c -0.8873,1.2669 -0.9054,1.3063 -1.2732,2.7901 -0.2055,0.8277 -0.5959,2.1202 -0.8681,2.8719 l -0.4947,1.3668 0.3784,-0.1586 c 0.3625,-0.1525 3.5501,-2.3919 3.6243,-2.5454 0.02,-0.042 0.2423,-0.2457 0.4944,-0.4556 1.8112,-1.503 3.3013,-3.8959 4.0848,-6.5596 0.3453,-1.1739 0.4884,-1.1336 -1.5575,-0.4385 z m -16.3925,-27.6935 c -2.5806,-0.9591 -5.7323,-1.5508 -7.7797,-1.4609 -0.7241,0.032 -1.1159,0.3637 -0.8718,0.7388 0.29,0.4363 1.5207,1.7888 1.6148,1.7645 0.051,-0.013 0.6723,-0.018 1.3811,-0.01 1.423,0.015 3.3092,0.1861 4.6613,0.4221 l 0.8797,0.1534 0.4375,-0.6298 c 0.2406,-0.3463 0.4247,-0.6493 0.4091,-0.6732 -0.016,-0.024 -0.3449,-0.1613 -0.732,-0.3052 z m 9.9769,18.9914 c -0.8759,-0.068 -1.9313,-0.088 -2.3453,-0.043 l -0.7526,0.082 -0.101,0.406 c -0.2155,0.8685 -0.1729,2.8565 0.062,2.9071 0.115,0.027 0.6235,-0.3138 2.2864,-1.5227 1.1103,-0.8067 1.9741,-1.2505 3.0735,-1.5812 0.1868,-0.056 0.037,-0.073 -2.2241,-0.2494 z m -4.7567,-9.5447 c -0.676,-0.3798 -1.2779,-0.7028 -1.3376,-0.7178 -0.1106,-0.028 -2.9771,0.5523 -3.0969,0.6271 -0.066,0.046 -0.011,0.1137 0.8346,1.0329 l 0.5011,0.5447 2.2007,-0.2722 c 1.2103,-0.1498 2.2148,-0.2815 2.2321,-0.2927 0.1086,-0.063 -0.2455,-0.3106 -1.3341,-0.9219 z m 6.7416,15.2623 c -0.4397,0.1926 -1.2136,0.4904 -1.7197,0.6624 -0.5058,0.1718 -0.908,0.3308 -0.8935,0.3532 0.015,0.022 0.2477,0.1431 0.5182,0.268 0.4662,0.2153 0.5323,0.2115 1.2688,-0.07 1.0985,-0.4205 3.6526,-1.5142 3.87,-1.6572 0.1042,-0.06 -0.3636,-0.073 -1.0309,-0.013 -0.937,0.083 -1.3952,0.1867 -2.0129,0.4568 z m -6.7733,-13.3337 c -0.7951,0.087 -1.3776,0.1905 -1.2943,0.2294 0.6952,0.3241 1.1878,0.4865 1.3346,0.4403 0.3165,-0.1 1.4731,-0.724 1.439,-0.7767 -0.019,-0.028 -0.6841,0.02 -1.4793,0.107 z m 7.893,14.1848 c -1.0175,0.4145 -1.8781,0.7888 -1.9125,0.8319 -0.034,0.043 0.2992,0.1534 0.7415,0.2454 l 0.8039,0.1673 0.8672,-0.7113 c 1.1552,-0.9477 1.4975,-1.2551 1.4168,-1.2725 -0.038,-0.01 -0.8996,0.3248 -1.917,0.7394 z m -4.9332,-11.2212 c -0.1101,0.064 -0.1066,0.3194 2e-4,0.3421 0.1067,0.026 0.2089,-0.2055 0.1402,-0.3119 -0.032,-0.046 -0.093,-0.061 -0.14,-0.032 z m -0.9999,-0.5727 c -1.3033,-0.7079 -1.7234,-0.872 -1.9151,-0.7479 -0.1025,0.059 -0.1506,0.1615 -0.1141,0.2177 0.047,0.068 0.011,0.095 -0.1053,0.085 -0.3453,-0.037 -2.536,1.3229 -3.6806,2.2847 -0.593,0.4982 -1.0832,0.9303 -1.0896,0.9601 -0.01,0.031 0.1619,0.1195 0.3742,0.1994 0.2976,0.1117 0.4554,0.1001 0.6891,-0.051 0.7158,-0.463 2.2629,-0.9678 4.8508,-1.5829 1.4717,-0.3497 1.6955,-0.4338 1.7679,-0.6644 0.075,-0.239 0.081,-0.2333 -0.776,-0.6991 z m -15.0958,-21.0107 c -1.709,-0.2767 -2.6429,-0.3324 -2.7233,-0.163 -0.06,0.1268 0.012,1.0049 0.093,1.1299 0.03,0.043 0.5237,-0.016 1.1016,-0.1308 0.5778,-0.1152 1.5873,-0.2465 2.2431,-0.292 1.4781,-0.102 1.3325,-0.2131 -0.7139,-0.5441 z m 22.4078,34.6229 -1.2956,-0.025 -0.8162,0.5799 c -0.7469,0.5307 -0.8171,0.6073 -0.8274,0.9017 -0.01,0.1769 -0.078,0.7874 -0.1594,1.3563 -0.081,0.569 -0.1219,1.0402 -0.09,1.0472 0.033,0.01 0.3421,-0.3962 0.6884,-0.8957 0.9676,-1.3958 1.7236,-1.9778 3.5687,-2.7477 0.4635,-0.1934 0.5032,-0.1852 -1.0689,-0.2161 z m -16.2538,-25.3756 c -1.9229,-0.3162 -4.6172,-0.5286 -4.6519,-0.3673 -0.015,0.082 0.947,0.8088 1.9396,1.464 l 0.9285,0.6128 0.3553,-0.2302 c 0.4302,-0.2785 1.7969,-0.8187 2.2996,-0.9093 0.3463,-0.062 0.4547,-0.1558 0.3564,-0.3077 -0.026,-0.037 -0.5768,-0.156 -1.2279,-0.2632 z m -4.6208,-6.1463 c -1.6257,-0.2849 -3.4707,-0.3756 -3.7653,-0.1852 -0.1106,0.065 0.4237,1.7031 0.6845,2.1063 0.154,0.2399 0.2671,0.2592 1.0966,0.1928 0.5246,-0.042 1.0483,-0.1535 1.2113,-0.2586 0.2828,-0.1825 1.8361,-0.9018 2.5301,-1.1722 l 0.3555,-0.138 -0.5346,-0.1812 c -0.294,-0.099 -1.004,-0.2635 -1.5778,-0.364 z m 11.4306,20.3073 c -1.9599,0.383 -3.3714,0.7572 -3.4024,0.9022 -0.012,0.065 2.4224,0.7614 2.8312,0.8084 0.1866,0.022 0.511,-0.1655 1.5937,-0.9184 1.3828,-0.9699 1.6778,-1.2399 1.2823,-1.2147 -0.1163,0.01 -1.1533,0.1976 -2.3048,0.4225 z m -4.1947,-8.7473 c -0.5856,-0.2141 -1.1217,-0.3745 -1.1913,-0.3565 -0.08,0.02 -0.013,0.2945 0.1812,0.7463 0.1695,0.3923 0.3288,0.7152 0.3548,0.717 0.026,0 0.4364,-0.091 0.9119,-0.2067 0.4756,-0.1156 0.944,-0.227 1.0411,-0.2475 0.2496,-0.052 0,-0.1797 -1.2977,-0.6526 z m -3.2021,-3.4462 c -0.1156,0.067 -0.1835,0.1624 -0.1563,0.2043 0.076,0.1276 1.0765,0.4833 1.2438,0.4481 0.087,-0.019 0.2026,-0.3052 0.2665,-0.6594 l 0.1139,-0.6267 -0.6303,0.2534 c -0.3469,0.1393 -0.7233,0.3106 -0.8367,0.3807 z m 6.3702,8.3133 c -0.1777,-0.061 -0.3054,-0.083 -0.2843,-0.045 0.077,0.1323 0.5492,0.3883 0.6229,0.3407 0.1232,-0.073 0.01,-0.1732 -0.339,-0.2938 z m -0.4203,0.063 c -0.9168,-0.6353 -1.0062,-0.6656 -1.6837,-0.5698 -0.707,0.1 -4.1626,0.7123 -4.2169,0.7474 -0.018,0.013 0.01,0.1238 0.06,0.2498 0.083,0.2036 0.074,0.2037 -0.074,0 -0.1633,-0.2183 -0.2644,-0.2061 -2.3612,0.3349 -1.2071,0.3114 -2.8114,0.7973 -3.5655,1.08 -1.5014,0.5628 -4.2053,1.7727 -4.2313,1.8933 -0.029,0.1262 2.1524,0.5877 3.0846,0.653 0.6414,0.045 1.0217,0 1.4324,-0.1646 1.7156,-0.6934 3.8178,-1.0812 4.9779,-0.9183 0.7022,0.098 0.8577,0.058 0.926,-0.2408 0.035,-0.1516 0.059,-0.1503 0.1261,0.01 0.072,0.1693 0.1966,0.1504 0.954,-0.1442 1.7757,-0.6906 5.1092,-2.411 4.9996,-2.5804 -0.033,-0.048 -0.2235,-0.2034 -0.4275,-0.3445 z m 2.0485,5.4487 -0.3526,0.2673 0.4291,0.026 0.429,0.026 0.321,-0.5111 0.3209,-0.5109 -0.3972,0.2179 c -0.218,0.1206 -0.5557,0.3387 -0.7499,0.4853 z m -8.1345,-12.715 c -1.2683,-0.098 -1.2704,-0.097 -1.6667,0.2486 -0.6354,0.5544 -0.621,0.6179 0.1439,0.644 0.3813,0.013 1.2092,0.1128 1.84,0.2218 l 1.1469,0.1979 -0.042,-0.4948 c -0.023,-0.272 -0.066,-0.5454 -0.097,-0.6073 -0.031,-0.062 -0.6271,-0.1566 -1.3255,-0.2102 z m 3.3637,4.8392 c -0.2166,-0.2619 -0.4607,-0.4804 -0.5426,-0.4856 -0.2642,-0.017 -1.7051,0.2734 -1.7206,0.3461 -0.01,0.039 0.61,0.2667 1.3743,0.5064 1.7451,0.5473 1.7359,0.5455 1.4854,0.3042 -0.1118,-0.107 -0.3796,-0.4093 -0.5965,-0.6711 z m -3.1915,-3.3807 c -0.7565,-0.1439 -1.7028,-0.2653 -2.1015,-0.277 l -0.725,-0.021 -1.2038,1.0184 c -0.6618,0.5605 -1.1746,1.0399 -1.139,1.0662 0.035,0.027 0.9443,0.2481 2.0194,0.4928 l 1.9549,0.4449 1.6765,-0.2828 c 0.922,-0.1556 1.6666,-0.3221 1.6544,-0.3702 -0.024,-0.094 -0.6128,-1.5191 -0.7041,-1.7035 -0.03,-0.062 -0.6748,-0.227 -1.4318,-0.3677 z m 14.235,20.5851 c -2.2246,0.6633 -3.7454,0.9268 -5.1603,0.8942 -0.3938,-0.01 -1.1407,0.085 -1.6598,0.2095 -0.5191,0.1242 -1.5268,0.318 -2.2393,0.4303 l -1.2952,0.2043 -0.6933,0.5824 c -0.3814,0.3201 -1.0799,0.8343 -1.5521,1.1431 l -0.8579,0.5625 1.2329,0.2369 c 0.6781,0.1303 1.7947,0.2948 2.4811,0.3663 1.4194,0.1471 1.7044,0.081 3.9044,-0.9021 1.5756,-0.7043 6.1591,-3.4811 6.0428,-3.6609 -0.039,-0.056 -0.1282,-0.087 -0.202,-0.064 z m -5.9683,-7.174 c -0.5296,0.8301 -2.0683,2.8086 -2.3014,2.9592 -0.074,0.051 -0.1148,0.1234 -0.087,0.1661 0.051,0.074 2.6671,-0.5407 2.8383,-0.6677 0.043,-0.042 0.048,-0.3871 7e-4,-0.7817 -0.047,-0.3946 -0.016,-1.1184 0.068,-1.6083 0.083,-0.4903 0.1155,-0.8826 0.069,-0.8726 -0.047,0.01 -0.3111,0.3724 -0.5874,0.8054 z m 2.9133,4.6512 c -0.7137,0.05 -0.8187,0.082 -0.6973,0.2083 0.1562,0.1623 0.5803,0.1365 1.3325,-0.081 0.5982,-0.1732 0.4465,-0.2034 -0.6352,-0.1277 z m -3.6043,-6.188 c -0.5066,-0.092 -0.6848,-0.072 -0.9823,0.1169 -0.2025,0.1232 -0.6307,0.348 -0.9573,0.4905 -0.3268,0.1424 -0.598,0.2788 -0.6033,0.3023 -0.01,0.043 3.0709,-0.6183 3.1659,-0.6798 0.1115,-0.065 -0.029,-0.1208 -0.6232,-0.2302 z m -6.1106,-7.8703 -1.4133,-0.4491 -0.9426,0.3939 c -0.5183,0.2167 -0.9746,0.4274 -1.0137,0.4681 -0.038,0.041 -0.1487,0.088 -0.2425,0.1071 -0.2223,0.042 -2.0645,0.9014 -3.3352,1.5561 -1.0795,0.5563 -3.9584,2.3792 -3.8084,2.4114 0.05,0.01 0.64,-0.2304 1.3097,-0.5361 0.6697,-0.3056 1.7024,-0.7433 2.2948,-0.9723 1.0191,-0.3943 4.694,-1.5061 5.2017,-1.5738 0.13,-0.017 0.7664,-0.1484 1.4144,-0.2913 0.6482,-0.1431 1.4558,-0.3144 1.7947,-0.3809 0.7152,-0.1403 0.8474,-0.063 -1.2594,-0.7327 z m 11.4861,16.2021 c -0.2235,-0.041 -0.8125,0.092 -1.7066,0.385 -0.7983,0.2616 -1.2599,0.4537 -1.1117,0.4626 0.5873,0.036 3.2974,-0.5728 3.2028,-0.7191 -0.025,-0.036 -0.1967,-0.094 -0.3844,-0.1288 z m -15.2685,-23.2867 c -0.3615,-0.2343 -1.0511,-0.7509 -1.5327,-1.1482 -0.8097,-0.6679 -0.9141,-0.7217 -1.387,-0.7167 -0.805,0.01 -2.7053,0.1679 -2.7182,0.2274 -0.01,0.031 0.4503,0.2686 1.0146,0.5309 0.5644,0.2623 1.6836,0.8333 2.4872,1.2687 1.6541,0.8964 2.1248,1.0041 2.5645,0.5865 0.1494,-0.1412 0.2615,-0.2723 0.2501,-0.29 -0.013,-0.018 -0.3169,-0.2245 -0.6785,-0.4586 z m 8.1394,16.2034 c -1.7451,0.3894 -3.2212,0.8162 -4.5043,1.3027 -0.7115,0.2699 -0.8476,0.3495 -0.8446,0.495 0.01,0.3519 0.7595,1.8152 1.1737,2.2827 l 0.4076,0.4603 1.2394,-0.3558 c 1.1866,-0.3406 1.2596,-0.3756 1.714,-0.8197 0.6234,-0.6095 1.7747,-2.0503 2.3673,-2.9626 0.5786,-0.8907 0.6042,-0.884 -1.5532,-0.4027 z m 5.7059,6.418 c -0.4098,-0.2466 -0.5176,-0.2501 -1.6055,-0.054 -0.6414,0.116 -1.6696,0.2286 -2.285,0.2504 -1.0804,0.038 -1.13,0.051 -1.452,0.382 -0.1836,0.188 -0.312,0.3757 -0.2857,0.416 0.027,0.039 0.5754,0.1903 1.2207,0.3328 1.1189,0.2473 1.2156,0.2467 2.0815,0 1.027,-0.2974 2.5752,-0.8151 2.7227,-0.9105 0.135,-0.081 0.1098,-0.1088 -0.3968,-0.4132 z m -7.0308,-8.4653 c -1.1458,-0.3541 -1.2707,-0.3418 -2.2032,0.2164 -0.3173,0.1906 -0.2979,0.1577 0.1393,-0.2309 0.28,-0.2486 0.4906,-0.4786 0.4682,-0.5108 -0.022,-0.032 -0.1712,-0.1049 -0.3306,-0.1614 -0.2844,-0.101 -0.3113,-0.087 -1.4147,0.7227 l -1.125,0.8253 0.082,0.9667 c 0.045,0.5318 0.1212,0.9853 0.1689,1.008 0.2636,0.1252 3.6648,-0.9838 4.9138,-1.6023 0.2934,-0.1461 0.7087,-0.3442 0.9222,-0.4416 l 0.3878,-0.1774 -0.4653,-0.1409 c -0.2559,-0.078 -0.9506,-0.2908 -1.5438,-0.4741 z m -11.0674,-19.0424 c -0.073,0.051 -0.1095,0.1282 -0.077,0.1783 0.034,0.048 0.1192,0.051 0.1941,0 0.073,-0.051 0.1095,-0.1281 0.077,-0.178 -0.034,-0.048 -0.1193,-0.051 -0.1942,0 z m 13.6781,24.5841 -1.7579,0.4182 -0.8275,0.7548 -0.8275,0.7547 0.3402,0.062 c 0.1871,0.034 0.5451,0.023 0.7958,-0.024 0.2505,-0.047 0.9197,-0.1541 1.4872,-0.2375 l 1.0315,-0.1517 0.8305,-0.8852 c 0.4992,-0.532 0.8017,-0.93 0.7581,-0.9973 -0.043,-0.062 -0.8412,0.071 -1.8304,0.306 z m 4.8139,6.5538 c -0.9218,0.5824 -1.6811,1.6167 -2.2462,3.0583 -0.9023,2.3016 -2.2113,4.6888 -3.4817,6.3494 -0.6753,0.8826 -0.6432,0.9104 0.4178,0.3605 1.5816,-0.8195 3.8008,-3.1188 5.375,-5.569 0.3178,-0.4947 0.5544,-1.515 0.7918,-3.4153 0.1787,-1.4294 0.1728,-1.4348 -0.8567,-0.7839 z m -2.0943,-5.0141 c -0.014,0 -0.4292,0.031 -0.9334,0.069 -0.6688,0.051 -0.9753,0.1263 -1.1338,0.279 -0.1193,0.1155 -0.1991,0.2377 -0.176,0.2731 0.05,0.072 2.0311,-0.097 2.4116,-0.2066 0.2282,-0.066 0.233,-0.091 0.051,-0.2435 -0.1112,-0.094 -0.2105,-0.1704 -0.2194,-0.171 z m -16.1513,-25.051 -0.3447,-0.5328 -0.502,0.4049 c -0.5795,0.4669 -1.8148,1.7642 -1.7589,1.8472 0.021,0.03 0.855,-0.03 1.8537,-0.1339 l 1.816,-0.1898 -0.3588,-0.432 c -0.1974,-0.2375 -0.5147,-0.6711 -0.7042,-0.9641 z m 15.2149,24.2718 c -0.7408,0.7026 -0.7403,0.706 0.081,0.6203 l 0.7506,-0.078 -0.2671,-0.4121 -0.267,-0.4118 z m -16.8755,-25.2122 c -1.2483,0.1357 -3.2231,0.5377 -4.397,0.8952 -1.6359,0.4982 -1.6199,0.4518 -0.2553,0.7452 0.6769,0.1456 1.7306,0.4383 2.3412,0.6503 l 1.1107,0.3856 0.6079,-0.7014 c 0.3344,-0.3858 0.8731,-0.9383 1.1971,-1.228 0.8201,-0.7325 0.6943,-0.8879 -0.6048,-0.7468 z m 23.0139,41.2972 c -1.3428,0.605 -3.0979,1.2162 -4.3429,1.5125 l -1.2232,0.2911 -0.8183,0.8743 c -0.5148,0.5499 -0.7547,0.8703 -0.6466,0.8634 0.3699,-0.024 2.556,-0.7645 3.6706,-1.2438 1.742,-0.7492 4.0379,-2.0501 5.5173,-3.1265 l 1.2646,-0.9196 -1.3382,0.7066 c -0.7364,0.3883 -1.6735,0.8577 -2.0832,1.0421 z m -19.8276,-34.2924 c -1.7545,0.5309 -4.8474,1.7994 -4.6727,1.9165 0.034,0.024 0.328,0.084 0.6515,0.1351 0.5878,0.093 0.5893,0.092 1.4187,-0.4443 0.881,-0.57 1.9808,-1.023 2.8377,-1.1692 0.3968,-0.068 0.6158,-0.1709 0.9213,-0.4339 0.2201,-0.1902 0.344,-0.3575 0.2749,-0.3719 -0.07,-0.013 -0.7133,0.1507 -1.4314,0.3679 z m -0.4981,-2.0701 c -0.6711,-0.37 -1.7288,-0.9126 -2.3507,-1.2057 -1.2015,-0.5666 -1.7065,-0.6367 -1.9119,-0.2652 -0.063,0.1129 -0.1684,0.2387 -0.2349,0.2794 -0.07,0.036 -0.058,-0.042 0.017,-0.1845 0.1331,-0.2492 0.1087,-0.2527 -0.7076,-0.1025 -1.0872,0.2001 -3.077,0.7476 -3.0997,0.8529 -0.051,0.2387 2.0953,1.1445 3.5671,1.5054 0.8445,0.2072 1.2354,0.2243 2.5892,0.097 0.8768,-0.081 1.9787,-0.1559 2.4488,-0.1672 0.8109,-0.02 0.9671,-0.038 0.9222,-0.1072 -0.011,-0.016 -0.5684,-0.3326 -1.2394,-0.7026 z m -0.2111,1.3121 c -2.5522,0.095 -5.747,0.5151 -5.8692,0.7725 -0.023,0.049 -0.077,0.065 -0.1256,0.027 -0.241,-0.1794 -3.3626,0.9494 -4.0135,1.4513 l -0.3186,0.2449 0.741,-0.044 c 0.9975,-0.06 2.0411,-0.038 3.58,0.075 l 1.2841,0.094 1.0162,-0.5029 c 1.6016,-0.7928 4.2954,-1.8349 5.2784,-2.0421 0.4945,-0.1042 -0.077,-0.1325 -1.5734,-0.077 z m 7.0582,11.096 c -0.1282,0.1131 -0.1175,0.141 0.083,0.2171 0.1954,0.074 0.2911,0.033 0.6325,-0.2717 l 0.4023,-0.3589 -0.4857,0.1414 c -0.267,0.078 -0.5516,0.2 -0.6325,0.2716 z m -6.3676,-5.768 c -0.3706,0.012 -1.152,0.016 -1.7365,0.01 l -1.0625,-0.014 -1.4668,1.1499 c -0.8065,0.6328 -1.5839,1.2078 -1.7269,1.2788 -0.1436,0.07 0.2622,-0.4017 0.9011,-1.0498 0.6387,-0.6484 1.2083,-1.2359 1.2657,-1.3055 0.072,-0.086 -0.1675,-0.1716 -0.7502,-0.2677 -0.47,-0.077 -0.8966,-0.1167 -0.948,-0.087 -0.054,0.025 -0.2687,-0.02 -0.4828,-0.1105 -0.2142,-0.09 -0.6894,-0.2255 -1.0561,-0.3007 l -0.6669,-0.1366 -0.6642,0.5897 c -0.365,0.3246 -0.8802,0.8471 -1.1441,1.1617 -0.6198,0.739 -1.4059,2.0096 -1.3647,2.2058 0.069,0.3294 3.8992,2.3099 4.7281,2.4449 0.2397,0.037 0.3312,-0.011 0.7372,-0.3974 1.4424,-1.3722 4.1696,-3.0893 7.2309,-4.5525 0.8351,-0.3991 1.5787,-0.7662 1.6526,-0.8156 0.068,-0.059 -0.5197,-0.03 -1.319,0.043 -0.7992,0.073 -1.7563,0.1427 -2.1269,0.155 z m 21.6042,32.0479 c -1.3996,1.3562 -3.1161,2.7809 -4.2541,3.531 -0.8288,0.5473 -0.8432,0.5609 -0.4661,0.4996 1.0763,-0.1766 4.7274,-1.5986 5.6713,-2.2091 0.4189,-0.2706 0.4243,-0.2817 0.2928,-0.69 -0.1282,-0.3988 -0.1676,-1.8684 -0.056,-2.1028 0.1264,-0.2662 -0.1092,-0.073 -1.1876,0.9713 z m -21.097,-33.3828 -1.3816,-0.2886 -0.5322,0.466 c -0.2927,0.2562 -0.5721,0.4935 -0.6202,0.528 -0.1438,0.1 1.3372,0.065 2.8869,-0.07 1.6875,-0.1471 1.6486,-0.2172 -0.3533,-0.6348 z m -1.5052,-2.2085 c -0.3282,0.108 -0.9197,0.406 -1.3148,0.6617 l -0.7183,0.4646 0.2956,0.079 c 0.1626,0.044 0.5189,0.1015 0.7919,0.1277 l 0.4962,0.048 0.8617,-0.812 c 0.4742,-0.4464 0.8823,-0.8302 0.9074,-0.8521 0.099,-0.087 -0.7565,0.097 -1.3198,0.2831 z m 16.3163,23.8066 c -0.063,0.086 -0.081,0.1644 -0.04,0.1731 0.042,0.01 0.1262,-0.055 0.1881,-0.1425 0.063,-0.086 0.081,-0.1643 0.041,-0.1729 -0.042,-0.01 -0.1262,0.054 -0.1882,0.1425 z m -5.1692,-5.3853 c -0.2055,0.036 -0.3613,0.086 -0.3465,0.1086 0.015,0.022 0.4063,0.059 0.8698,0.08 0.7951,0.036 1.1672,-0.054 1.2192,-0.2963 0.018,-0.1002 -0.9033,-0.042 -1.7425,0.1073 z m -4.1991,-8.7725 c -0.2001,-0.064 -0.4994,-0.06 -0.6652,0.012 -0.2631,0.1128 -0.3069,0.2004 -0.3419,0.6987 -0.022,0.3136 -0.015,0.5756 0.017,0.5823 0.095,0.017 1.4339,-1.054 1.3924,-1.1173 -0.022,-0.031 -0.2019,-0.1109 -0.4019,-0.1752 z m 9.8324,19.3219 c -1.6349,2.0597 -2.6637,2.9245 -5.2478,4.4121 -0.9626,0.5536 -1.07,0.7532 -0.4823,0.8524 0.4951,0.084 1.502,-0.341 4.7635,-2.0213 0.5251,-0.2699 0.5458,-0.2976 0.9221,-1.2014 0.3952,-0.9487 1.1817,-3.3061 1.1084,-3.3219 -0.022,0 -0.5014,0.5713 -1.0639,1.2801 z m -4.1147,-2.9468 c -3.1974,2.0806 -5.7823,3.5013 -7.7655,4.2675 l -0.2899,0.112 0.3476,0.3965 c 0.6269,0.7148 0.6291,0.7152 1.6978,0.3266 2.1405,-0.778 3.6211,-1.6817 5.8515,-3.5712 2.2771,-1.9292 3.3136,-3.0472 3.1129,-3.3575 -0.026,-0.037 -1.3538,0.7844 -2.9546,1.8262 z m -0.1804,-5.1021 c -0.3411,-0.099 -0.7323,-0.2259 -0.8693,-0.2816 -0.2288,-0.093 -0.2835,-0.068 -0.6743,0.3107 -0.8548,0.8275 -0.8333,0.7999 -0.6065,0.7854 0.2197,-0.014 2.7244,-0.4915 2.7854,-0.5309 0.081,-0.056 -0.047,-0.1123 -0.6353,-0.2836 z m -6.9791,-11.058 c -0.1064,0.044 -0.8318,0.2117 -1.6121,0.3708 -1.4785,0.3016 -3.0724,0.4369 -4.4482,0.3776 -0.5104,-0.022 -0.9889,0.039 -1.303,0.1664 -0.476,0.193 -0.4829,0.192 -0.1692,-0.024 l 0.327,-0.2259 -0.8048,-0.1463 c -0.4429,-0.08 -1.1803,-0.2713 -1.6395,-0.4214 -0.9496,-0.3095 -0.9383,-0.3147 -1.6159,0.7583 -0.4751,0.7525 -0.7571,1.8036 -0.6966,2.5968 0.047,0.6219 0.4931,2.1008 0.7554,2.5063 0.1725,0.2667 0.3392,0.2553 1.8941,-0.1299 0.9032,-0.2238 0.9036,-0.224 0.646,-0.3048 -0.2917,-0.091 -0.1654,-0.1317 0.5591,-0.1796 0.5656,-0.037 2.3521,-0.6131 2.8004,-0.903 0.1308,-0.078 0.094,-0.1137 -0.2054,-0.1877 -0.488,-0.1204 -0.3375,-0.1861 0.2815,-0.122 0.4402,0.046 0.636,-0.011 1.4782,-0.4293 0.5336,-0.265 1.6386,-0.9056 2.4553,-1.4235 l 1.4847,-0.942 0.089,-0.6344 c 0.094,-0.6757 0.034,-0.8289 -0.276,-0.6986 z m -10.8276,-15.5458 c -0.6801,-0.2212 -1.7199,-0.4853 -2.3107,-0.5869 -0.8598,-0.1478 -1.1572,-0.148 -1.4908,0 -0.2292,0.1028 -0.5705,0.2511 -0.7583,0.3296 l -0.3415,0.1428 0.3476,0.4019 c 0.1909,0.2211 0.6232,0.6414 0.9604,0.9342 0.58,0.5038 0.6338,0.5259 0.9976,0.4121 0.2116,-0.066 0.4355,-0.1528 0.4977,-0.1926 0.1047,-0.06 2.7336,-0.7716 3.2241,-0.8655 0.3406,-0.065 0.1525,-0.1616 -1.1258,-0.5773 z m 8.7146,14.8404 c -0.966,0.1164 -2.8618,0.6327 -3.0118,0.8201 -0.2026,0.2535 4.2795,-0.4721 4.696,-0.7599 0.2018,-0.1395 -0.7453,-0.1736 -1.6842,-0.06 z m 6.7588,10.2479 c -0.025,0.017 0.2074,0.1817 0.517,0.3672 0.5076,0.3047 0.5816,0.3177 0.7585,0.1313 0.1071,-0.1131 0.2148,-0.24 0.2378,-0.2839 0.04,-0.074 -1.4118,-0.2812 -1.5126,-0.2165 z m -1.1375,-2.0093 c -0.3365,0.1027 -0.6899,0.2033 -0.7853,0.2234 -0.1181,0.025 -0.1417,0.086 -0.063,0.2068 0.1675,0.2595 0.6437,0.4142 0.7854,0.2557 0.068,-0.076 0.3047,-0.2937 0.5256,-0.4832 0.4753,-0.4082 0.3666,-0.4558 -0.4623,-0.2025 z m 5.2267,9.4344 c -1.4848,1.6063 -2.6179,2.5766 -4.2063,3.602 -1.1863,0.7669 -1.7028,1.0435 -2.5188,1.351 -0.5644,0.213 -1.0311,0.4101 -1.037,0.4379 0,0.028 0.2615,0.2422 0.5948,0.476 0.7695,0.5406 2.1855,1.1478 2.5751,1.1041 0.1645,-0.018 0.2433,0 0.1756,0.048 -0.1036,0.06 -0.084,0.094 0.078,0.1439 0.2115,0.066 0.7145,-0.1872 0.5376,-0.2714 -0.057,-0.028 0.031,-0.132 0.1938,-0.234 0.734,-0.4572 2.8778,-3.874 3.8856,-6.1921 0.2915,-0.6705 0.5089,-1.2236 0.4833,-1.2291 -0.026,-0.01 -0.3681,0.3377 -0.761,0.7627 z m -8.0986,-12.7564 c 0.031,0.1447 0.069,0.1399 0.5146,-0.068 l 0.394,-0.1841 -0.4652,0.074 c -0.2558,0.041 -0.4552,0.1207 -0.4435,0.1777 z m -9.3107,-12.0184 c -0.4211,0.3621 -0.7713,0.6864 -0.7786,0.7202 -0.01,0.033 0.3946,0.091 0.893,0.1278 l 0.9063,0.066 0.6602,-0.6337 0.6602,-0.6336 -0.788,-0.1529 -0.7878,-0.1528 z m 7.8104,10.4708 c -0.5546,0.3148 -1.3897,0.7858 -1.8559,1.0465 -0.9839,0.5508 -0.9739,0.5615 0.48,0.5132 1.2209,-0.04 2.5953,-0.2624 2.5582,-0.4132 -0.014,-0.059 -0.045,-0.442 -0.068,-0.8504 -0.023,-0.4086 -0.056,-0.7711 -0.074,-0.8057 -0.013,-0.037 -0.4862,0.1947 -1.0407,0.5096 z m 5.3998,7.2065 c -1.1858,-0.8182 -1.1654,-0.8202 -2.9189,0.2837 -0.818,0.5154 -1.7102,1.0346 -1.9822,1.1549 l -0.4947,0.2185 1.6097,0.2165 c 1.8057,0.2431 3.0341,0.2799 3.3137,0.099 0.4057,-0.2628 1.4002,-1.3407 1.2978,-1.4074 -0.058,-0.038 -0.4297,-0.2923 -0.8254,-0.5654 z m -5.1691,-5.5759 c -0.5335,0.066 -1.5175,0.1171 -2.1867,0.1126 -1.1394,-0.01 -1.2877,0.021 -2.3337,0.4447 -0.6145,0.2489 -1.1218,0.4742 -1.1274,0.5005 0,0.026 0.3866,0.096 0.8723,0.152 0.4852,0.059 1.2782,0.2419 1.7623,0.4076 l 0.8801,0.3009 1.2145,-0.6999 c 0.6681,-0.3848 1.4039,-0.7862 1.6355,-0.8916 0.6968,-0.317 0.3742,-0.4654 -0.7163,-0.3297 z m -9.7644,-16.1091 c -0.2362,-0.03 -0.4064,-0.067 -0.3774,-0.088 0.028,-0.019 -0.2778,-0.1584 -0.6807,-0.3111 -0.4029,-0.1526 -1.1121,-0.4932 -1.5757,-0.7569 l -0.8432,-0.4794 -0.7303,0.3136 c -0.9995,0.4294 -2.5191,1.3106 -3.0976,1.7961 l -0.4783,0.4018 0.2761,0.2916 c 0.1514,0.1607 0.601,0.5243 0.9984,0.8087 l 0.7224,0.517 0.7281,-0.3887 c 1.4705,-0.7854 3.6419,-1.5594 5.048,-1.7995 0.625,-0.1067 0.6292,-0.2271 0.011,-0.3051 z m 10.5183,16.7941 c -0.2082,0.087 -0.8586,0.4338 -1.4457,0.7699 l -1.0675,0.6109 0.5872,0.2495 c 0.3231,0.1371 1.2247,0.4863 2.004,0.7758 1.0551,0.3922 1.4671,0.4935 1.6143,0.3975 0.1923,-0.1209 0.1741,-0.1667 -0.4138,-1.1109 -0.3364,-0.5401 -0.6505,-1.1298 -0.6983,-1.3106 -0.1379,-0.522 -0.1806,-0.55 -0.5802,-0.3821 z m -10.3222,-13.4532 c -0.6969,0.3405 -1.4563,0.8421 -1.402,0.926 0.026,0.038 0.4671,0.159 0.9825,0.2672 l 0.9369,0.1966 0.7073,-0.6544 c 0.3893,-0.3597 0.7314,-0.6726 0.7608,-0.6947 0.024,-0.029 -0.2935,-0.095 -0.7174,-0.1614 -0.644,-0.1014 -0.8523,-0.082 -1.268,0.1214 z m 12.3434,16.43 c -0.049,0.034 -0.079,0.076 -0.064,0.098 0.015,0.021 0.083,0.039 0.1523,0.037 0.069,0 0.099,-0.045 0.064,-0.099 -0.035,-0.051 -0.1027,-0.069 -0.1523,-0.037 z m -0.6704,0.7579 c -0.4579,-0.1571 -0.9155,-0.2623 -1.0167,-0.2333 -0.5882,0.1669 -3.3966,1.3433 -4.2435,1.7774 -1.2258,0.6287 -1.4691,0.7832 -1.3613,0.865 0.046,0.035 0.5964,0.097 1.2227,0.1389 0.6264,0.041 1.3857,0.1001 1.6874,0.1305 0.4644,0.047 0.6757,-0.01 1.3764,-0.345 0.8453,-0.4091 3.2531,-1.915 3.1981,-2.0001 -0.018,-0.025 -0.4052,-0.1757 -0.863,-0.3329 z m 7.279,14.9137 c -0.7003,0.335 -1.4085,0.6676 -1.5739,0.7392 -0.2423,0.1046 -0.1282,0.1302 0.5894,0.1317 0.4894,8e-4 1.0862,-0.028 1.3264,-0.065 0.4329,-0.066 0.4403,-0.072 0.8937,-0.7877 0.5478,-0.8645 0.5339,-0.8647 -1.2357,-0.018 z m -6.6613,-11.4698 c -0.467,-0.05 -1.4088,-0.1662 -2.0931,-0.2566 -1.2046,-0.1591 -1.2715,-0.1537 -2.1147,0.1744 -0.4789,0.1866 -1.1075,0.4028 -1.3967,0.4807 -0.2891,0.078 -0.5338,0.1783 -0.5433,0.2232 -0.042,0.1984 2.5566,1.1722 4.0686,1.5243 l 0.7653,0.1785 0.6524,-0.4214 c 0.6402,-0.4142 1.8446,-1.3919 2.0482,-1.6625 0.081,-0.1074 0.034,-0.1388 -0.2169,-0.1429 -0.1762,0 -0.7025,-0.047 -1.1695,-0.097 z m 2.2172,4.2014 c -1.5314,0.3525 -3.2213,0.5643 -5.5265,0.6932 -1.0718,0.06 -1.9724,0.1241 -2.0013,0.1428 -0.028,0.019 0.2741,0.5398 0.6742,1.1577 l 0.7271,1.1237 0.618,-0.1846 c 2.062,-0.616 5.021,-1.9018 6.2816,-2.7295 0.9058,-0.5945 0.9157,-0.5929 -0.7726,-0.2033 z m -15.9901,-25.2706 c -1.4979,-0.1196 -3.4923,-0.1451 -3.6445,-0.047 -0.1306,0.078 0.923,0.5668 2.2286,1.0273 l 0.9944,0.3508 0.8932,-0.5772 c 0.4913,-0.3172 0.8827,-0.5932 0.8691,-0.6141 -0.014,-0.02 -0.6163,-0.083 -1.3414,-0.1409 z m -4.2377,-7.3574 c -0.064,0.044 -0.079,0.1374 -0.031,0.2122 0.055,0.097 0.1789,0.075 0.3799,-0.057 0.2778,-0.1803 0.2786,-0.193 0.031,-0.2122 -0.1435,-0.01 -0.3146,0.015 -0.3797,0.057 z m 14.5061,23.8068 c -0.8571,-0.3839 -1.5801,-0.7043 -1.6068,-0.712 -0.028,-0.01 -0.5178,0.3585 -1.0953,0.8084 -1.0227,0.8044 -1.0482,0.833 -1.1102,1.2762 -0.053,0.3772 -0.048,1.853 0.01,1.9369 0.01,0.013 0.4512,-0.2201 0.9831,-0.5196 0.8447,-0.4756 3.3719,-1.6258 4.1688,-1.8972 0.1529,-0.051 0.2623,-0.1172 0.2444,-0.145 -0.019,-0.027 -0.7337,-0.3643 -1.5909,-0.7482 z m 5.6695,7.9968 c -0.2891,-0.038 -1.2193,-0.2045 -2.0675,-0.3691 l -1.5418,-0.302 -0.8717,0.3543 c -0.9494,0.3855 -2.3476,0.8071 -2.3247,0.7009 0.01,-0.036 0.4609,-0.2146 1.007,-0.3953 0.546,-0.1809 1.1881,-0.416 1.4269,-0.5224 l 0.434,-0.1935 -1.2379,-0.3866 c -1.0663,-0.3329 -2.2699,-0.817 -3.4481,-1.3872 -0.4994,-0.2416 -0.5727,-0.063 -0.3212,0.7849 0.3982,1.3432 0.7669,2.2122 0.9376,2.211 0.1106,0 0.1182,0.021 0.033,0.077 -0.077,0.053 -0.046,0.1688 0.097,0.348 0.1773,0.2227 0.3236,0.2653 0.8387,0.2435 1.4371,-0.061 4.2835,-0.322 5.1175,-0.4695 1.1792,-0.2083 2.514,-0.5197 2.4766,-0.5776 -0.017,-0.025 -0.2663,-0.077 -0.5551,-0.1152 z m -18.7298,-29.4922 c -0.1446,-0.1051 -0.5354,-0.5053 -0.8697,-0.8886 l -0.608,-0.6969 -0.5753,0.2902 c -0.3169,0.1587 -1.1738,0.6707 -1.905,1.1359 -1.306,0.8303 -1.328,0.8504 -1.2524,1.0846 0.099,0.3068 0.7829,1.3699 1.0723,1.6694 l 0.224,0.2303 1.503,-0.9801 c 0.8255,-0.5413 1.7807,-1.1089 2.1186,-1.268 0.3381,-0.1587 0.6009,-0.3103 0.5835,-0.3371 -0.018,-0.026 -0.149,-0.1344 -0.2929,-0.2399 z m -2.1596,-2.2138 c -0.5091,0.1029 -1.5169,0.473 -2.3392,0.8591 -1.1925,0.5599 -1.2014,0.5686 -1.0991,1.09 0.049,0.2516 0.1219,0.5075 0.1616,0.5687 0.057,0.082 0.525,-0.179 1.9308,-1.0792 1.702,-1.0888 1.8504,-1.2038 1.7583,-1.346 -0.05,-0.09 -0.2405,-0.1272 -0.4124,-0.092 z m 24.3048,41.548 c -0.5315,0.023 -1.3613,-8e-4 -1.8438,-0.054 -1.1209,-0.1226 -1.742,0.063 -3.1052,0.9277 -0.5627,0.3569 -1.0055,0.6758 -0.9844,0.7086 0.053,0.094 1.5994,0.3346 2.4444,0.3869 0.4122,0.026 1.1931,0 1.7352,-0.047 0.8889,-0.084 1.024,-0.1264 1.3753,-0.4296 0.6613,-0.5711 1.4394,-1.3899 1.3911,-1.4645 -0.027,-0.039 -0.4808,-0.052 -1.0124,-0.029 z m -20.9736,-32.96 c -0.6891,-0.2532 -2.3427,-1.045 -2.6332,-1.2611 -0.1296,-0.096 -0.2383,-0.05 -0.6498,0.2715 -0.6564,0.5129 -2.7881,2.3618 -2.8028,2.4299 -0.01,0.029 0.083,0.102 0.1918,0.1662 0.1121,0.062 0.9254,0.6804 1.8078,1.3745 0.8823,0.694 1.6259,1.2666 1.6524,1.2723 0.026,0 0.2815,-0.373 0.5666,-0.8418 0.6127,-1.0067 1.2394,-1.7773 2.0424,-2.5117 0.3212,-0.2942 0.5678,-0.5598 0.5477,-0.5908 -0.021,-0.03 -0.3455,-0.17 -0.7232,-0.3088 z m 9.5092,19.0594 c -0.7494,-0.06 -1.3684,-0.082 -1.3756,-0.048 -0.01,0.033 0.021,0.2473 0.062,0.4756 0.1279,0.7103 0.4334,0.6978 2.5946,-0.1086 0.4174,-0.1556 0.2585,-0.1948 -1.2809,-0.3185 z m -8.5957,-10.7726 c -0.6738,0.3487 -1.8503,0.9163 -2.6142,1.262 -0.7639,0.3457 -1.4762,0.6718 -1.583,0.7248 -0.1066,0.053 -0.2706,0.112 -0.3638,0.1316 -0.093,0.02 -0.4575,0.1254 -0.8094,0.2356 -0.3518,0.1103 -1.022,0.2563 -1.4894,0.3245 l -0.8496,0.1238 0.2176,0.337 c 0.5273,0.8159 1.6961,1.6385 2.9708,2.0914 0.9273,0.3296 1.8249,0.466 3.1116,0.4727 0.8826,0 2.4398,-0.1062 2.5569,-0.182 0.02,-0.014 -0.085,-0.277 -0.2344,-0.5857 -0.4006,-0.8279 -0.6974,-2.0222 -0.6774,-2.7255 0.019,-0.6755 0.4416,-1.9214 0.8203,-2.4197 0.1314,-0.1737 0.2236,-0.3396 0.2042,-0.3695 -0.02,-0.029 -0.5865,0.2308 -1.2604,0.5793 z m 6.5584,8.3564 c -0.1192,0.1155 -0.4659,0.4383 -0.7707,0.717 l -0.5543,0.5058 0.3535,0.4261 c 0.2534,0.3061 0.44,0.4335 0.6607,0.4516 0.4426,0.036 0.4911,-0.026 0.4862,-0.6299 0,-0.298 0.026,-0.7636 0.063,-1.0344 0.084,-0.6148 0.036,-0.7038 -0.2379,-0.4367 z m 6.768,14.4517 c -0.4188,-0.3044 -0.8003,-0.6136 -0.8478,-0.6869 -0.049,-0.072 -0.1572,-0.1321 -0.2446,-0.1304 -0.2537,0 -3.1137,0.5669 -3.2235,0.634 -0.2617,0.1606 1.4696,1.804 2.6949,2.5582 0.8025,0.4939 0.5606,0.5035 2.7468,-0.1093 0.6568,-0.1841 1.3453,-0.4319 1.53,-0.5506 l 0.3355,-0.2165 -1.1151,-0.4726 c -0.6131,-0.2599 -1.4576,-0.7218 -1.8765,-1.0264 z m -6.7426,-12.0824 c -0.073,0.051 -0.096,0.1491 -0.048,0.2234 0.1512,0.236 0.2811,0.044 0.191,-0.2839 -3e-4,-0.018 -0.068,0.012 -0.1432,0.06 z m -0.1028,0.5658 c -0.1668,-0.1319 -0.3212,-0.2466 -0.3442,-0.2543 -0.078,-0.026 -1.3697,1.149 -1.3676,1.245 6e-4,0.052 0.3546,0.04 0.7855,-0.027 1.1194,-0.1754 1.2999,-0.2366 1.298,-0.44 0,-0.2233 -0.013,-0.239 -0.3738,-0.5221 z m -1.4872,-1.4618 c -0.2324,0.1487 -0.6166,0.5586 -0.5791,0.615 0.039,0.056 0.9698,0.03 1.0627,-0.03 0.026,-0.018 -0.042,-0.1748 -0.155,-0.3487 -0.1329,-0.2094 -0.2466,-0.2892 -0.329,-0.2359 z m 8.0747,15.9447 c -0.085,0.046 0,0.1186 0.2459,0.2181 0.3482,0.1383 0.4019,0.1243 0.9693,-0.2496 l 0.601,-0.3956 -0.8466,0.1779 c -0.4658,0.098 -0.9019,0.2102 -0.9694,0.2497 z m -2.4188,-5.5127 c -0.076,-0.014 -2.6018,0.8013 -2.7323,0.8856 -0.022,0.015 0.083,0.1917 0.2347,0.3934 l 0.2766,0.366 1.2814,-0.2989 c 1.9792,-0.4619 1.82,-0.3616 1.3964,-0.8808 -0.2,-0.2448 -0.4049,-0.4546 -0.4563,-0.4655 z m -4.0981,-3.7847 c -0.9038,-0.01 -1.6498,0.01 -1.6574,0.028 -0.011,0.021 0.4625,0.7151 1.0454,1.5392 l 1.0598,1.4985 0.6807,-0.1043 c 0.5748,-0.088 1.873,-0.3745 1.9634,-0.4329 0.015,-0.01 -0.1887,-0.3831 -0.4536,-0.8288 -0.2649,-0.4458 -0.5969,-1.0077 -0.7383,-1.2486 l -0.257,-0.4378 z m 0.7812,3.7661 c -0.076,0.053 0.1518,0.2807 0.2778,0.2782 0.1835,0 1.6085,-0.4761 1.7833,-0.5912 0.073,-0.051 -0.3521,0 -0.9474,0.102 -0.5952,0.1048 -1.0964,0.1999 -1.1137,0.211 z"
             style="opacity:1;fill:#8a5e26;fill-opacity:1;stroke:none;stroke-width:1.03821743;stroke-linecap:round;stroke-linejoin:round;stroke-miterlimit:4;stroke-dasharray:none;stroke-dashoffset:0;stroke-opacity:1" />
        </g>
        <g
           transform="matrix(0.7793471,-0.17644214,0.08411271,0.47448676,-583.76654,814.81334)"
           style="fill:#e9f1ee;fill-opacity:1"
           id="g5744">
          <path
             style="opacity:1;fill:#e9f1ee;fill-opacity:1;stroke:none;stroke-width:3.82450628;stroke-linecap:round;stroke-linejoin:round;stroke-miterlimit:4;stroke-dasharray:none;stroke-dashoffset:0;stroke-opacity:1"
             id="path5738"
             d="m -1610.4321,2002.2489 c -3.3441,1.0871 -6.4791,2.2712 -9.3658,3.5919 -3.5151,1.5324 -6.1869,3.3236 -8.3321,5.2795 -1.5724,1.4171 -2.0802,2.9575 -2.3162,4.5148 -0.2328,1.389 -0.1416,2.7689 0.3779,4.1413 0.7376,1.4903 1.7396,2.9403 3.235,4.3143 1.2564,1.1158 3.3868,1.5288 5.9019,1.8984 4.8354,0.7536 9.8731,1.1598 14.9375,1.4569 8.811,0.3969 17.6807,0.4185 26.5282,0.4496 7.9684,0.037 16.0372,-0.1543 23.7509,-1.0914 2.5206,-0.3312 4.8972,-0.8165 7.2481,-1.3299 0,0 -10.5768,3.7434 -10.5768,3.7434 v 0 c -2.3738,0.4678 -4.766,0.9167 -7.2928,1.2004 -7.7647,0.7891 -15.7675,0.9502 -23.7139,0.8924 -8.9483,-0.04 -17.9187,-0.05 -26.8325,-0.4414 -5.2004,-0.3086 -10.3727,-0.7261 -15.3589,-1.4717 -2.8345,-0.4455 -5.086,-1.065 -6.4458,-2.3147 -1.5282,-1.4241 -2.6082,-2.916 -3.4398,-4.4496 -0.6206,-1.4156 -0.7164,-2.8405 -0.5022,-4.2796 0.2203,-1.6237 0.5752,-3.2433 2.1468,-4.7393 2.1937,-2.0149 4.6344,-3.8731 8.2594,-5.4637 2.7318,-1.3364 5.687,-2.5622 9.0113,-3.6067 0,0 12.7798,-2.2949 12.7798,-2.2949 z"
             inkscape:connector-curvature="0" />
          <path
             style="opacity:1;fill:#e9f1ee;fill-opacity:1;stroke:none;stroke-width:3.33151603;stroke-linecap:round;stroke-linejoin:round;stroke-miterlimit:4;stroke-dasharray:none;stroke-dashoffset:0;stroke-opacity:1"
             id="path5740"
             d="m -1635.3445,2042.1692 c 0.5001,1.3885 1.6857,2.1904 3.6123,2.8832 2.8279,0.9152 6.0734,1.0959 9.4498,0.9835 6.2951,-0.4603 12.5883,-1.3671 18.8592,-2.2237 5.5984,-0.7772 11.1914,-1.5931 16.7853,-2.401 3.8644,-0.5465 7.7299,-1.0852 11.5961,-1.6199 5.8974,-0.8076 11.739,-1.9159 17.6046,-2.8884 5.76,-0.9199 2.8107,-0.4588 8.8483,-1.3804 0,0 -7.315,4.4129 -7.315,4.4129 v 0 c -6.0996,0.9713 -3.1212,0.4868 -8.9359,1.4512 -5.9574,1.0369 -11.894,2.1952 -17.8953,3.0234 -3.8654,0.5467 -7.7322,1.0835 -11.599,1.6203 -5.5149,0.7505 -11.0301,1.499 -16.5447,2.2514 -6.3973,0.873 -12.8174,1.8602 -19.24,2.3045 -3.5381,0.066 -6.9031,-0.2058 -9.8511,-1.1777 -2.2379,-0.8133 -3.3105,-1.6085 -4.1526,-3.1323 0,0 8.7776,-4.11 8.7776,-4.11 z"
             inkscape:connector-curvature="0" />
          <path
             inkscape:connector-curvature="0"
             d="m -1626.5192,2098.027 c -1.86,-0.5064 -3.3786,-1.2164 -4.4623,-2.1988 -1.4232,-1.088 -1.6498,-2.8085 -1.1249,-4.9283 0.3621,-1.5301 1.9572,-3.5685 3.8471,-5.7158 1.6634,-1.9083 3.6383,-3.9048 6.0313,-6.0243 2.7721,-2.3557 5.7535,-4.7365 9.1246,-7.163 2.7796,-1.9836 5.4738,-3.2377 8.4935,-4.55 5.8642,-2.5844 11.4564,-4.7365 16.9264,-6.7413 9.3528,-3.3169 18.252,-6.1168 27.1419,-8.9233 8.0189,-2.5405 15.8266,-4.7867 22.261,-5.8584 2.0685,-0.3146 3.7826,-0.3644 5.4326,-0.3662 0,0 -5.4665,-2.0367 -5.4665,-2.0367 v 0 c -1.7352,0.074 -3.5146,0.1805 -5.6541,0.5648 -6.6875,1.2987 -14.4704,3.5674 -22.4957,6.1307 -9.0029,2.8507 -17.9869,5.6655 -27.4351,9.0066 -5.6216,2.0636 -11.3639,4.2739 -17.3679,6.8939 -3.4427,1.5203 -6.5399,3.1067 -9.6057,5.3136 -3.4723,2.5081 -6.5889,4.973 -9.5141,7.4199 -2.5531,2.2126 -4.5941,4.2747 -6.3444,6.2603 -1.9963,2.2469 -3.8524,4.446 -4.323,6.0889 -0.5569,2.1888 -0.6529,4.0769 0.8007,5.2137 0.9075,1.0531 2.1893,1.8787 4.0877,2.3306 0,0 9.6469,-0.7169 9.6469,-0.7169 z"
             id="path5742"
             style="opacity:1;fill:#e9f1ee;fill-opacity:1;stroke:none;stroke-width:3.82450628;stroke-linecap:round;stroke-linejoin:round;stroke-miterlimit:4;stroke-dasharray:none;stroke-dashoffset:0;stroke-opacity:1" />
        </g>
      </g>
    </g>
  </g>
</svg>
