<svg id="b4150626-bbc4-41db-8b55-85ece964d287" data-name="SVGRoot" xmlns="http://www.w3.org/2000/svg" viewBox="0 0 300.00001 300.00002"><defs><style>.a42069aa-2b6e-488a-989b-0478c8cdaf0a{fill:#733f6c;}</style></defs><title>carte_unknow_illustrator</title><path class="a42069aa-2b6e-488a-989b-0478c8cdaf0a" d="M276.8-.1H23.2A23.21667,23.21667,0,0,0,0,23.1V276.7a23.21669,23.21669,0,0,0,23.2,23.2H276.8A23.21669,23.21669,0,0,0,300,276.7V23.1A23.2167,23.2167,0,0,0,276.8-.1Zm10.7,266.2a21.31745,21.31745,0,0,1-21.3,21.3H33.8a21.31748,21.31748,0,0,1-21.3-21.3V33.6A21.31748,21.31748,0,0,1,33.8,12.3H266.3a21.31746,21.31746,0,0,1,21.3,21.3V266.1Z" transform="translate(0.00001 0.1)"/></svg>