<?xml version="1.0" encoding="UTF-8" standalone="no"?>
<!-- Created with Inkscape (http://www.inkscape.org/) -->

<svg
   xmlns:osb="http://www.openswatchbook.org/uri/2009/osb"
   xmlns:dc="http://purl.org/dc/elements/1.1/"
   xmlns:cc="http://creativecommons.org/ns#"
   xmlns:rdf="http://www.w3.org/1999/02/22-rdf-syntax-ns#"
   xmlns:svg="http://www.w3.org/2000/svg"
   xmlns="http://www.w3.org/2000/svg"
   xmlns:sodipodi="http://sodipodi.sourceforge.net/DTD/sodipodi-0.dtd"
   xmlns:inkscape="http://www.inkscape.org/namespaces/inkscape"
   width="300"
   height="300"
   viewBox="0 0 300 300"
   version="1.1"
   id="SVGRoot"
   inkscape:version="0.92.3 (2405546, 2018-03-11)"
   sodipodi:docname="gardien-en-chef.svg">
  <sodipodi:namedview
     id="base"
     pagecolor="#ffffff"
     bordercolor="#666666"
     borderopacity="1.0"
     inkscape:pageopacity="0.0"
     inkscape:pageshadow="2"
     inkscape:zoom="1.4142136"
     inkscape:cx="240.33569"
     inkscape:cy="154.85797"
     inkscape:document-units="px"
     inkscape:current-layer="g5231"
     showgrid="false"
     inkscape:window-width="1280"
     inkscape:window-height="956"
     inkscape:window-x="0"
     inkscape:window-y="0"
     inkscape:window-maximized="1"
     inkscape:grid-bbox="true"
     fit-margin-top="0"
     fit-margin-left="0"
     fit-margin-right="0"
     fit-margin-bottom="0" />
  <defs
     id="defs7012">
    <linearGradient
       id="linearGradient2295"
       osb:paint="solid">
      <stop
         style="stop-color:#0000ff;stop-opacity:1;"
         offset="0"
         id="stop2293" />
    </linearGradient>
  </defs>
  <metadata
     id="metadata7015">
    <rdf:RDF>
      <cc:Work
         rdf:about="">
        <dc:format>image/svg+xml</dc:format>
        <dc:type
           rdf:resource="http://purl.org/dc/dcmitype/StillImage" />
        <dc:title />
      </cc:Work>
    </rdf:RDF>
  </metadata>
  <g
     id="layer1"
     inkscape:groupmode="layer"
     inkscape:label="Calque 1"
     transform="translate(165.43747,150.74999)">
    <g
       transform="matrix(3.7795276,0,0,3.7795276,1496.4512,-3806.2543)"
       style="opacity:1"
       id="g6414">
      <g
         inkscape:export-ydpi="96"
         inkscape:export-xdpi="96"
         inkscape:export-filename="/home/louise/Documents/TNCY/Club/teleGD/tgd-telekingdom/res/images/characters/unknown_card.png"
         transform="translate(68.28244,-111.97453)"
         id="g5231">
        <rect
           ry="6.1388469"
           y="1079.16"
           x="-507.99048"
           height="79.375"
           width="79.375"
           id="rect5225"
           style="opacity:1;fill:#733f6c;fill-opacity:1;stroke:none;stroke-width:2.55100012;stroke-linecap:round;stroke-linejoin:round;stroke-miterlimit:4;stroke-dasharray:none;stroke-dashoffset:0;stroke-opacity:1" />
        <rect
           style="opacity:1;fill:#fef2e4;fill-opacity:1;stroke:none;stroke-width:2.33841681;stroke-linecap:round;stroke-linejoin:round;stroke-miterlimit:4;stroke-dasharray:none;stroke-dashoffset:0;stroke-opacity:1"
           id="rect5227"
           width="72.760414"
           height="72.760414"
           x="-505.21234"
           y="1082.2358"
           ry="5.6272764" />
        <path
           style="fill:#d38d5f;fill-opacity:1;stroke:none;stroke-width:0.26458332px;stroke-linecap:butt;stroke-linejoin:miter;stroke-opacity:1"
           d="m -487.18324,1098.254 1.59524,-0.01 0.0184,39.8334 -1.75395,-2e-4 z"
           id="path2351"
           inkscape:connector-curvature="0"
           sodipodi:nodetypes="ccccc" />
        <path
           style="fill:#502d16;stroke:none;stroke-width:0.26458332px;stroke-linecap:butt;stroke-linejoin:miter;stroke-opacity:1"
           d="m -467.92308,1110.3828 -4.36563,-2.3374 -3.59098,10.6169 c -11.8935,0.1483 -25.24199,3.7159 -0.32198,4.3938 1.84061,0.1819 4.47207,-0.257 5.20486,-3.0475 z"
           id="path2347"
           inkscape:connector-curvature="0"
           sodipodi:nodetypes="cccccc" />
        <path
           style="fill:#5555ff;fill-opacity:1;stroke:none;stroke-width:0.26458332px;stroke-linecap:butt;stroke-linejoin:miter;stroke-opacity:1"
           d="m -479.22212,1142.8911 36.29521,-0.094 c -0.32744,-7.6572 -2.347,-16.2369 -11.29616,-21.087 l -12.59169,-5e-4 c -9.45254,6.0602 -11.94672,13.462 -12.40736,21.1811 z"
           id="path833"
           inkscape:connector-curvature="0"
           sodipodi:nodetypes="cccccc" />
        <path
           style="fill:#502d16;fill-opacity:1;stroke:none;stroke-width:0.26458332px;stroke-linecap:butt;stroke-linejoin:miter;stroke-opacity:1"
           d="m -461.29084,1103.7079 c -5.52502,0.1372 -7.34563,-2.5831 -5.23787,-8.1913 l 10.40829,-0.017 c 2.02298,5.5334 0.16235,8.3877 -5.17042,8.2083 z"
           id="path2339"
           inkscape:connector-curvature="0"
           sodipodi:nodetypes="ccccc" />
        <path
           style="fill:#000080;fill-opacity:1;stroke:none;stroke-width:0.26584813px;stroke-linecap:butt;stroke-linejoin:miter;stroke-opacity:1"
           d="m -466.65733,1095.5751 c -1.0449,0.01 -1.88025,-0.4678 -1.96068,-1.7015 0.11909,-1.1497 2.95358,-4.7309 7.14811,-4.4406 4.62079,-0.1492 6.95386,2.3414 7.43511,4.303 0.0474,1.0606 -0.57805,1.8316 -2.21425,1.8219 z"
           id="path2341"
           inkscape:connector-curvature="0"
           sodipodi:nodetypes="cccccc" />
        <path
           style="fill:#502d16;fill-opacity:1;stroke:none;stroke-width:0.26458332px;stroke-linecap:butt;stroke-linejoin:miter;stroke-opacity:1"
           d="m -453.3198,1110.2051 6.0666,5.5446 -2.02978,7.4243 c -1.31896,0.047 -1.71398,0.5825 -2.02408,1.3843 -0.40046,3.11 1.67496,3.8299 3.94328,2.7304 1.00819,-1.0354 0.96074,-1.971 0.22821,-2.9194 l 3.48068,-6.7525 c 0.85243,-1.3665 0.72883,-3.5716 -0.79942,-5.5553 l -5.79731,-5.0442"
           id="path2343"
           inkscape:connector-curvature="0"
           sodipodi:nodetypes="ccccccccc" />
        <path
           style="fill:#5555ff;fill-opacity:1;stroke:none;stroke-width:0.26458332px;stroke-linecap:butt;stroke-linejoin:miter;stroke-opacity:1"
           d="m -466.7446,1121.8207 c -5.56194,-2.6673 -4.23479,-9.137 -0.35165,-11.5206 l -5.59316,-3.1264 c 1.38037,-5.3293 6.07307,-2.7317 12.04169,-3.1267 4.71553,0.1753 7.20216,-2.6695 10.66067,2.0112 l -3.92806,4.1304 c 4.84595,3.6282 3.497,9.0715 -0.36643,11.6267"
           id="path2337"
           inkscape:connector-curvature="0"
           sodipodi:nodetypes="ccccccc" />
        <path
           style="fill:#d4aa00;fill-opacity:1;stroke:none;stroke-width:0.26458332px;stroke-linecap:butt;stroke-linejoin:miter;stroke-opacity:1"
           d="m -488.21388,1134.8944 h 3.6402 l -0.85325,2.0404 c 2.53786,0.5004 4.55397,3.3127 5.00227,8.8836 l -11.9269,0.023 c 0.58135,-6.135 2.86183,-8.3405 5.05127,-8.8957 z"
           id="path2353"
           inkscape:connector-curvature="0"
           sodipodi:nodetypes="ccccccc" />
        <path
           style="fill:#000000;fill-opacity:1;stroke:none;stroke-width:0.26458332px;stroke-linecap:butt;stroke-linejoin:miter;stroke-opacity:1"
           d="m -490.32776,1145.838 c 0.18884,-3.2553 0.9797,-4.8812 1.64596,-5.6758 -1.18776,1.7997 -1.25358,4.126 -1.30474,5.6752"
           id="path2355"
           inkscape:connector-curvature="0"
           sodipodi:nodetypes="ccc" />
        <path
           style="fill:none;stroke:#000000;stroke-width:0.26458332px;stroke-linecap:butt;stroke-linejoin:miter;stroke-opacity:1"
           d="m -484.65117,1143.0066 c 0,0 0,0 0,0 z"
           id="path2361"
           inkscape:connector-curvature="0" />
        <path
           style="opacity:1;fill:#000000;fill-opacity:1;stroke:none;stroke-width:0.11193547px;stroke-linecap:butt;stroke-linejoin:miter;stroke-opacity:1"
           d="m -481.87962,1145.8218 c 0.0168,-2.3737 -1.32522,-4.9897 -1.48172,-5.2314 0.18568,0.419 1.11229,2.9659 1.05055,5.2314"
           id="path2355-3"
           inkscape:connector-curvature="0"
           sodipodi:nodetypes="ccc" />
        <path
           style="opacity:1;fill:#000000;fill-opacity:1;stroke:none;stroke-width:0.11193547px;stroke-linecap:butt;stroke-linejoin:miter;stroke-opacity:1"
           d="m -483.91017,1145.8223 c -0.0659,-1.6957 -0.5845,-2.574 -0.741,-2.8157 0.18568,0.419 0.35161,2.0399 0.38909,2.8171"
           id="path2355-3-6"
           inkscape:connector-curvature="0"
           sodipodi:nodetypes="ccc" />
        <path
           style="opacity:1;fill:#000000;fill-opacity:1;stroke:none;stroke-width:0.09719473px;stroke-linecap:butt;stroke-linejoin:miter;stroke-opacity:1"
           d="m -487.49323,1145.8299 c 10e-5,-0.72 0.21593,-1.6616 0.37114,-1.8702 0.046,0.3901 -0.0178,1.093 -0.0461,1.8702"
           id="path2355-3-7"
           inkscape:connector-curvature="0"
           sodipodi:nodetypes="ccc" />
        <path
           style="fill:#000080;fill-opacity:1;stroke:none;stroke-width:0.26458332px;stroke-linecap:butt;stroke-linejoin:miter;stroke-opacity:1"
           d="m -464.29164,1145.6935 c -0.69579,1.0718 -6.87411,1.7072 -8.23997,0.087 -0.85539,-1.2319 0.34102,-2.3637 0.34102,-2.3637 2.80021,0 4.80473,0 7.78023,-0.013 0.42008,0.3803 0.61598,1.3819 0.11876,2.2899 z"
           id="path2401"
           inkscape:connector-curvature="0"
           sodipodi:nodetypes="cccccc" />
        <path
           style="opacity:1;fill:#000080;fill-opacity:1;stroke:none;stroke-width:0.26935622px;stroke-linecap:butt;stroke-linejoin:miter;stroke-opacity:1"
           d="m -458.27646,1145.7439 c 0.72113,1.0718 7.12436,1.7072 8.53994,0.087 0.88653,-1.2319 -0.35343,-2.3637 -0.35343,-2.3637 -2.90216,0 -4.97964,0 -8.06347,-0.013 -0.43537,0.3803 -0.63841,1.3819 -0.12303,2.2899 z"
           id="path2401-5"
           inkscape:connector-curvature="0"
           sodipodi:nodetypes="cccccc" />
      </g>
    </g>
  </g>
</svg>
