<?xml version="1.0" encoding="UTF-8" standalone="no"?>
<!-- Created with Inkscape (http://www.inkscape.org/) -->

<svg
   xmlns:dc="http://purl.org/dc/elements/1.1/"
   xmlns:cc="http://creativecommons.org/ns#"
   xmlns:rdf="http://www.w3.org/1999/02/22-rdf-syntax-ns#"
   xmlns:svg="http://www.w3.org/2000/svg"
   xmlns="http://www.w3.org/2000/svg"
   xmlns:sodipodi="http://sodipodi.sourceforge.net/DTD/sodipodi-0.dtd"
   xmlns:inkscape="http://www.inkscape.org/namespaces/inkscape"
   width="300"
   height="300"
   viewBox="0 0 300 300"
   version="1.1"
   id="SVGRoot"
   inkscape:version="0.92.3 (2405546, 2018-03-11)"
   sodipodi:docname="unknown_card.svg">
  <sodipodi:namedview
     id="base"
     pagecolor="#ffffff"
     bordercolor="#666666"
     borderopacity="1.0"
     inkscape:pageopacity="0.0"
     inkscape:pageshadow="2"
     inkscape:zoom="2.0000001"
     inkscape:cx="147.56754"
     inkscape:cy="160.82033"
     inkscape:document-units="px"
     inkscape:current-layer="g5231"
     showgrid="false"
     inkscape:window-width="1280"
     inkscape:window-height="956"
     inkscape:window-x="0"
     inkscape:window-y="0"
     inkscape:window-maximized="1"
     inkscape:grid-bbox="true"
     fit-margin-top="0"
     fit-margin-left="0"
     fit-margin-right="0"
     fit-margin-bottom="0" />
  <defs
     id="defs7012" />
  <metadata
     id="metadata7015">
    <rdf:RDF>
      <cc:Work
         rdf:about="">
        <dc:format>image/svg+xml</dc:format>
        <dc:type
           rdf:resource="http://purl.org/dc/dcmitype/StillImage" />
        <dc:title />
      </cc:Work>
    </rdf:RDF>
  </metadata>
  <g
     id="layer1"
     inkscape:groupmode="layer"
     inkscape:label="Calque 1"
     transform="translate(165.43747,150.74999)">
    <g
       transform="matrix(3.7795276,0,0,3.7795276,1496.4512,-3806.2543)"
       style="opacity:1"
       id="g6414">
      <g
         inkscape:export-ydpi="96"
         inkscape:export-xdpi="96"
         inkscape:export-filename="/home/louise/Documents/TNCY/Club/teleGD/tgd-telekingdom/res/images/characters/unknown_card.png"
         transform="translate(68.28244,-111.97453)"
         id="g5231">
        <rect
           ry="6.1388469"
           y="1079.16"
           x="-507.99048"
           height="79.375"
           width="79.375"
           id="rect5225"
           style="opacity:1;fill:#733f6c;fill-opacity:1;stroke:none;stroke-width:2.55100012;stroke-linecap:round;stroke-linejoin:round;stroke-miterlimit:4;stroke-dasharray:none;stroke-dashoffset:0;stroke-opacity:1" />
        <rect
           style="opacity:1;fill:#fef2e4;fill-opacity:1;stroke:none;stroke-width:2.33841681;stroke-linecap:round;stroke-linejoin:round;stroke-miterlimit:4;stroke-dasharray:none;stroke-dashoffset:0;stroke-opacity:1"
           id="rect5227"
           width="72.760414"
           height="72.760414"
           x="-505.21234"
           y="1082.2358"
           ry="5.6272764" />
        <path
           style="fill:#ff9955;fill-opacity:1;stroke:none;stroke-width:0.26458332px;stroke-linecap:butt;stroke-linejoin:miter;stroke-opacity:1"
           d="m -475.31444,1111.307 16.66875,29.6333 c 2.20486,3.7714 5.07118,5.1984 9.35963,4.0679 l 5.45703,-3.3402 -3.04271,-4.8949 -3.27422,1.8191 c -0.67827,0.2749 -2.87254,0.4067 -3.05515,-0.084 l -16.83038,-29.5534 c -4.38489,-8.5983 -7.73684,-9.4006 -10.56407,-6.6653 l -5.36836,4.7844 3.94331,3.9239 2.92978,-2.7735 c 1.71126,-1.2516 2.85621,1.7517 3.77639,3.083 z"
           id="path857"
           inkscape:connector-curvature="0"
           sodipodi:nodetypes="cccccccccccccc" />
        <path
           style="fill:#ff9955;fill-opacity:1;stroke:none;stroke-width:0.26458332px;stroke-linecap:butt;stroke-linejoin:miter;stroke-opacity:1"
           d="m -469.02927,1124.2951 3.36289,5.8646 -9.78035,16.1384 -6.95666,-0.016 z"
           id="path859"
           inkscape:connector-curvature="0"
           sodipodi:nodetypes="ccccc" />
        <path
           style="fill:#0000ff;fill-opacity:1;stroke:none;stroke-width:0.26458332px;stroke-linecap:butt;stroke-linejoin:miter;stroke-opacity:1"
           d="m -474.68605,1146.8603 -8.99015,-0.017 c -0.61228,0.9594 -1.02134,0.9752 -2.02978,1.5658 -0.75293,0.3662 -2.23553,1.1184 -2.49045,2.6241 l 13.31195,-0.01 z"
           id="path861"
           inkscape:connector-curvature="0"
           sodipodi:nodetypes="cccccc" />
        <path
           style="opacity:1;fill:#0000ff;fill-opacity:1;stroke:none;stroke-width:0.25762883px;stroke-linecap:butt;stroke-linejoin:miter;stroke-opacity:1"
           d="m -447.26118,1134.9961 4.48116,7.2286 c 1.12083,-0.025 1.50934,0.2191 2.52097,0.7096 0.69224,0.4063 2.08157,1.1897 3.48082,0.5859 l -6.78941,-10.6511 z"
           id="path861-3"
           inkscape:connector-curvature="0"
           sodipodi:nodetypes="cccccc" />
        <path
           style="fill:#ffffff;fill-opacity:1;stroke:#000000;stroke-width:0.26458332px;stroke-linecap:butt;stroke-linejoin:miter;stroke-opacity:1"
           d="m -494.12421,1113.6398 c 0.42054,2.7004 2.11233,3.5499 3.64824,4.3238 2.3162,0.9978 2.00884,2.2011 2.24035,3.1989 l -5.51441,4.2172 c -0.0361,-2.7234 -0.63632,-2.6609 -2.0938,-3.8618 -1.52508,-0.8527 -3.49488,-1.6812 -3.82162,-4.4343 z"
           id="path905"
           inkscape:connector-curvature="0"
           sodipodi:nodetypes="ccccccc" />
        <path
           style="opacity:1;fill:#ffffff;fill-opacity:1;stroke:#000000;stroke-width:0.27656749px;stroke-linecap:butt;stroke-linejoin:miter;stroke-opacity:1"
           d="m -438.96184,1117.7861 c -0.47216,-2.628 -2.37163,-3.4547 -4.09608,-4.2078 -2.60053,-0.9711 -2.25544,-2.1421 -2.51537,-3.1131 l 6.19134,-4.1041 c 0.0405,2.6503 0.71443,2.5895 2.35083,3.7582 1.71229,0.8298 3.9239,1.6361 4.29075,4.3154 z"
           id="path905-7"
           inkscape:connector-curvature="0"
           sodipodi:nodetypes="ccccccc" />
        <path
           style="opacity:1;fill:#ffffff;fill-opacity:1;stroke:#000000;stroke-width:0.2653726px;stroke-linecap:butt;stroke-linejoin:miter;stroke-opacity:1"
           d="m -452.58712,1086.8265 c -0.42305,2.7004 -2.12495,3.5499 -3.67004,4.3238 -2.33004,0.9978 -2.02084,2.2011 -2.25373,3.1989 l 5.54736,4.2172 c 0.0363,-2.7234 0.64012,-2.6609 2.10631,-3.8618 1.53419,-0.8527 3.51576,-1.6812 3.84445,-4.4343 z"
           id="path905-5"
           inkscape:connector-curvature="0"
           sodipodi:nodetypes="ccccccc" />
        <path
           style="fill:none;stroke:#000000;stroke-width:0.26458332px;stroke-linecap:butt;stroke-linejoin:miter;stroke-opacity:1"
           d="m -497.3732,1117.9835 2.43215,-1.7773 0.0468,-0.094 z"
           id="path930"
           inkscape:connector-curvature="0" />
        <path
           style="fill:none;stroke:#000000;stroke-width:0.26458332px;stroke-linecap:butt;stroke-linejoin:miter;stroke-opacity:1"
           d="m -494.89427,1119.7141 0.88867,-0.7484 z"
           id="path932"
           inkscape:connector-curvature="0" />
        <path
           style="fill:none;stroke:#000000;stroke-width:0.26458332px;stroke-linecap:butt;stroke-linejoin:miter;stroke-opacity:1"
           d="m -493.6782,1117.469 -1.30962,0.8887 z"
           id="path934"
           inkscape:connector-curvature="0" />
        <path
           style="fill:none;stroke:#000000;stroke-width:0.26458332px;stroke-linecap:butt;stroke-linejoin:miter;stroke-opacity:1"
           d="m -490.63801,1119.1528 -2.61924,1.7774 z"
           id="path936"
           inkscape:connector-curvature="0" />
        <path
           style="opacity:1;fill:#ffffff;fill-opacity:1;stroke:#000000;stroke-width:0.32857889px;stroke-linecap:butt;stroke-linejoin:miter;stroke-opacity:1"
           d="m -481.04395,1090.1083 c 0.12419,-2.4071 -2.62696,-2.3576 -2.48673,0.1924 4.8e-4,2.0828 2.53297,1.781 2.48673,-0.1924 z"
           id="path888-3"
           inkscape:connector-curvature="0"
           sodipodi:nodetypes="ccc" />
        <path
           style="fill:none;stroke:#000000;stroke-width:0.26458332px;stroke-linecap:butt;stroke-linejoin:miter;stroke-opacity:1"
           d="m -486.12694,1086.4555 -2.35052,0.014 0.0548,13.8713 h 2.3151"
           id="path953"
           inkscape:connector-curvature="0"
           sodipodi:nodetypes="cccc" />
        <path
           style="opacity:1;fill:none;stroke:#000000;stroke-width:0.27452329px;stroke-linecap:butt;stroke-linejoin:miter;stroke-opacity:1"
           d="m -471.35183,1086.404 2.27868,-0.033 0.14242,13.8245 h -2.49232"
           id="path953-5"
           inkscape:connector-curvature="0"
           sodipodi:nodetypes="cccc" />
        <path
           style="opacity:1;fill:#ffffff;fill-opacity:1;stroke:#000000;stroke-width:0.32857889px;stroke-linecap:butt;stroke-linejoin:miter;stroke-opacity:1"
           d="m -473.64802,1090.0533 c 0.12419,-2.4071 -2.62696,-2.3576 -2.48673,0.1924 4.8e-4,2.0828 2.53297,1.781 2.48673,-0.1924 z"
           id="path888-3-6"
           inkscape:connector-curvature="0"
           sodipodi:nodetypes="ccc" />
        <path
           style="fill:none;stroke:#000000;stroke-width:0.28477234px;stroke-linecap:butt;stroke-linejoin:miter;stroke-opacity:1"
           d="m -480.62906,1097.1842 2.32719,-2.6015 0.10913,3.8064"
           id="path985"
           inkscape:connector-curvature="0"
           sodipodi:nodetypes="ccc" />
        <path
           style="fill:none;stroke:#000000;stroke-width:0.26458332px;stroke-linecap:butt;stroke-linejoin:miter;stroke-opacity:1"
           d="m -479.54165,1095.868 c 0,0 0,0 0,0 z"
           id="path987"
           inkscape:connector-curvature="0" />
      </g>
    </g>
  </g>
</svg>
