<svg id="f5bdc2f7-9e31-483a-b792-c81f5d1704fd" data-name="SVGRoot" xmlns="http://www.w3.org/2000/svg" viewBox="0 0 300.00001 316.90205"><defs><style>.a4d353db-e56c-4f90-8d85-4e1500d8c8e4{fill:#72afe0;}.b02a7dec-0c13-45b0-90c7-6d20dbc2251a{fill:#733f6c;}.e7718a6b-3a79-4eda-8cb2-fa48cbaaff48{opacity:0.1;}.b38a7d65-76e6-4fd4-b83f-33b3f80aac31{fill:#534741;}.b0dc944e-7c1b-4db2-94ac-6028bda52ab3{opacity:0.15;}.ac52fc64-63e4-4d6b-bda8-06604d62cb8a{fill:none;stroke:#3d3530;stroke-linecap:round;stroke-linejoin:round;}.b71d793f-cdd7-4765-b044-b9982ee1f564{fill:#293842;}.e37182d8-3af1-48b2-b639-d3dac326f9c9{fill:#f26861;}.e5878af0-99ea-4edb-b83f-3bba719db4af{opacity:0.2;}.f7c2e614-4a5c-46c6-b638-a27ac7a99b27{fill:#ffbe91;}.b898183a-d98c-46c8-b45d-80cf8f58d655{opacity:0.5;}.b794dadc-bfd3-4479-af60-704944fa6cf8{fill:#d6996f;}.f7d1a3d9-3187-471f-a539-22be6e709cb5{opacity:0.05;}.e774ad6e-32f3-4eb2-affb-43909c401afa{fill:#f9f5e4;}.ac1831da-328e-4e5e-8134-5eae633bdf6a{fill:#332c28;}.e1014ffd-120d-4518-8fed-45843e0db905{fill:#fff;}.fac358d5-b8f7-484d-b5b4-3f9415b7cc44{opacity:0.3;}.a83777cf-1133-4776-99ef-b003728f3d30{font-size:57px;fill:#d2de44;font-family:MyriadPro-Regular, Myriad Pro;}</style></defs><title>sergio</title><rect class="a4d353db-e56c-4f90-8d85-4e1500d8c8e4" x="9.56743" y="11.75168" width="280.86515" height="280.86515"/><path class="b02a7dec-0c13-45b0-90c7-6d20dbc2251a" d="M276.8-.1H23.2A23.21667,23.21667,0,0,0,0,23.1V276.7a23.21669,23.21669,0,0,0,23.2,23.2H276.8A23.21669,23.21669,0,0,0,300,276.7V23.1A23.2167,23.2167,0,0,0,276.8-.1Zm10.7,266.2a21.31745,21.31745,0,0,1-21.3,21.3H33.8a21.31748,21.31748,0,0,1-21.3-21.3V33.6A21.31748,21.31748,0,0,1,33.8,12.3H266.3a21.31746,21.31746,0,0,1,21.3,21.3V266.1Z" transform="translate(0.00001 0.1)"/><path class="e7718a6b-3a79-4eda-8cb2-fa48cbaaff48" d="M184.91906,267.07565c0,5.68227-17.9086,10.28922-40,10.28922s-40-4.60695-40-10.28922,17.9086-10.28823,40-10.28823S184.91906,261.39338,184.91906,267.07565Z" transform="translate(0.00001 0.1)"/><path class="b38a7d65-76e6-4fd4-b83f-33b3f80aac31" d="M158.75417,255.01749a48.1156,48.1156,0,0,1-.86157,8.378s.07845,1.5653,3.91511,2.27a12.3192,12.3192,0,0,1,8.06464,5.95112c1.40933,2.42686,12.68395,1.80018,12.91884,1.64422a122.79974,122.79974,0,0,0-8.76931-10.492c-3.36688-3.28843-7.75083-7.20354-8.37751-7.35951C165.01769,255.25238,158.75417,255.01749,158.75417,255.01749Z" transform="translate(0.00001 0.1)"/><path class="b0dc944e-7c1b-4db2-94ac-6028bda52ab3" d="M169.33558,258.38663a23.94623,23.94623,0,0,0-3.69121-2.97735c-.62668-.1569-6.8902-.39179-6.8902-.39179s-.02429,1.57262-.17706,3.52149C162.16418,258.54631,165.75035,258.47932,169.33558,258.38663Z" transform="translate(0.00001 0.1)"/><path class="ac52fc64-63e4-4d6b-bda8-06604d62cb8a" d="M167.88863,256.71493s-4.07291,3.14069-3.62423,5.97034c.44868,2.83058,2.69295,1.51944,2.38191.10368A12.1294,12.1294,0,0,1,167.88863,256.71493Z" transform="translate(0.00001 0.1)"/><path class="ac52fc64-63e4-4d6b-bda8-06604d62cb8a" d="M168.06113,256.81767s1.7603,5.31528,0,7.83478" transform="translate(0.00001 0.1)"/><path class="b38a7d65-76e6-4fd4-b83f-33b3f80aac31" d="M134.44327,254.58718V263.278c0,1.11572-10.33507.35233-16.44215,4.93265,0,0-7.7513-1.52678-9.513-2.23144,0,0,2.46632-5.05009,6.10708-5.98964s11.39206-3.28843,11.7444-5.63731Z" transform="translate(0.00001 0.1)"/><path class="b0dc944e-7c1b-4db2-94ac-6028bda52ab3" d="M134.44327,257.35261v-2.76543l-8.10363-.23489a3.05023,3.05023,0,0,1-1.502,1.75889A40.1576,40.1576,0,0,0,134.44327,257.35261Z" transform="translate(0.00001 0.1)"/><path class="ac52fc64-63e4-4d6b-bda8-06604d62cb8a" d="M124.08161,256.61675s-5.98095,5.65013-3.14712,7.32C122.98379,265.14426,124.37475,256.98285,124.08161,256.61675Z" transform="translate(0.00001 0.1)"/><path class="ac52fc64-63e4-4d6b-bda8-06604d62cb8a" d="M124.37428,256.43415a6.36051,6.36051,0,0,1,1.09829,5.37949" transform="translate(0.00001 0.1)"/><path class="b71d793f-cdd7-4765-b044-b9982ee1f564" d="M164.52682,152.42376c.12524,2.42414.27618,4.77668.45784,7.00718,1.40336,17.2248,2.46313,59.64593,1.18088,96.1554,0,0-4.984-.17706-7.60544-.28074.21243-37.23616-1.20516-83.93484-11.69619-83.20265-3.86006.26975-9.374,12.43713-10.94343,38.874-1.569,26.43682-1.32763,44.04792-1.32763,44.04792l-8.75465-.16423c1.72727-76.757,2.403-76.70007,2.85032-95.52046l.712-7.25588Z" transform="translate(0.00001 0.1)"/><path class="b0dc944e-7c1b-4db2-94ac-6028bda52ab3" d="M164.87732,158.03537c-.1344-1.80934-.251-3.68661-.3505-5.61161l-35.12631-.33951-.584,5.95112Z" transform="translate(0.00001 0.1)"/><path class="e37182d8-3af1-48b2-b639-d3dac326f9c9" d="M166.20772,105.21655s.22893.72764.67578,1.9243l3.36091-20.97751a9.00373,9.00373,0,0,0-2.42869-.84207c-2.89067-.6785-11.9371-2.06166-11.9371-2.06166a67.26349,67.26349,0,0,0-13.279.72345c-15.08925,1.08659-14.91858,3.649-14.91858,3.649,4.94914,1.56943,3.571,17.114,3.571,17.114s.67991,17.67438.07662,27.69357l-1.92819,22.56051,35.46211.33857C163.77443,134.25274,166.20772,105.21655,166.20772,105.21655Z" transform="translate(0.00001 0.1)"/><path class="b0dc944e-7c1b-4db2-94ac-6028bda52ab3" d="M164.59517,140.34334a21.20954,21.20954,0,0,0-5.56022,12.129c-.11927.92945-1.13662,1.33041-1.95849,1.42126a4.215,4.215,0,0,0-3.06087,1.34145l10.847.10368C164.6181,150.60155,164.55205,145.46337,164.59517,140.34334Z" transform="translate(0.00001 0.1)"/><g class="e5878af0-99ea-4edb-b83f-3bba719db4af"><path d="M159.13449,158.86209c1.22128,7.99207,2.08533,16.03569,2.7983,24.08974.71913,8.05478,1.1737,16.13115,1.52548,24.21058.28828,8.082.43365,16.17119.309,24.25788-.07019,8.08723-.49308,16.16854-1.098,24.22754.049-4.04344.27431-8.07664.26158-12.11762l.08711-6.05663-.01995-6.057c.00071-4.03728-.08733-8.07432-.13756-12.11079-.11992-4.03561-.20658-8.07183-.40029-12.10468-.26776-8.07007-.73663-16.13264-1.29077-24.18959q-.40638-6.04367-.92573-12.08011C159.92253,166.90459,159.53938,162.88348,159.13449,158.86209Z" transform="translate(0.00001 0.1)"/></g><g class="e5878af0-99ea-4edb-b83f-3bba719db4af"><path d="M134.32123,158.86209l-.83626,11.85526-.9133,11.84618c-.59177,7.897-1.20775,15.78828-1.40263,23.69638-.30028,7.90449-.26808,15.82306-.28524,23.74277l-.00907,11.88173-.0887,11.88432c-.3133-7.91809-.52085-15.83741-.67142-23.75967-.14214-7.92191-.16663-15.85057.05612-23.7817.27921-7.93.88184-15.842,1.638-23.729Q132.94833,170.66646,134.32123,158.86209Z" transform="translate(0.00001 0.1)"/></g><path class="e37182d8-3af1-48b2-b639-d3dac326f9c9" d="M112.55214,127.10219s-5.64877-33.33093-5.20173-37.86718a11.9089,11.9089,0,0,1,10.36926.51634s3.65749,28.99583,3.57288,29.59334c-.06126.43078-.18077,1.53828,1.388,3.39694Z" transform="translate(0.00001 0.1)"/><path class="b0dc944e-7c1b-4db2-94ac-6028bda52ab3" d="M113.67058,91.03336c1.54035.03007,2.93817-.06605,4.064-1.163l-.01489-.119a11.9089,11.9089,0,0,0-10.36926-.51634c-.00822.08325-.01377.17913-.0179.28168C108.91227,90.92212,111.65731,90.99437,113.67058,91.03336Z" transform="translate(0.00001 0.1)"/><path class="e37182d8-3af1-48b2-b639-d3dac326f9c9" d="M117.48479,130.092c4.05181-.19294,7.32807-8.6489,7.9339-10.06255,2.17271-5.07006,7.24272-14.9959,7.24272-14.9959s.85424-8.24607-.08071-10.99341c-2.85539-8.38762-4.88952-6.44956-4.88952-6.44956S115.766,116.55793,112.404,125.52567C112.404,125.52567,111.872,130.35919,117.48479,130.092Z" transform="translate(0.00001 0.1)"/><path class="e37182d8-3af1-48b2-b639-d3dac326f9c9" d="M170.249,86.17231S181.40708,117.751,182.01084,127.046c0,0-9.5093,27.345-13.37212,32.17391l-8.50548-6.05386s10.625-24.21778,10.9874-24.70062c.36154-.48284,1.44879-2.05208-.72482-7.12213-1.75893-4.10363-1.76076-3.994-7.51-18.97176,0,0-.97554-8.29036.08075-10.99341C165.45214,85.01713,170.249,86.17231,170.249,86.17231Z" transform="translate(0.00001 0.1)"/><path class="b0dc944e-7c1b-4db2-94ac-6028bda52ab3" d="M168.64379,159.21625c-1.72083-3.27283-4.60122-5.50977-8.02659-5.70519l8.02152,5.70885Z" transform="translate(0.00001 0.1)"/><path class="f7c2e614-4a5c-46c6-b638-a27ac7a99b27" d="M164.70162,162.75423a52.891,52.891,0,0,0-6.88677-2.94893,21.40752,21.40752,0,0,0,2.06673-2.88015,5.36348,5.36348,0,0,1-3.2368-.68446c-2.01722-1.12582.1399-1.99378.1399-1.99378,2.88884,1.01937,2.48906.16424,5.29395-.47348,1.98781.01564,4.49289,2.23881,5.3118,3.55362.50971.8175-.423,1.75982-.94641,2.826A11.7858,11.7858,0,0,1,164.70162,162.75423Z" transform="translate(0.00001 0.1)"/><path class="e7718a6b-3a79-4eda-8cb2-fa48cbaaff48" d="M173.628,262.56772c-1.5107-1.47543-3.22444-3.07464-4.71335-4.40692-.12614-.11284-.25049-.223-.37319-.33213-.07963-.07066-.15827-.13948-.2363-.2083-.1305-.11467-.25828-.22756-.38352-.33674-.0257-.022-.05318-.04679-.07864-.06882-.10185-.37342-.17575-.59821-.17575-.59821v.44685c-.1087-.09358-.21515-.18537-.31883-.27346l-.01879-.01649a1.71927,1.71927,0,0,1,.16512-.25964s-.09358.07338-.23991.19632l-.06239-.05323q-.16686-.14037-.32344-.27157c-.04242-.03486-.08484-.07066-.12613-.10458-.11562-.09546-.225-.18443-.33012-.26885-.02959-.02292-.06008-.04862-.08874-.07065-.11241-.08992-.21633-.17067-.31428-.245-.02315-.01743-.04632-.0358-.06858-.05229-.09678-.07248-.18557-.13764-.26561-.1927-.01537-.011-.03007-.02109-.04473-.03025-.02067-.01471-.04312-.0303-.06238-.04313l.20322.00733c1.21893-34.70741.32137-74.7558-.97582-93.423a11.72621,11.72621,0,0,0,1.2543-2.01031c.3156-.64317.77852-1.24049.98564-1.79375l1.20906.86063.00508-.00366-.00094-.00184c3.86531-4.84273,13.368-32.16841,13.368-32.16841-.60376-9.295-11.76183-40.87369-11.76183-40.87369l-.00573-.00141.00113-.00756a9.00346,9.00346,0,0,0-2.4287-.84208c-2.32412-.54545-8.62386-1.546-11.00534-1.91739-.00089-.69226-.01466-1.48867-.03166-2.28785l-.00043-.02067-.0062-.286c-.0101-.46569-.0209-.92673-.03053-1.36508,2.53721-1.08706,5.16133-2.295,6.88564-3.04391,4.14263-1.79929,4.96107-4.1663,5.14273-5.24965.094-.559.49157-4.72919.8572-8.7771,1.96056.59205,4.15254-3.02832,4.348-4.34289.23306-1.56647.59822-5.37743-1.20929-5.7176a2.75174,2.75174,0,0,0-2.35555.92668c.356-2.85191,1.47035-9.81709,2.384-11.82858,1.09646-2.41192,1.89381-3.35838-.94777-6.54012a7.21411,7.21411,0,0,1-1.99105-6.32525,20.151,20.151,0,0,1-3.80777.3434c-1.96329-.0303-4.18533-2.2879-6.48949-3.688-2.30434-1.40016-6.1316-.036-6.1316-.036.20162-2.1046,3.15219-2.53007,3.15219-2.53007-5.13361.21675-6.0587,2.48812-7.04621,2.94413a3.069,3.069,0,0,1-1.78139-.1663V171.9606c9.68363,1.90757,11.01521,46.98585,10.809,83.14393.06078.00183.12411.00456.18739.00733-.01442.54315-.05708,1.78-.17039,3.226h.00019a32.774,32.774,0,0,1-.6847,4.8565s.07845,1.56529,3.91511,2.27a12.31918,12.31918,0,0,1,8.06464,5.95112c1.40933,2.42686,12.684,1.80018,12.91884,1.64421A122.79816,122.79816,0,0,0,173.628,262.56772Zm-9.4377-120.47941.00024-.04928q.00274-.93108.01052-1.86308c.10072-11.99648.807-23.898,1.25082-30.31224,2.86775,7.42377,3.1655,8.04815,4.55007,11.27852,2.1736,5.07005,1.08635,6.63929.72481,7.12213-.20163.26861-3.5788,7.88157-6.53622,14.58508C164.19058,142.59571,164.18964,142.3425,164.19034,142.08831Z" transform="translate(0.00001 0.1)"/><g class="b898183a-d98c-46c8-b45d-80cf8f58d655"><path class="b71d793f-cdd7-4765-b044-b9982ee1f564" d="M140.98114,139.37442c2.74947-.6172,5.48238-1.09088,8.18517-1.67625,1.34948-.29288,2.68483-.62339,3.99908-1.0151a18.78891,18.78891,0,0,0,1.912-.72731,7.46469,7.46469,0,0,0,.90447-.4786,10.10648,10.10648,0,0,0,.81524-.64383,6.96976,6.96976,0,0,1-3.35815,2.58058,23.95441,23.95441,0,0,1-4.06067,1.26093A32.3698,32.3698,0,0,1,140.98114,139.37442Z" transform="translate(0.00001 0.1)"/></g><g class="b898183a-d98c-46c8-b45d-80cf8f58d655"><path class="b71d793f-cdd7-4765-b044-b9982ee1f564" d="M145.05269,132.95424a14.81565,14.81565,0,0,1,2.58822-1.726,20.69777,20.69777,0,0,1,2.84072-1.269,17.10248,17.10248,0,0,1,3.03021-.76988,9.59122,9.59122,0,0,1,3.12834.00661,44.87558,44.87558,0,0,0-5.825,1.70538C148.90915,131.56754,147.03416,132.31595,145.05269,132.95424Z" transform="translate(0.00001 0.1)"/></g><g class="b898183a-d98c-46c8-b45d-80cf8f58d655"><path class="b71d793f-cdd7-4765-b044-b9982ee1f564" d="M141.60735,127.16025a13.08341,13.08341,0,0,1,2.8193-1.60016,17.81638,17.81638,0,0,1,3.0961-.99751,11.63247,11.63247,0,0,1,6.45567.24879c-1.089.03072-2.12777.07326-3.166.1971-1.03392.14332-2.06029.29875-3.078.53085C145.69171,125.97923,143.68811,126.57549,141.60735,127.16025Z" transform="translate(0.00001 0.1)"/></g><path class="b0dc944e-7c1b-4db2-94ac-6028bda52ab3" d="M150.33536,92.195c3.82154-.09086,6.915-2.63859,7.09667-4.54912.07521-.792.05689-2.42827.02292-4.11172-.94138-.16926-1.57633-.27453-1.57633-.27453a67.26349,67.26349,0,0,0-13.279.72345c-.19223.01377-.37113.02889-.55786.04313a15.10086,15.10086,0,0,1-.35,3.34692C141.14584,88.91961,146.5143,92.286,150.33536,92.195Z" transform="translate(0.00001 0.1)"/><path class="b794dadc-bfd3-4479-af60-704944fa6cf8" d="M142.696,76.67974s.16654,6.742-.33307,8.15686,4.41147,4.49453,7.90726,4.41124,6.326-2.41376,6.492-4.16165c.16654-1.7479-.16606-7.99032,0-8.48969C156.92876,76.09712,142.696,76.67974,142.696,76.67974Z" transform="translate(0.00001 0.1)"/><path class="b0dc944e-7c1b-4db2-94ac-6028bda52ab3" d="M150.1413,84.01933c.96891.04218,3.72382-1.319,6.63741-2.90331-.04449-2.10873-.11054-4.23648-.01649-4.51952.16654-.49938-14.06621.08324-14.06621.08324s.07018,2.84755-.0179,5.22992A55.59575,55.59575,0,0,0,150.1413,84.01933Z" transform="translate(0.00001 0.1)"/><path class="f7c2e614-4a5c-46c6-b638-a27ac7a99b27" d="M169.57,54.265s1.38918-2.292,3.19579-1.95182c1.80751.34016,1.44236,4.15112,1.2093,5.71759-.23306,1.56666-3.30125,6.411-5.43455,3.49372C167.35788,59.90635,169.57,54.265,169.57,54.265Z" transform="translate(0.00001 0.1)"/><path class="f7c2e614-4a5c-46c6-b638-a27ac7a99b27" d="M130.07055,52.57047s-2.32271-2.81405-3.64969.571c-1.327,3.38474-.42623,8.62363,4.2775,8.603C132.371,61.7373,130.07055,52.57047,130.07055,52.57047Z" transform="translate(0.00001 0.1)"/><path class="f7c2e614-4a5c-46c6-b638-a27ac7a99b27" d="M129.882,69.69986c.32851-3.59834,1.0297-9.01519.12778-14.4527-.901-5.43752-4.01992-20.0334,14.81377-23.75074,18.83416-3.71691,28.49279,6.32083,25.631,20.51182-2.86272,14.19122-1.16894,12.74615-1.70754,16.97756a8.23716,8.23716,0,0,1-4.64293,6.5794c-4.44615,2.46172-13.10989,5.93665-14.8498,5.77035-1.7401-.16654-11.60192-5.7362-15.70076-7.18748C129.6719,72.7736,129.75124,71.13582,129.882,69.69986Z" transform="translate(0.00001 0.1)"/><g class="f7d1a3d9-3187-471f-a539-22be6e709cb5"><path d="M170.66463,37.795a6.90708,6.90708,0,0,1-1.90663-6.05686,19.3004,19.3004,0,0,1-3.64626.32917c-1.88-.02913-4.00775-2.19085-6.21443-3.53182-2.20644-1.34051-5.87107-.03416-5.87107-.03416.19246-2.01515,3.01845-2.42254,3.01845-2.42254-4.91564.2076-5.80178,2.38214-6.74659,2.81889-.946.43652-4.25758-1.1602-4.25758-1.1602-1.0235-.3241-.92053.96637-3.23408.745a8.00338,8.00338,0,0,0-3.71438.247,7.15421,7.15421,0,0,1,3.92315,1.505c-3.06684-.21811-3.97111,2.934-3.97111,2.934-1.89352-1.46162-5.21681-.57412-7.31408.88177-2.09745,1.45635,2.05987.467,2.05987.467l-1.15541,3.46093c-3.22511,4.09382-3.40841,9.80084-3.182,13.10764a.47527.47527,0,0,1,.23625.183,12.41367,12.41367,0,0,1,2.11653,3.3465l1.35882.1298-.01785-.07408-.65167-4.20436a5.18663,5.18663,0,0,0,2.41747-3.23314,17.50074,17.50074,0,0,1,.712-2.7184s3.6293-.9334,4.02382-1.12168,3.60774-2.29087,3.60774-2.29087l4.45784-.92945a26.68673,26.68673,0,0,1-3.92592,3.29966,58.676,58.676,0,0,1,5.76232-1.24072l1.82681-.2021s5.0251-.57393,5.85318-.56979a2.29618,2.29618,0,0,0-.518-2.45989s2.99919,1.71806,4.133,1.67588,2.88565-.25119,2.88565-.25119l1.74352-.5184.90742-.1842-1.84194,4.8471a20.51109,20.51109,0,0,1,2.80169-2.51884s-.63311,8.97709-1.77819,9.92195c0,0,2.02318-1.46326,2.0874-2.13514,0,0-.11378,5.84857-.43947,8.16419l2.83791.27163c.077-.94895.12571-1.60683.12938-1.7922.01832-.9776,1.34417-10.11394,2.39383-12.42383C172.62082,41.74773,173.3851,40.84167,170.66463,37.795Z" transform="translate(0.00001 0.1)"/><path d="M143.36558,73.84572s9.08448.10439,13.17228-1.67357a5.9877,5.9877,0,0,1-6.18737,4.69663C144.95474,76.92816,143.36558,73.84572,143.36558,73.84572Z" transform="translate(0.00001 0.1)"/></g><path class="b38a7d65-76e6-4fd4-b83f-33b3f80aac31" d="M154.57871,56.61059a2.41074,2.41074,0,0,1-.56129-2.69c.76864-1.38109,3.508-1.98254,5.57563-1.73939,2.06762.24292,3.45952,2.331,1.75959,3.941C159.65289,57.73227,155.85,58.05022,154.57871,56.61059Z" transform="translate(0.00001 0.1)"/><path class="e774ad6e-32f3-4eb2-affb-43909c401afa" d="M154.59867,56.90307a2.41037,2.41037,0,0,1-.56063-2.69c.76846-1.38086,3.4777-1.66874,5.54533-1.4254,2.06767.24292,3.4894,2.017,1.78966,3.627S155.87035,58.34289,154.59867,56.90307Z" transform="translate(0.00001 0.1)"/><path class="ac1831da-328e-4e5e-8134-5eae633bdf6a" d="M158.39277,55.67836a1.59193,1.59193,0,1,1-1.439-1.65052A1.54946,1.54946,0,0,1,158.39277,55.67836Z" transform="translate(0.00001 0.1)"/><path class="b38a7d65-76e6-4fd4-b83f-33b3f80aac31" d="M133.81316,49.91492a20.60492,20.60492,0,0,1,3.4233-1.58159,9.21774,9.21774,0,0,1,5.00034-.47645c1.10468.33307,2.95743,1.87384,2.29241,2.17389-.66543.30023-3.21819-.339-4.9402-.15418a38.76566,38.76566,0,0,0-4.29244.68014C134.37031,50.77005,133.46106,50.7453,133.81316,49.91492Z" transform="translate(0.00001 0.1)"/><path class="b38a7d65-76e6-4fd4-b83f-33b3f80aac31" d="M155.36732,50.29478s-1.99307.40048-2.25849-.62485c-.26562-1.02557.85837-1.37264,2.80009-1.23246,1.94079.14014,6.41216,1.38617,7.13679,2.36472.72529.9783.46747.8175-.17137.8471C162.23459,51.67888,159.52653,50.05623,155.36732,50.29478Z" transform="translate(0.00001 0.1)"/><path class="b38a7d65-76e6-4fd4-b83f-33b3f80aac31" d="M171.84644,34.8711a7.21415,7.21415,0,0,1-1.99105-6.32525,20.15045,20.15045,0,0,1-3.80777.34341c-1.96328-.0303-4.18532-2.2879-6.48948-3.688-2.30434-1.40017-6.13161-.036-6.13161-.036.20163-2.10459,3.1522-2.53007,3.1522-2.53007-5.13362.21676-6.0587,2.48812-7.04622,2.94413s-4.44567-1.21159-4.44567-1.21159c-1.06912-.33838-.962,1.009-3.37788.778a8.35259,8.35259,0,0,0-3.87837.258,7.47507,7.47507,0,0,1,4.097,1.57172c-3.20336-.228-4.14775,3.06412-4.14775,3.06412-1.97771-1.5263-5.44827-.59986-7.63888.921-2.19038,1.5208-3.39075,6.676-3.39075,6.676l4.3358-2.57414c-5.01359,6.36307-2.99093,16.46691-2.99093,16.46691,1.45086.45329,1.31369,1.0694,1.9289,2.85883.61541,1.789-.30761,12.00864-.57345,13.39476a6.1485,6.1485,0,0,0,2.77045,6.3998c2.55258,1.57746,15.57467,7.38887,17.35925,7.63846,1.78529.24931,10.17953-3.74124,14.047-5.42079,4.14262-1.79928,4.96107-4.1663,5.14273-5.24965.1826-1.08358,1.50568-15.74416,1.52494-16.76465.01837-1.02078,1.40383-10.56263,2.49935-12.97483C173.89067,38.9993,174.688,38.05285,171.84644,34.8711Zm-8.32226,30.27184a19.6653,19.6653,0,0,1-9.76044,1.8768s-.94918,2.36884-2.92717,2.49409a10.61233,10.61233,0,0,1-4.57618-.67371c-1.79126-.92828-1.95549-1.76-1.95549-1.76a40.00458,40.00458,0,0,1-6.14632-.61269,8.53035,8.53035,0,0,1-5.11938-6.59983c-.57759-3.83046-1.41872-7.37191-1.41872-7.37191l-.68056-4.391a5.41722,5.41722,0,0,0,2.525-3.37628,18.20078,18.20078,0,0,1,.74366-2.83909s3.78963-.97464,4.20158-1.17125c.41222-.19631,3.76807-2.39266,3.76807-2.39266l4.65557-.97027a27.882,27.882,0,0,1-4.1,3.44576,61.36718,61.36718,0,0,1,6.01783-1.29579l1.908-.211s5.24782-.59915,6.1124-.595a2.39839,2.39839,0,0,0-.54043-2.56887s3.13176,1.794,4.31583,1.75c1.18383-.044,3.01385-.26195,3.01385-.26195l1.82014-.54132.94782-.19247-1.92406,5.06179a21.40306,21.40306,0,0,1,2.92694-2.63056s-.66154,9.37532-1.85707,10.36213c0,0,2.113-1.52813,2.18-2.22984a89.75672,89.75672,0,0,1-.5533,9.07072S165.94028,63.44024,163.52418,65.14294Z" transform="translate(0.00001 0.1)"/><path class="b794dadc-bfd3-4479-af60-704944fa6cf8" d="M146.39686,60.83077s-.62551,4.89549-2.18855,5.611c-1.56252.71565,1.86947,3.48226,4.86843,3.37557,2.999-.10622,4.73261-.96271,4.73308-2.61449a2.78743,2.78743,0,0,0-.88172-2.28673s1.06043,2.06791.11331,2.921A7.144,7.144,0,0,1,148.88,69.40535c-1.58047.08461-5.02486-1.7392-4.24132-2.52941A7.92043,7.92043,0,0,0,146.39686,60.83077Z" transform="translate(0.00001 0.1)"/><path class="e1014ffd-120d-4518-8fed-45843e0db905" d="M143.33735,72.52058s9.48749.10894,13.75677-1.7479A6.25372,6.25372,0,0,1,150.6324,75.678C144.99692,75.74019,143.33735,72.52058,143.33735,72.52058Z" transform="translate(0.00001 0.1)"/><g class="fac358d5-b8f7-484d-b5b4-3f9415b7cc44"><path class="b794dadc-bfd3-4479-af60-704944fa6cf8" d="M133.94714,60.10867a4.52579,4.52579,0,0,1,1.03406-1.17753,4.46826,4.46826,0,0,1,1.35216-.79218,4.46807,4.46807,0,0,1-1.03406,1.17754A4.52526,4.52526,0,0,1,133.94714,60.10867Z" transform="translate(0.00001 0.1)"/><path class="b794dadc-bfd3-4479-af60-704944fa6cf8" d="M136.76579,60.09651a4.5274,4.5274,0,0,1,1.03444-1.17755,4.47036,4.47036,0,0,1,1.3525-.79213,4.46981,4.46981,0,0,1-1.03444,1.17755A4.52708,4.52708,0,0,1,136.76579,60.09651Z" transform="translate(0.00001 0.1)"/><path class="b794dadc-bfd3-4479-af60-704944fa6cf8" d="M139.559,60.36377a4.52676,4.52676,0,0,1,1.0343-1.17767,4.46942,4.46942,0,0,1,1.35239-.79229,4.46947,4.46947,0,0,1-1.0343,1.17766A4.527,4.527,0,0,1,139.559,60.36377Z" transform="translate(0.00001 0.1)"/><path class="b794dadc-bfd3-4479-af60-704944fa6cf8" d="M142.35172,60.631a4.52514,4.52514,0,0,1,1.034-1.17763,4.46753,4.46753,0,0,1,1.35208-.79228,4.46876,4.46876,0,0,1-1.034,1.17763A4.52609,4.52609,0,0,1,142.35172,60.631Z" transform="translate(0.00001 0.1)"/></g><g class="fac358d5-b8f7-484d-b5b4-3f9415b7cc44"><path class="b794dadc-bfd3-4479-af60-704944fa6cf8" d="M152.74846,60.94916a4.52635,4.52635,0,0,1,1.03406-1.17777,4.46936,4.46936,0,0,1,1.35222-.79243,4.46878,4.46878,0,0,1-1.03408,1.17776A4.52661,4.52661,0,0,1,152.74846,60.94916Z" transform="translate(0.00001 0.1)"/><path class="b794dadc-bfd3-4479-af60-704944fa6cf8" d="M155.56783,60.93675a4.5265,4.5265,0,0,1,1.03433-1.17756,4.46907,4.46907,0,0,1,1.3524-.79216,4.46928,4.46928,0,0,1-1.03433,1.17756A4.527,4.527,0,0,1,155.56783,60.93675Z" transform="translate(0.00001 0.1)"/><path class="b794dadc-bfd3-4479-af60-704944fa6cf8" d="M158.361,61.204a4.52531,4.52531,0,0,1,1.034-1.17754,4.4676,4.4676,0,0,1,1.35209-.79219,4.46812,4.46812,0,0,1-1.034,1.17754A4.52519,4.52519,0,0,1,158.361,61.204Z" transform="translate(0.00001 0.1)"/><path class="b794dadc-bfd3-4479-af60-704944fa6cf8" d="M161.15285,61.471a4.5274,4.5274,0,0,1,1.03456-1.17757,4.47,4.47,0,0,1,1.3526-.79214,4.4706,4.4706,0,0,1-1.03456,1.17756A4.52789,4.52789,0,0,1,161.15285,61.471Z" transform="translate(0.00001 0.1)"/></g><path class="b794dadc-bfd3-4479-af60-704944fa6cf8" d="M144.22071,54.98864s-.78791-2.364-2.56333-2.34982c0,0,1.20906.19914,1.38452,1.06644a7.70006,7.70006,0,0,0-8.16118,1.06935s4.70716-2.83721,7.90036-.22408a2.68507,2.68507,0,0,0-2.87737.49246s1.85115-.63654,2.62713.00827C143.86218,56.15735,144.22071,54.98864,144.22071,54.98864Z" transform="translate(0.00001 0.1)"/><path class="b38a7d65-76e6-4fd4-b83f-33b3f80aac31" d="M144.22072,54.98863a9.44315,9.44315,0,0,0-2.20526-1.09979,7.749,7.749,0,0,0-4.75817-.09369,13.24437,13.24437,0,0,0-2.28233.94945c.326-.25972.66089-.51952,1.01476-.75165a8.34741,8.34741,0,0,1,1.14317-.56174,6.26674,6.26674,0,0,1,2.521-.46313A6.48254,6.48254,0,0,1,144.22072,54.98863Z" transform="translate(0.00001 0.1)"/><path class="f7c2e614-4a5c-46c6-b638-a27ac7a99b27" d="M117.318,84.15993c-.47049-.53333-.534-.69-1.03591-.72143,0,0-.02612-.06192-.06328-.17889-.01216-.44732-.20989-7.56851-.3372-8.33256-.29568-1.77519-2.41859-1.613-2.54407-.29567a46.38559,46.38559,0,0,0,.16836,6.88169,1.14863,1.14863,0,0,0-1.14484-.61564c-.90977,0-1.03684.56472-1.03684.56472s-.8735-.62024-1.40566-.45808a2.04591,2.04591,0,0,0-.83334.46292s-1.27286-.37047-1.46114.08921c-1.02078,2.49155-.29892,8.71951,2.67965,9.30034.02222.00662.039.01809.06215.02405,1.50243.37827,4.04059.48124,5.45423-.54959a3.57386,3.57386,0,0,0,1.75894-2.66151C117.80386,86.41039,118.11673,85.06528,117.318,84.15993Z" transform="translate(0.00001 0.1)"/><text class="a83777cf-1133-4776-99ef-b003728f3d30" transform="translate(40.69862 267.76411) rotate(-32.10777)">E</text><text class="a83777cf-1133-4776-99ef-b003728f3d30" transform="translate(63.78358 253.38228) rotate(-26.96235)">L</text><text class="a83777cf-1133-4776-99ef-b003728f3d30" transform="matrix(0.93067, -0.36587, 0.36587, 0.93067, 87.08241, 241.89888)"> </text><text class="a83777cf-1133-4776-99ef-b003728f3d30" transform="matrix(0.96242, -0.27158, 0.27158, 0.96242, 97.2992, 237.38911)">S</text><text class="a83777cf-1133-4776-99ef-b003728f3d30" transform="translate(122.891 229.97505) rotate(-6.65223)">E</text><text class="a83777cf-1133-4776-99ef-b003728f3d30" transform="translate(148.92127 226.52583) rotate(4.94142)">R</text><text class="a83777cf-1133-4776-99ef-b003728f3d30" transform="translate(177.37635 228.1645) rotate(20.69534)">G</text><text class="a83777cf-1133-4776-99ef-b003728f3d30" transform="matrix(0.84893, 0.52851, -0.52851, 0.84893, 209.6283, 241.56685)">I</text><text class="a83777cf-1133-4776-99ef-b003728f3d30" transform="translate(220.74745 246.79732) rotate(41.32409)">O</text></svg>