<?xml version="1.0" encoding="UTF-8" standalone="no"?>
<!-- Created with Inkscape (http://www.inkscape.org/) -->

<svg
   xmlns:dc="http://purl.org/dc/elements/1.1/"
   xmlns:cc="http://creativecommons.org/ns#"
   xmlns:rdf="http://www.w3.org/1999/02/22-rdf-syntax-ns#"
   xmlns:svg="http://www.w3.org/2000/svg"
   xmlns="http://www.w3.org/2000/svg"
   xmlns:sodipodi="http://sodipodi.sourceforge.net/DTD/sodipodi-0.dtd"
   xmlns:inkscape="http://www.inkscape.org/namespaces/inkscape"
   width="300"
   height="300"
   viewBox="0 0 79.374998 79.375002"
   version="1.1"
   id="svg5030"
   inkscape:version="0.92.1 r15371"
   sodipodi:docname="card_lesunsa_v2.svg">
  <defs
     id="defs5024" />
  <sodipodi:namedview
     id="base"
     pagecolor="#ffffff"
     bordercolor="#666666"
     borderopacity="1.0"
     inkscape:pageopacity="0.0"
     inkscape:pageshadow="2"
     inkscape:zoom="0.35"
     inkscape:cx="-812.22315"
     inkscape:cy="1028.2152"
     inkscape:document-units="px"
     inkscape:current-layer="layer1"
     showgrid="false"
     inkscape:window-width="1920"
     inkscape:window-height="1057"
     inkscape:window-x="0"
     inkscape:window-y="0"
     inkscape:window-maximized="1"
     units="px" />
  <metadata
     id="metadata5027">
    <rdf:RDF>
      <cc:Work
         rdf:about="">
        <dc:format>image/svg+xml</dc:format>
        <dc:type
           rdf:resource="http://purl.org/dc/dcmitype/StillImage" />
        <dc:title></dc:title>
      </cc:Work>
    </rdf:RDF>
  </metadata>
  <g
     inkscape:label="Calque 1"
     inkscape:groupmode="layer"
     id="layer1"
     transform="translate(0,-217.62498)">
    <g
       style="opacity:1"
       id="g4955"
       transform="translate(1160.6976,-1569.7689)">
      <g
         id="g5408"
         transform="translate(-652.70714,708.2338)"
         inkscape:export-filename="/home/louise/Documents/TNCY/Club/teleGD/tgd-telekingdom/res/images/characters/lesunsav2.png"
         inkscape:export-xdpi="96"
         inkscape:export-ydpi="96">
        <rect
           style="opacity:1;fill:#733f6c;fill-opacity:1;stroke:none;stroke-width:2.55100012;stroke-linecap:round;stroke-linejoin:round;stroke-miterlimit:4;stroke-dasharray:none;stroke-dashoffset:0;stroke-opacity:1"
           id="rect5402"
           width="79.375"
           height="79.375"
           x="-507.99048"
           y="1079.16"
           ry="6.1388469" />
        <rect
           ry="5.6272764"
           y="1082.4674"
           x="-504.68317"
           height="72.760414"
           width="72.760414"
           id="rect5404"
           style="opacity:1;fill:#fef2e4;fill-opacity:1;stroke:none;stroke-width:2.33841681;stroke-linecap:round;stroke-linejoin:round;stroke-miterlimit:4;stroke-dasharray:none;stroke-dashoffset:0;stroke-opacity:1" />
      </g>
      <path
         inkscape:connector-curvature="0"
         id="path5520"
         d="m -1090.4742,1861.4164 c 0,0 -2.5767,-7.5355 -2.6972,-8.1741 l 5.0662,-2.4234 2.7445,9.3256 c -2.3075,0.723 -3.0475,0.63 -5.1135,1.2719 z"
         style="fill:#f7c187;fill-opacity:1;stroke:none;stroke-width:0.18047431px;stroke-linecap:butt;stroke-linejoin:miter;stroke-opacity:1"
         sodipodi:nodetypes="ccccc" />
      <path
         inkscape:connector-curvature="0"
         id="path5516"
         d="m -1151.7127,1854.0369 v 0 l -3.1203,4.3221 1.826,4.4855 4.8715,-5.9991 z"
         style="fill:#f7c187;fill-opacity:1;stroke:none;stroke-width:0.18556896px;stroke-linecap:butt;stroke-linejoin:miter;stroke-opacity:1" />
      <g
         transform="matrix(0.99994654,0,0,1.0109829,-1.6473218,-22.244742)"
         id="g5500">
        <g
           transform="matrix(0.25680491,0,-0.01848784,0.25680491,-895.53068,1403.9104)"
           id="g5440">
          <path
             sodipodi:nodetypes="ccccccccccccccc"
             inkscape:connector-curvature="0"
             id="path5410"
             d="m -749.10156,1691.4368 -12.40234,26.4583 2.89388,26.4584 21.49739,13.6426 12.81576,-4.961 -6.61159,3.2855 -7.11649,32.0371 100.71342,2.7254 -11.15545,-35.4249 -4.30971,-3.4499 11.16211,7.028 25.63151,-11.5755 7.028,-28.9388 -21.91081,-29.7657 z"
             style="fill:#393269;fill-opacity:1;stroke:none;stroke-width:0.26458332px;stroke-linecap:butt;stroke-linejoin:miter;stroke-opacity:1" />
          <path
             sodipodi:nodetypes="cccccccccc"
             inkscape:connector-curvature="0"
             id="path5412"
             d="m -712.30794,1677.3808 -36.79362,14.056 4.96094,29.3522 31.00586,17.3633 24.39127,-25.6315 20.25717,21.084 28.11197,-13.6426 9.50847,-31.0059 -42.16797,-13.6426 z"
             style="fill:#ffffff;fill-opacity:1;stroke:none;stroke-width:0.26458332px;stroke-linecap:butt;stroke-linejoin:miter;stroke-opacity:1" />
          <path
             inkscape:connector-curvature="0"
             id="path5414"
             d="m -712.30794,1677.3808 -2.06706,21.084 25.63151,14.056 23.97787,-16.5365 -10.7487,-24.8047 z"
             style="fill:#f7c187;fill-opacity:1;stroke:none;stroke-width:0.26458332px;stroke-linecap:butt;stroke-linejoin:miter;stroke-opacity:1" />
          <path
             inkscape:connector-curvature="0"
             id="path5416"
             d="m -749.30826,1647.0122 -10.7487,18.6035 -19.22364,0.4134 8.68164,3.1006 -6.82128,6.8213 11.3688,-4.7542 14.03147,-4.0361 7.05252,-13.7406 13.22916,-15.9164 -8.26823,-10.542 z"
             style="fill:#7e4f2d;fill-opacity:1;stroke:none;stroke-width:0.26458332px;stroke-linecap:butt;stroke-linejoin:miter;stroke-opacity:1" />
          <path
             style="fill:#7e4f2d;fill-opacity:1;stroke:none;stroke-width:0.26458332px;stroke-linecap:butt;stroke-linejoin:miter;stroke-opacity:1"
             d="m -645.95542,1642.0513 10.7487,18.6035 19.22364,0.4134 -8.68164,3.1006 6.82128,6.8213 -11.3688,-4.7542 -14.03147,-4.0361 -7.05252,-13.7406 -13.22916,-15.9164 8.26823,-10.542 z"
             id="path5418"
             inkscape:connector-curvature="0" />
          <g
             transform="matrix(1,0,0,0.75043281,0,420.91728)"
             id="g5424">
            <path
               style="fill:#fed9ad;fill-opacity:1;stroke:none;stroke-width:0.26458332px;stroke-linecap:butt;stroke-linejoin:miter;stroke-opacity:1"
               d="m -728.20222,1672.5574 35.66377,14.0316 34.49447,-13.447 7.74775,-34.2084 2.68716,-11.3688 -9.85026,-24.581 -14.6163,-25.7247 -59.63453,6.4312 -9.35441,52.034 z"
               id="path5420"
               inkscape:connector-curvature="0"
               sodipodi:nodetypes="cccccccccc" />
            <path
               sodipodi:nodetypes="ccsssccc"
               inkscape:connector-curvature="0"
               id="path5422"
               d="m -728.20222,1672.5574 35.66377,14.0316 c 1.73869,-16.2567 1.96813,-30.3719 1.27039,-42.4971 -0.5818,-10.1105 -4.90883,-16.9771 -6.44246,-24.4084 -4.93832,-23.9287 -9.96107,-36.2835 -10.00248,-36.2776 -10.81826,1.5455 -15.46046,-0.6362 -23.99716,0.2844 l -9.35441,52.034 z"
               style="fill:#fdc181;fill-opacity:1;stroke:none;stroke-width:0.26458332px;stroke-linecap:butt;stroke-linejoin:miter;stroke-opacity:1" />
          </g>
          <path
             sodipodi:nodetypes="ccccc"
             inkscape:connector-curvature="0"
             id="path5426"
             d="m -721.08447,1634.9892 6.18916,13.6224 5.40194,-1.1693 0.005,-17.0405 z"
             style="fill:#1d1a15;fill-opacity:1;stroke:none;stroke-width:0.26458332px;stroke-linecap:butt;stroke-linejoin:miter;stroke-opacity:1" />
          <path
             style="fill:#1d1a15;fill-opacity:1;stroke:none;stroke-width:0.26458332px;stroke-linecap:butt;stroke-linejoin:miter;stroke-opacity:1"
             d="m -670.69126,1633.3104 -3.20924,14.8627 -7.67571,-1.1693 -1.02316,-17.2472 z"
             id="path5428"
             inkscape:connector-curvature="0"
             sodipodi:nodetypes="ccccc" />
          <path
             sodipodi:nodetypes="ccccccccccccccc"
             inkscape:connector-curvature="0"
             id="path5430"
             d="m -731.945,1619.5204 6.20118,12.4023 4.96093,-16.3298 17.36328,13.2292 8.47495,-22.1175 4.75422,22.3242 21.4974,-14.6761 11.36882,15.5029 5.37434,32.6596 1.44695,-41.3412 -29.97233,-21.084 -39.4808,5.5811 -21.91081,11.1621 7.44141,38.2405 z"
             style="fill:#7e4f2d;fill-opacity:1;stroke:none;stroke-width:0.26458332px;stroke-linecap:butt;stroke-linejoin:miter;stroke-opacity:1" />
          <path
             sodipodi:nodetypes="ccccccccc"
             inkscape:connector-curvature="0"
             id="path5432"
             d="m -761.50392,1634.4032 58.91114,-25.2181 74.82749,23.5644 -22.87276,-20.2401 -14.7477,-34.3302 -38.03386,-12.1956 -32.4528,25.218 c -1.99815,8.5439 -6.21613,26.5794 -5.99446,25.6316 z"
             style="fill:#fedf58;fill-opacity:1;stroke:none;stroke-width:0.26458332px;stroke-linecap:butt;stroke-linejoin:miter;stroke-opacity:1" />
          <path
             sodipodi:nodetypes="cccccccccc"
             inkscape:connector-curvature="0"
             id="path5434"
             d="m -761.50392,1634.4032 58.91114,-25.2181 v 0 l 1.44695,-5.7878 -40.72104,13.4359 c 12.96229,1.061 14.90157,-19.6034 22.35236,-29.405 l 16.0949,-21.4446 -35.13997,18.3967 -3.30729,32.4529 z"
             style="fill:#fed10a;fill-opacity:1;stroke:none;stroke-width:0.26458332px;stroke-linecap:butt;stroke-linejoin:miter;stroke-opacity:1" />
          <ellipse
             ry="4.9609375"
             rx="5.3743491"
             cy="1748.4875"
             cx="-685.84961"
             id="ellipse5436"
             style="opacity:1;fill:#ffffff;fill-opacity:1;stroke:none;stroke-width:2.55099988;stroke-linecap:round;stroke-linejoin:round;stroke-miterlimit:4;stroke-dasharray:none;stroke-dashoffset:0;stroke-opacity:1" />
          <ellipse
             style="opacity:1;fill:#ffffff;fill-opacity:1;stroke:none;stroke-width:2.55099988;stroke-linecap:round;stroke-linejoin:round;stroke-miterlimit:4;stroke-dasharray:none;stroke-dashoffset:0;stroke-opacity:1"
             id="ellipse5438"
             cx="-686.67645"
             cy="1729.4706"
             rx="5.3743491"
             ry="4.9609375" />
        </g>
        <g
           id="g5468"
           transform="matrix(-0.25680491,0,0.01848784,0.25680491,-1343.8438,1407.0906)">
          <path
             sodipodi:nodetypes="ccccccccccccc"
             style="fill:#413978;fill-opacity:1;stroke:none;stroke-width:0.26458332px;stroke-linecap:butt;stroke-linejoin:miter;stroke-opacity:1"
             d="m -749.10156,1691.4368 -12.40234,26.4583 2.89388,26.4584 21.49739,13.6426 6.95054,-2.5725 -2.69453,23.763 89.60195,-0.2461 -8.26722,-24.1285 9.90731,4.4243 25.63151,-11.5755 7.028,-28.9388 -21.91081,-29.7657 z"
             id="path5442"
             inkscape:connector-curvature="0" />
          <path
             style="fill:#ffffff;fill-opacity:1;stroke:none;stroke-width:0.26458332px;stroke-linecap:butt;stroke-linejoin:miter;stroke-opacity:1"
             d="m -712.30794,1677.3808 -36.79362,14.056 4.96094,29.3522 55.98639,-0.083 24.58845,0.037 34.84238,-1.365 -2.14248,-30.4212 -42.16797,-13.6426 z"
             id="path5444"
             inkscape:connector-curvature="0"
             sodipodi:nodetypes="ccccccccc" />
          <path
             style="fill:#f7c187;fill-opacity:1;stroke:none;stroke-width:0.26458332px;stroke-linecap:butt;stroke-linejoin:miter;stroke-opacity:1"
             d="m -712.30794,1677.3808 -2.06706,21.084 25.63151,14.056 23.97787,-16.5365 -10.7487,-24.8047 z"
             id="path5446"
             inkscape:connector-curvature="0" />
          <g
             id="g5452"
             transform="matrix(1,0,0,0.75043281,0,420.91728)">
            <path
               sodipodi:nodetypes="cccccccccc"
               inkscape:connector-curvature="0"
               id="path5448"
               d="m -728.20222,1672.5574 35.66377,14.0316 34.49447,-13.447 7.74775,-34.2084 2.68716,-11.3688 -9.85026,-24.581 -14.6163,-25.7247 -59.63453,6.4312 -9.35441,52.034 z"
               style="fill:#fdc181;fill-opacity:1;stroke:none;stroke-width:0.26458332px;stroke-linecap:butt;stroke-linejoin:miter;stroke-opacity:1" />
            <path
               style="fill:#fed9ad;fill-opacity:1;stroke:none;stroke-width:0.26458332px;stroke-linecap:butt;stroke-linejoin:miter;stroke-opacity:1"
               d="m -728.20222,1672.5574 35.66377,14.0316 c 1.73869,-16.2567 1.96813,-30.3719 1.27039,-42.4971 -0.5818,-10.1105 -4.90883,-16.9771 -6.44246,-24.4084 -4.93832,-23.9287 -9.96107,-36.2835 -10.00248,-36.2776 -10.81826,1.5455 -15.46046,-0.6362 -23.99716,0.2844 l -9.35441,52.034 z"
               id="path5450"
               inkscape:connector-curvature="0"
               sodipodi:nodetypes="ccsssccc" />
          </g>
          <path
             style="fill:#1d1a15;fill-opacity:1;stroke:none;stroke-width:0.26458332px;stroke-linecap:butt;stroke-linejoin:miter;stroke-opacity:1"
             d="m -719.25388,1634.5758 5.98245,13.6224 5.62353,-0.9626 -0.82231,-17.0405 z"
             id="path5454"
             inkscape:connector-curvature="0"
             sodipodi:nodetypes="ccccc" />
          <path
             sodipodi:nodetypes="ccccc"
             inkscape:connector-curvature="0"
             id="path5456"
             d="m -673.15685,1633.5172 -2.47171,13.6224 -5.94765,-0.1358 -1.02316,-17.2472 z"
             style="fill:#1d1a15;fill-opacity:1;stroke:none;stroke-width:0.26458332px;stroke-linecap:butt;stroke-linejoin:miter;stroke-opacity:1" />
          <path
             style="fill:#5d3a21;fill-opacity:1;stroke:none;stroke-width:0.26458332px;stroke-linecap:butt;stroke-linejoin:miter;stroke-opacity:1"
             d="m -731.945,1619.5204 6.20118,12.4023 4.96093,-16.3298 17.36328,13.2292 22.94435,-28.7321 -9.71518,28.9388 21.4974,-14.6761 11.36882,15.5029 5.37434,32.6596 1.44695,-41.3412 -29.97233,-21.084 -39.4808,5.5811 -21.91081,11.1621 7.44141,38.2405 z"
             id="path5458"
             inkscape:connector-curvature="0"
             sodipodi:nodetypes="ccccccccccccccc" />
          <path
             style="fill:#fedf58;fill-opacity:1;stroke:none;stroke-width:0.26458332px;stroke-linecap:butt;stroke-linejoin:miter;stroke-opacity:1"
             d="m -761.50392,1634.4032 58.91114,-25.2181 74.82749,23.5644 -22.87276,-20.2401 -14.7477,-34.3302 -38.03386,-12.1956 -32.4528,25.218 c -1.99815,8.5439 -6.21613,26.5794 -5.99446,25.6316 z"
             id="path5460"
             inkscape:connector-curvature="0"
             sodipodi:nodetypes="ccccccccc" />
          <path
             style="fill:#fed10a;fill-opacity:1;stroke:none;stroke-width:0.26458332px;stroke-linecap:butt;stroke-linejoin:miter;stroke-opacity:1"
             d="m -761.50392,1634.4032 58.91114,-25.2181 v 0 l 1.44695,-5.7878 -40.72104,13.4359 c 12.96229,1.061 14.90157,-19.6034 22.35236,-29.405 l 16.0949,-21.4446 -35.13997,18.3967 -3.30729,32.4529 z"
             id="path5462"
             inkscape:connector-curvature="0"
             sodipodi:nodetypes="cccccccccc" />
          <ellipse
             style="opacity:1;fill:#ffffff;fill-opacity:1;stroke:none;stroke-width:2.55099988;stroke-linecap:round;stroke-linejoin:round;stroke-miterlimit:4;stroke-dasharray:none;stroke-dashoffset:0;stroke-opacity:1"
             id="ellipse5464"
             cx="-685.84961"
             cy="1748.4875"
             rx="5.3743491"
             ry="4.9609375" />
          <ellipse
             ry="4.9609375"
             rx="5.3743491"
             cy="1729.4706"
             cx="-686.67645"
             id="ellipse5466"
             style="opacity:1;fill:#ffffff;fill-opacity:1;stroke:none;stroke-width:2.55099988;stroke-linecap:round;stroke-linejoin:round;stroke-miterlimit:4;stroke-dasharray:none;stroke-dashoffset:0;stroke-opacity:1" />
        </g>
      </g>
      <path
         sodipodi:nodetypes="cccccc"
         style="fill:#f7c187;fill-opacity:1;stroke:none;stroke-width:0.1661395px;stroke-linecap:butt;stroke-linejoin:miter;stroke-opacity:1"
         d="m -1121.2107,1861.5821 v 0 l -2.6671,-4.7189 4.5984,-2.9562 3.5542,7.593 z"
         id="path5518"
         inkscape:connector-curvature="0" />
      <g
         id="g5508">
        <path
           style="fill:#fedf58;fill-opacity:1;stroke:none;stroke-width:0.26458332px;stroke-linecap:butt;stroke-linejoin:miter;stroke-opacity:1"
           d="m -1127.7672,1836.5801 -7.481,15.4483 -12.8873,5.0138 -4.5061,1.7097 -0.3654,4.0926 7.3812,0.2191 c 0.9867,-1.3647 1.1899,-3.7088 1.4182,-6.0214 l 10.1287,-4.1369 7.9659,-15.8221 z"
           id="path5502"
           inkscape:connector-curvature="0"
           sodipodi:nodetypes="cccccccccc" />
        <path
           style="fill:#fed10a;fill-opacity:1;stroke:none;stroke-width:0.26458332px;stroke-linecap:butt;stroke-linejoin:miter;stroke-opacity:1"
           d="m -1145.3078,1855.93 -5.4337,6.1836 -1.9001,-3.3617 z"
           id="path5504"
           inkscape:connector-curvature="0"
           sodipodi:nodetypes="cccc" />
      </g>
      <g
         transform="matrix(-0.88586958,0,0,1.0819533,-2114.3024,-153.28598)"
         id="g5514">
        <path
           sodipodi:nodetypes="cccccccccc"
           inkscape:connector-curvature="0"
           id="path5510"
           d="m -1127.7672,1836.5801 -7.481,15.4483 -12.8873,5.0138 -4.5061,1.7097 -0.3654,4.0926 7.3812,0.2191 c 0.9867,-1.3647 1.1899,-3.7088 1.4182,-6.0214 l 10.1287,-4.1369 7.9659,-15.8221 z"
           style="fill:#fedf58;fill-opacity:1;stroke:none;stroke-width:0.26458332px;stroke-linecap:butt;stroke-linejoin:miter;stroke-opacity:1" />
        <path
           sodipodi:nodetypes="cccc"
           inkscape:connector-curvature="0"
           id="path5512"
           d="m -1145.3078,1855.93 -5.4337,6.1836 -1.9001,-3.3617 z"
           style="fill:#fed10a;fill-opacity:1;stroke:none;stroke-width:0.26458332px;stroke-linecap:butt;stroke-linejoin:miter;stroke-opacity:1" />
      </g>
      <path
         transform="matrix(1.5800294,0.23578764,-0.23578764,1.5800294,1072.1597,-778.82839)"
         inkscape:transform-center-y="-2.1974803"
         inkscape:transform-center-x="-0.74561585"
         d="m -1114.5641,1802.1932 -4.3913,0.4069 -2.1544,3.8482 -1.744,-4.0507 -4.3255,-0.8597 3.3135,-2.9104 -0.5191,-4.3795 3.7919,2.2519 4.0048,-1.847 -0.97,4.3022 z"
         inkscape:randomized="0"
         inkscape:rounded="0"
         inkscape:flatsided="false"
         sodipodi:arg2="0.99437505"
         sodipodi:arg1="0.36605652"
         sodipodi:r2="3.3205876"
         sodipodi:r1="6.6411753"
         sodipodi:cy="1799.816"
         sodipodi:cx="-1120.7653"
         sodipodi:sides="5"
         id="path5522"
         style="opacity:1;fill:#ffa84b;fill-opacity:1;stroke:none;stroke-width:2.55099988;stroke-linecap:round;stroke-linejoin:round;stroke-miterlimit:4;stroke-dasharray:none;stroke-dashoffset:0;stroke-opacity:1"
         sodipodi:type="star" />
      <flowRoot
         transform="matrix(0.2516485,0.01153681,-0.01153681,0.2516485,64.791816,131.26606)"
         style="font-style:normal;font-variant:normal;font-weight:500;font-stretch:normal;font-size:40px;line-height:1.25;font-family:Cabin;-inkscape-font-specification:'Cabin Medium';letter-spacing:0px;word-spacing:0px;fill:#ad68a3;fill-opacity:1;stroke:none"
         id="flowRoot5526"
         xml:space="preserve"><flowRegion
           style="font-style:normal;font-variant:normal;font-weight:500;font-stretch:normal;font-family:Cabin;-inkscape-font-specification:'Cabin Medium';fill:#ad68a3;fill-opacity:1"
           id="flowRegion5528"><rect
             style="font-style:normal;font-variant:normal;font-weight:500;font-stretch:normal;font-family:Cabin;-inkscape-font-specification:'Cabin Medium';fill:#ad68a3;fill-opacity:1"
             y="6813.9258"
             x="-4425.3906"
             height="48.046875"
             width="142.57812"
             id="rect5530" /></flowRegion><flowPara
           style="font-style:normal;font-variant:normal;font-weight:500;font-stretch:normal;font-family:Cabin;-inkscape-font-specification:'Cabin Medium';fill:#ad68a3;fill-opacity:1"
           id="flowPara5532">1A</flowPara></flowRoot>      <path
         sodipodi:type="star"
         style="opacity:1;fill:#ffa84b;fill-opacity:1;stroke:none;stroke-width:2.55099988;stroke-linecap:round;stroke-linejoin:round;stroke-miterlimit:4;stroke-dasharray:none;stroke-dashoffset:0;stroke-opacity:1"
         id="path5540"
         sodipodi:sides="5"
         sodipodi:cx="-1120.7653"
         sodipodi:cy="1799.816"
         sodipodi:r1="6.6411753"
         sodipodi:r2="3.3205876"
         sodipodi:arg1="0.36605652"
         sodipodi:arg2="0.99437505"
         inkscape:flatsided="false"
         inkscape:rounded="0"
         inkscape:randomized="0"
         d="m -1114.5641,1802.1932 -4.3913,0.4069 -2.1544,3.8482 -1.744,-4.0507 -4.3255,-0.8597 3.3135,-2.9104 -0.5191,-4.3795 3.7919,2.2519 4.0048,-1.847 -0.97,4.3022 z"
         inkscape:transform-center-x="-0.13981005"
         inkscape:transform-center-y="-0.41200699"
         transform="matrix(0.29625126,0.04420955,-0.04420955,0.29625126,-698.24912,1317.3956)" />
      <path
         transform="matrix(0.52843213,0.07885788,-0.07885788,0.52843213,-369.95245,932.0605)"
         inkscape:transform-center-y="-0.73494506"
         inkscape:transform-center-x="-0.24937887"
         d="m -1114.5641,1802.1932 -4.3913,0.4069 -2.1544,3.8482 -1.744,-4.0507 -4.3255,-0.8597 3.3135,-2.9104 -0.5191,-4.3795 3.7919,2.2519 4.0048,-1.847 -0.97,4.3022 z"
         inkscape:randomized="0"
         inkscape:rounded="0"
         inkscape:flatsided="false"
         sodipodi:arg2="0.99437505"
         sodipodi:arg1="0.36605652"
         sodipodi:r2="3.3205876"
         sodipodi:r1="6.6411753"
         sodipodi:cy="1799.816"
         sodipodi:cx="-1120.7653"
         sodipodi:sides="5"
         id="path5542"
         style="opacity:1;fill:#ffa84b;fill-opacity:1;stroke:none;stroke-width:2.55099988;stroke-linecap:round;stroke-linejoin:round;stroke-miterlimit:4;stroke-dasharray:none;stroke-dashoffset:0;stroke-opacity:1"
         sodipodi:type="star" />
    </g>
  </g>
</svg>
